<svg xmlns="http://www.w3.org/2000/svg" width="38.001" height="38" viewBox="0 0 38.001 38">
  <path id="PICTO_FACEBOOK_ROUNDED" d="M19,38a19,19,0,0,1-7.4-36.507A19,19,0,0,1,26.4,36.507,18.88,18.88,0,0,1,19,38ZM14.8,16.682a.329.329,0,0,0-.326.33v2.66A.329.329,0,0,0,14.8,20h2.083v6.711a.328.328,0,0,0,.324.33h2.717a.329.329,0,0,0,.326-.33V20h2.435a.329.329,0,0,0,.326-.33v-2.66a.329.329,0,0,0-.326-.33H20.25V15.126c0-.749.176-1.129,1.136-1.129h1.4a.328.328,0,0,0,.324-.33V11.2a.33.33,0,0,0-.324-.334H20.713c-.068,0-.136-.006-.2-.006A3.64,3.64,0,0,0,17.9,11.97a3.723,3.723,0,0,0-1.022,2.876v1.836Z" transform="translate(0)" fill="#292f33"/>
</svg>
