<svg xmlns="http://www.w3.org/2000/svg" width="38" height="38" viewBox="0 0 38 38">
  <g id="Groupe_16525" data-name="Groupe 16525" transform="translate(-446 -623)">
    <circle id="Ellipse_60" data-name="Ellipse 60" cx="19" cy="19" r="19" transform="translate(446 623)" fill="#292f33"/>
    <g id="PICTO_INSTAGRAM_ROUNDED" transform="translate(456 633)">
      <path id="Exclusion_1" data-name="Exclusion 1" d="M15,18H3a3,3,0,0,1-3-3V3A3,3,0,0,1,3,0H15a3,3,0,0,1,3,3V15A3,3,0,0,1,15,18ZM14.777,2.77a.872.872,0,1,0,.871.871A.873.873,0,0,0,14.777,2.77Z" fill="#fff"/>
      <g id="Groupe_551" data-name="Groupe 551" transform="translate(4.926 5.017)">
        <g id="Groupe_35" data-name="Groupe 35">
          <path id="Tracé_93" data-name="Tracé 93" d="M-17.773,0a4.046,4.046,0,0,1,4.046,4.046,4.046,4.046,0,0,1-4.046,4.046,4.046,4.046,0,0,1-4.046-4.046A4.046,4.046,0,0,1-17.773,0Z" transform="translate(21.819 0)" fill="none" stroke="#292f33" stroke-width="1"/>
        </g>
      </g>
    </g>
  </g>
</svg>
