<svg xmlns="http://www.w3.org/2000/svg" width="35.407" height="35.407" viewBox="0 0 35.407 35.407"><defs><style>.a{fill:#fff;}</style></defs><g transform="translate(-16 -16)"><path class="a" d="M51.235,43.385l-3.754-3.754a1.749,1.749,0,0,0-.625-.4l2.373-2.373A6.4,6.4,0,0,0,51.114,32.3V22.579A6.58,6.58,0,0,0,44.535,16H34.811a6.4,6.4,0,0,0-4.552,1.885L29.046,19.1l.828.828,1.212-1.212a5.232,5.232,0,0,1,3.725-1.543h9.724a5.409,5.409,0,0,1,5.409,5.409V32.3A5.232,5.232,0,0,1,48.4,36.027l-3.089,3.089h-.686l-2.968-2.968L44.4,33.4a2.908,2.908,0,0,0,.857-2.069V24.778a2.929,2.929,0,0,0-2.926-2.926H35.78a2.907,2.907,0,0,0-2.069.857l-2.746,2.746L28.29,22.78V21.166a1.744,1.744,0,0,0-.514-1.242l-3.754-3.754a.585.585,0,0,0-.828,0l-2.341,2.341a.585.585,0,0,0,0,.828l3.754,3.754a1.77,1.77,0,0,0,.241.2L23.3,24.848a1.775,1.775,0,0,0-.2-.241L19.34,20.853a.585.585,0,0,0-.828,0l-2.341,2.341a.585.585,0,0,0,0,.828l3.754,3.754a1.77,1.77,0,0,0,.241.2l-2.281,2.281A6.4,6.4,0,0,0,16,34.811v9.724a6.58,6.58,0,0,0,6.579,6.58H32.3a6.4,6.4,0,0,0,4.552-1.885l1.212-1.212-.828-.828L36.028,48.4A5.232,5.232,0,0,1,32.3,49.944H22.579a5.409,5.409,0,0,1-5.409-5.409V34.811a5.232,5.232,0,0,1,1.543-3.724l2.8-2.8H22.78l2.675,2.675-2.746,2.746a2.908,2.908,0,0,0-.857,2.069v6.555a2.929,2.929,0,0,0,2.926,2.926h6.555A2.907,2.907,0,0,0,33.4,44.4l2.746-2.746,2.968,2.968V46.24a1.744,1.744,0,0,0,.514,1.242l3.754,3.754a.585.585,0,0,0,.828,0l2.341-2.341a.585.585,0,0,0,0-.828L42.8,44.313a1.75,1.75,0,0,0-.625-.4l1.736-1.735a1.75,1.75,0,0,0,.4.625l3.754,3.754a.585.585,0,0,0,.828,0l2.341-2.341A.585.585,0,0,0,51.235,43.385Zm-7.658-10.81-2.746,2.746-1.472-1.472,4.732-4.732v2.216A1.745,1.745,0,0,1,43.577,32.575Zm-9.038-9.038a1.744,1.744,0,0,1,1.242-.514H38l-4.732,4.732-1.472-1.472ZM22.094,18.926l1.513-1.513,3.34,3.34a.581.581,0,0,1,.171.414v1.271H25.848a.581.581,0,0,1-.414-.171Zm.343,8.193H21.166a.581.581,0,0,1-.414-.171l-3.34-3.34,1.513-1.513,3.34,3.34a.581.581,0,0,1,.171.414Zm1.17.343V26.191l2.583-2.583h1.271l2.675,2.675-3.854,3.854Zm-.071,7.077,2.746-2.746,3.349,3.349.828-.828L29.41,33.264l3.1-3.1-.828-.828-3.1,3.1-1.472-1.472,3.854-3.854,3.349,3.349.828-.828-1.049-1.049,5.56-5.56h2.684a1.745,1.745,0,0,1,.756.172l-19.9,19.9a1.745,1.745,0,0,1-.171-.757V39.652l4.511-4.511-.828-.828L23.023,38V35.78a1.745,1.745,0,0,1,.514-1.242Zm9.038,9.038a1.744,1.744,0,0,1-1.242.514H29.117L32.8,40.408l-.828-.828-4.511,4.511H24.778a1.745,1.745,0,0,1-.757-.172l19.9-19.9a1.746,1.746,0,0,1,.171.757v2.684l-5.56,5.56-1.049-1.049-.828.828L40,36.149,36.149,40l-1.472-1.472,3.116-3.116-.828-.828L33.849,37.7,32.8,36.654l-.828.828,3.349,3.349Zm8.256-6.6L43.8,39.944v.686L40.63,43.8h-.686l-2.968-2.968Zm4.481,11.5L43.8,49.994l-3.34-3.34a.581.581,0,0,1-.171-.414V44.969h1.271a.581.581,0,0,1,.414.171Zm3.169-3.169-3.34-3.34a.581.581,0,0,1-.171-.414V40.287H46.24a.581.581,0,0,1,.414.171l3.34,3.34Z" transform="translate(0)"/><circle class="a" cx="1" cy="1" r="1" transform="translate(30.36 20.361)"/><circle class="a" cx="1" cy="1" r="1" transform="translate(45.36 20.361)"/><circle class="a" cx="1" cy="1" r="1" transform="translate(45.36 33.361)"/><circle class="a" cx="1" cy="1" r="1" transform="translate(20.36 30.361)"/><circle class="a" cx="1" cy="1" r="1" transform="translate(33.36 45.361)"/><circle class="a" cx="1" cy="1" r="1" transform="translate(20.36 45.361)"/></g></svg>