<svg xmlns="http://www.w3.org/2000/svg" width="19.422" height="20" viewBox="0 0 19.422 20"><g transform="translate(0)"><path d="M26.708,11.161a9.23,9.23,0,0,0-7.485,3.54,11.189,11.189,0,0,0-2.179,7.844c0,.009,0,.018,0,.028a.295.295,0,1,0,.589-.028,2.59,2.59,0,0,1,2.823-2.29,2.59,2.59,0,0,1,2.823,2.29.294.294,0,0,0,.092.211h.009a.294.294,0,0,0,.037.037h.009l.028.018.009.009h.018l.009.009h.018l.009.009h.018l.009.009h.018a.294.294,0,0,0,.156-.037l.028-.018h.009a.382.382,0,0,0,.129-.248,2.59,2.59,0,0,1,2.823-2.29,2.59,2.59,0,0,1,2.823,2.29.294.294,0,0,0,.175.267l.009.009h.018l.009.009h.018l.009.009h.018l.009.009h.018a.313.313,0,0,0,.322-.3,2.59,2.59,0,0,1,2.823-2.29,2.59,2.59,0,0,1,2.823,2.29.295.295,0,1,0,.589.028c0-.009,0-.018,0-.028A11.189,11.189,0,0,0,34.193,14.7,9.232,9.232,0,0,0,26.708,11.161Zm0,.589a8.609,8.609,0,0,1,7.025,3.31,10.348,10.348,0,0,1,2.051,5.968,3.516,3.516,0,0,0-2.823-1.361,3.671,3.671,0,0,0-2.685,1.113c-.074-2.932-.458-5.868-1.315-7.614a.292.292,0,1,0-.524.257c.8,1.638,1.21,4.727,1.26,7.743a3.542,3.542,0,0,0-2.989-1.5A3.475,3.475,0,0,0,23.582,21.4a3.653,3.653,0,0,0-5.949-.368,10.348,10.348,0,0,1,2.051-5.968,8.44,8.44,0,0,1,5.536-3.2,7.144,7.144,0,0,0-1.186,2.253,20.544,20.544,0,0,0-1,5,.3.3,0,0,0,.589.046,20.045,20.045,0,0,1,.966-4.855,4.806,4.806,0,0,1,1.637-2.538h.009C26.388,11.761,26.546,11.75,26.708,11.75Zm-.064,10.106a.294.294,0,0,0-.23.294v8.717a.294.294,0,1,0,.589,0V22.15a.294.294,0,0,0-.359-.294Z" transform="translate(-16.997 -11.161)"/></g></svg>