<svg xmlns="http://www.w3.org/2000/svg" width="23.495" height="20.85" viewBox="0 0 23.495 20.85"><path d="M11.252,20v0C10,18.74,8.788,17.577,7.719,16.549l-.245-.234C2.973,11.988,0,9.131,0,5.627A5.519,5.519,0,0,1,5.625,0a6.183,6.183,0,0,1,5.627,3.749A6.178,6.178,0,0,1,16.877,0a5.623,5.623,0,0,1,4,1.61,5.6,5.6,0,0,1,1.614,4.017c0,3.5-2.969,6.36-7.464,10.684l0,0-.388.372-.114.112c-1,.958-2.127,2.044-3.273,3.2Z" transform="translate(0.5 0.5)" fill="none" stroke="#292f33" stroke-linecap="round" stroke-linejoin="round" stroke-width="1"/></svg>