<svg xmlns="http://www.w3.org/2000/svg" width="11.355" height="16" viewBox="0 0 11.355 16"><defs><style>.a{fill:#292f33;fill-rule:evenodd;}</style></defs><path class="a" d="M9.675,7.817H2.117a.787.787,0,0,0-.486.125.754.754,0,0,0-.231.306,1.678,1.678,0,0,0-.142.609V14.01a1.223,1.223,0,0,0,.145.655.669.669,0,0,0,.264.245,1.159,1.159,0,0,0,.45.131H9.688a.787.787,0,0,0,.486-.125.754.754,0,0,0,.231-.306A1.679,1.679,0,0,0,10.548,14V8.849a1.223,1.223,0,0,0-.145-.655.679.679,0,0,0-.263-.245,1.159,1.159,0,0,0-.465-.132Zm.012-1.032H2.117C.225,6.785.225,8.849.225,8.849V14.01a1.911,1.911,0,0,0,1.892,2.065H9.688c1.892,0,1.892-2.065,1.892-2.065V8.849A1.911,1.911,0,0,0,9.688,6.785Zm-7.4-3.1a3.613,3.613,0,1,1,7.226,0v3.1H8.483v-3.1a2.581,2.581,0,0,0-5.161,0v3.1H2.29Z" transform="translate(-0.225 -0.075)"/></svg>