<svg xmlns="http://www.w3.org/2000/svg" width="30" height="30" viewBox="0 0 30 30"><defs><style>.a{fill:#fff;}</style></defs><g transform="translate(-20.269 -93.262)"><g transform="translate(20.269 93.262)"><path class="a" d="M29,2.174c-.127-.141-.247-.276-.338-.4a.615.615,0,0,0-.126-.125c-.124-.092-.26-.216-.405-.347a4.052,4.052,0,0,0-2.907-1.3c-1.4,0-3.126.693-5.274,2.118a65.919,65.919,0,0,0-9.413,8.128,63.887,63.887,0,0,0-8.125,9.462C.984,21.909.29,23.691.293,25.163a4.344,4.344,0,0,0,1.566,3.265,4.379,4.379,0,0,0,3.287,1.58h0c1.466,0,3.242-.694,5.429-2.119A63.851,63.851,0,0,0,20,19.805C25.69,14.125,28.88,10,29.918,7.043,30.889,4.273,29.754,3.01,29,2.174ZM28.736,6.63c-.96,2.739-4.144,6.823-9.618,12.291-6.541,6.527-11.241,9.836-13.972,9.836a3.175,3.175,0,0,1-2.4-1.213l0,0a3.114,3.114,0,0,1-1.2-2.382c-.006-2.743,3.319-7.461,9.881-14.022,6.615-6.608,11.207-9.88,13.8-9.88a2.868,2.868,0,0,1,2.068.974c.143.129.28.253.423.366.109.139.228.272.354.411C28.756,3.77,29.463,4.557,28.736,6.63Z" transform="translate(-0.293 -0.008)"/><path class="a" d="M114.737,259.113a3.1,3.1,0,0,0-1.457-1.9,3.152,3.152,0,0,0-.649-.282,8.522,8.522,0,0,0-.977-.656,7.673,7.673,0,0,0-3.5-1.386,2.74,2.74,0,0,0-2.4,1.592,2.675,2.675,0,0,0,.068,3.236,9.586,9.586,0,0,0,2.7,1.969,8.459,8.459,0,0,0,1.056.516,3.128,3.128,0,0,0,4.836-.712l.006-.01c.017-.029.033-.06.049-.089A3.1,3.1,0,0,0,114.737,259.113Zm-3.019-1.067a1.876,1.876,0,0,1,.936.253,1.872,1.872,0,0,1,.687,2.56,1.877,1.877,0,0,1-3.438-.452,1.862,1.862,0,0,1,.187-1.423A1.885,1.885,0,0,1,111.718,258.046Zm-3.641,1.923.041-.071a.626.626,0,0,0-1.052-.675,2.575,2.575,0,0,1-.262-.28c-.308-.387-.517-.877.036-1.834.5-.858.964-.968,1.316-.968a2.2,2.2,0,0,1,.627.106.625.625,0,0,0,1.09.612l.064-.11c.18.093.363.2.549.3a3.135,3.135,0,0,0-1.479,1.309,3.1,3.1,0,0,0-.4,1.934C108.426,260.185,108.248,260.077,108.077,259.969Z" transform="translate(-99.092 -239.957)"/><path class="a" d="M264.318,107.448a8.559,8.559,0,0,0-.519-1.057c-.974-1.685-1.895-3.277-3.542-3.277a3.33,3.33,0,0,0-1.669.51,2.676,2.676,0,0,0-1.561,2.836,9.559,9.559,0,0,0,1.355,3.055,8.408,8.408,0,0,0,.655.974,3.192,3.192,0,0,0,.283.65,3.14,3.14,0,0,0,2.711,1.562h0a3.132,3.132,0,0,0,1.562-.419h0l.087-.054a3.119,3.119,0,0,0,.637-4.78Zm-.664,1.191a1.876,1.876,0,0,1-1.623,2.812h0a1.885,1.885,0,0,1-1.628-.938,1.876,1.876,0,0,1,1.623-2.812A1.886,1.886,0,0,1,263.654,108.639Zm-4.441-3.933a2.167,2.167,0,0,1,1.043-.342,1.48,1.48,0,0,1,1.072.569.625.625,0,0,0,.676,1.049l.069-.039q.157.249.324.532a3.105,3.105,0,0,0-1.934.4,3.1,3.1,0,0,0-1.311,1.475q-.162-.289-.3-.547l.107-.062a.625.625,0,0,0-.61-1.09A1.462,1.462,0,0,1,259.214,104.706Z" transform="translate(-241.935 -97.072)"/></g></g></svg>