<svg xmlns="http://www.w3.org/2000/svg" width="36" height="30" viewBox="0 0 36 30"><defs><style>.a{fill:#fff;}</style></defs><g transform="translate(-9.296 -12.296)"><g transform="translate(9.296 12.296)"><g transform="translate(0)"><path class="a" d="M18.872.872a21.2,21.2,0,0,1,12.7,3.967c3.277,2.469,5.3,5.887,5.3,9.668a10.513,10.513,0,0,1-.319,2.571,11.183,11.183,0,0,1-.948,2.467l-.26-.138.261.138a.295.295,0,0,1-.53-.016,14.617,14.617,0,0,0-6.393-6,21.589,21.589,0,0,0-9.81-2.268,21.589,21.589,0,0,0-9.81,2.268,14.609,14.609,0,0,0-6.4,6.012l-.26-.138.261.138a.295.295,0,0,1-.531-.018,11.178,11.178,0,0,1-.939-2.449,10.513,10.513,0,0,1-.319-2.571c0-3.781,2.027-7.2,5.3-9.668A21.2,21.2,0,0,1,18.872.872ZM31.215,5.311A20.611,20.611,0,0,0,18.872,1.465,20.611,20.611,0,0,0,6.529,5.311c-3.131,2.358-5.067,5.61-5.067,9.2a9.926,9.926,0,0,0,.3,2.427,10.464,10.464,0,0,0,.652,1.838A15.452,15.452,0,0,1,8.795,13a22.178,22.178,0,0,1,10.077-2.333A22.178,22.178,0,0,1,28.949,13a15.452,15.452,0,0,1,6.379,5.767,10.462,10.462,0,0,0,.652-1.838,9.926,9.926,0,0,0,.3-2.427c0-3.585-1.936-6.837-5.067-9.2Z" transform="translate(-0.872 -0.872)"/><g transform="translate(2.121 10.544)"><path class="a" d="M8.341,21.493a.295.295,0,1,0,.569-.153L3.126,2.574a.295.295,0,1,0-.569.153Z" transform="translate(7.193 -2.354)"/><path class="a" d="M1.675,6.715a.294.294,0,0,0-.417,0,.3.3,0,0,0,0,.419L16.8,19.739a.294.294,0,0,0,.417,0,.3.3,0,0,0,0-.419L1.675,6.715Zm15.035,12.9a.294.294,0,1,0,.51-.294L6.037,2.827a.294.294,0,1,0-.51.294L16.71,19.614Z" transform="translate(-1.171 -0.37)"/><path class="a" d="M2.122,21.435a.295.295,0,1,0,.569.153L8.4,2.727a.295.295,0,1,0-.569-.153Z" transform="translate(13.611 -2.354)"/><path class="a" d="M16.4,7.135a.3.3,0,0,0,0-.419.294.294,0,0,0-.417,0L.661,19.316a.3.3,0,0,0,0,.419.294.294,0,0,0,.417,0L16.4,7.135ZM.661,19.274a.294.294,0,1,0,.51.294L12.134,3.121a.294.294,0,1,0-.51-.294Z" transform="translate(15.268 -0.37)"/></g></g></g></g></svg>