<svg xmlns="http://www.w3.org/2000/svg" width="19.509" height="15" viewBox="0 0 19.509 15"><defs><style>.a{fill:#fff;}</style></defs><g transform="translate(12.238 -11.001)"><path class="a" d="M12.663,14.961a1.411,1.411,0,1,1,1.411,1.411,1.411,1.411,0,0,1-1.411-1.411Zm15.151-3.233A1.991,1.991,0,0,1,28.271,13V24a2,2,0,0,1-2,2H10.761a2,2,0,0,1-2-2V13a2,2,0,0,1,2-2H26.271a1.992,1.992,0,0,1,1.272.457,2.012,2.012,0,0,1,.271.271ZM9.845,13V23.572L13.4,20.021a.57.57,0,0,1,.806,0l4.141,4.141a.434.434,0,1,0,.613-.613l-1.864-1.864L22.678,16.1a.57.57,0,0,1,.806,0l3.7,3.7V13a.91.91,0,0,0-.249-.624c-.007-.007-.012-.016-.02-.024s-.016-.013-.024-.02a.91.91,0,0,0-.624-.249H10.761A.917.917,0,0,0,9.845,13Z" transform="translate(-21)"/></g></svg>