<svg xmlns="http://www.w3.org/2000/svg" width="34" height="30" viewBox="0 0 34 30"><defs><style>.a{fill:#fff;}</style></defs><g transform="translate(-5.873 -18.462)"><g transform="translate(13.442 36.848)"><path class="a" d="M42.794,64.564c0,.6-.477,1.17-1.307,1.56l-.643.3.665.251c.805.3,1.285.733,1.285,1.152,0,.735-1.537,1.553-3.743,1.553a5.825,5.825,0,0,1-3.272-.832l-.1-.077-.126.021a4.562,4.562,0,0,1-2.5-.271l-.1-.043-.1.032a6.606,6.606,0,0,1-1.887.264,4.7,4.7,0,0,1-3.24-1.008l-.136-.146-.186.068a3.214,3.214,0,0,1-1.109.192c-1.3,0-2.364-.72-2.364-1.606,0-.767.808-1.429,1.921-1.576l.291-.038-.032-.291a1.046,1.046,0,0,1-.009-.125c0-.93,1.108-1.687,2.47-1.687a3.459,3.459,0,0,1,.536.045l.034.005q.126.021.248.05l.006,0a2.865,2.865,0,0,1,.812.332c.029.018.06.035.088.055s.07.05.1.076.075.06.111.091.049.042.073.064a1.752,1.752,0,0,1,.157.17s0,0,0,.005l.146.184.213-.1a5.376,5.376,0,0,1,2.187-.43,4.688,4.688,0,0,1,2.724.744l.2.153.184-.175a4.36,4.36,0,0,1,2.942-.973c.118,0,.236,0,.352.011.074,0,.146.013.219.02l.122.011c.086.011.17.025.253.039l.078.013c.089.016.176.037.263.057l.053.013C41.911,63.033,42.794,63.751,42.794,64.564Z" transform="translate(-23.931 -62.258)"/></g><g transform="translate(15.761 42.098)"><path class="a" d="M36.577,79.431a25.549,25.549,0,0,1-6.927-.911.257.257,0,0,1,.141-.494,25.033,25.033,0,0,0,6.785.891c5.555,0,10.462-1.626,12.211-4.047a.257.257,0,1,1,.416.3C47.363,77.719,42.288,79.431,36.577,79.431Z" transform="translate(-29.464 -74.763)"/></g><g transform="translate(30.304 35.214)"><path class="a" d="M69.832,63.818a.256.256,0,0,1-.256-.257c0-1.831-1.959-3.586-5.238-4.7a.257.257,0,0,1,.164-.486c3.55,1.2,5.587,3.088,5.587,5.181A.257.257,0,0,1,69.832,63.818Z" transform="translate(-64.163 -58.365)"/></g><g transform="translate(9.517 34.307)"><path class="a" d="M18.3,66.7a.262.262,0,0,1-.115-.027c-2.332-1.176-3.618-2.726-3.618-4.367,0-2.856,3.852-5.308,9.586-6.1a.257.257,0,1,1,.07.508c-5.382.744-9.142,3.044-9.142,5.592,0,1.437,1.184,2.825,3.335,3.909a.257.257,0,0,1-.115.486Z" transform="translate(-14.566 -56.204)"/></g><g transform="translate(5.873 36.29)"><path class="a" d="M22.877,73.1h0c-9.373,0-17-3.612-17-8.052a5.368,5.368,0,0,1,2.292-4.062.257.257,0,0,1,.324.4,4.878,4.878,0,0,0-2.1,3.663c0,4.156,7.4,7.538,16.487,7.538h0a33.777,33.777,0,0,0,6.205-.558.257.257,0,0,1,.1.5A34.21,34.21,0,0,1,22.877,73.1Z" transform="translate(-5.873 -60.929)"/></g><g transform="translate(30.598 33.3)"><path class="a" d="M66.185,67.733a.257.257,0,0,1-.073-.5c4.705-1.409,7.514-3.77,7.514-6.315,0-2.737-3.283-5.268-8.568-6.6a.257.257,0,0,1,.125-.5c5.525,1.4,8.956,4.119,8.956,7.1,0,2.784-2.945,5.328-7.88,6.807A.243.243,0,0,1,66.185,67.733Z" transform="translate(-64.863 -53.805)"/></g><g transform="translate(9.517 32.506)"><path class="a" d="M14.823,55.222a.257.257,0,0,1-.13-.479,24.771,24.771,0,0,1,9.949-2.826.257.257,0,0,1,.047.512,24.262,24.262,0,0,0-9.737,2.759A.26.26,0,0,1,14.823,55.222Z" transform="translate(-14.567 -51.915)"/></g><g transform="translate(19.051 18.462)"><path class="a" d="M46.873,19.12c-.071.045-7.1,4.617-9.558,17.249l.011,0a3.631,3.631,0,0,1,.806.307c.025.013.049.028.074.043a2.94,2.94,0,0,1,.268.17l.076.054a2.725,2.725,0,0,1,.285.249,5.786,5.786,0,0,1,1.509-.355,6.811,6.811,0,0,1,.721-.042,5.552,5.552,0,0,1,2.883.725,5.142,5.142,0,0,1,3.169-.975c.2,0,.393.012.583.029l.087.008c.2.02.389.047.575.085C49.682,26.24,52.52,20.646,52.55,20.59,53.349,19.491,49.47,17.391,46.873,19.12ZM40.612,35.591a.3.3,0,0,1-.3.271h-.028a.3.3,0,0,1-.27-.327A29.8,29.8,0,0,1,44.958,22.9a.3.3,0,1,1,.492.341A29.112,29.112,0,0,0,40.612,35.591Zm7.46-11.4A34.922,34.922,0,0,0,45.2,35.576a.3.3,0,0,1-.3.287s-.306-.148-.3-.313a35.565,35.565,0,0,1,2.921-11.607C47.594,23.791,48.14,24.039,48.072,24.189Z" transform="translate(-37.315 -18.462)"/></g></g></svg>