<svg xmlns="http://www.w3.org/2000/svg" width="43" height="30" viewBox="0 0 43 30"><defs><style>.a{fill:#fff;}</style></defs><g transform="translate(-110.153 -78.198)"><g transform="translate(110.153 78.198)"><path class="a" d="M48.955,48.75,42.858,33.9a1.411,1.411,0,0,0-1.979-.734l-1.338.689a2.019,2.019,0,0,1-2.375-.5l-10.4-12.724a.836.836,0,0,0-1.557.249L19.789,34.816a1.282,1.282,0,0,1-1.907.661L13.02,32.585a1.526,1.526,0,0,0-2.111.564L6.549,48.683c-.424.749-.524,1.361-.222,1.361s.922-.6,1.38-1.324l4.147-13.642a.887.887,0,0,1,1.64.015l2.795,4.632a3.023,3.023,0,0,1,.058,2.712l-1.354,2.476a4.021,4.021,0,0,0-.232,2.849l.337.958A2.365,2.365,0,0,0,17.173,50.2h8.888c.856,0,1.021-.454.367-1.01L23.735,46.9a3.266,3.266,0,0,1-1.006-2.566l.281-2.372a3.893,3.893,0,0,0-.872-2.707l-1-1.092a2.55,2.55,0,0,1-.4-2.572l5.108-11.075c.36-.781.985-.8,1.388-.038l5.35,10.107a6.575,6.575,0,0,1,.637,2.946l-.07,1.181c-.052.86.472,1.149,1.165.642l6.044-4.423c.692-.507,1.172-.222,1.066.633l-.523,4.2a4.2,4.2,0,0,0,.8,2.763l5.284,6.454A3.174,3.174,0,0,0,48.76,50.2C49.194,50.2,49.282,49.546,48.955,48.75Z" transform="translate(-6.153 -20.198)"/><path class="a" d="M69.6,69.1c-.362-.78-.892-.756-1.181.055l-.249.705a3.442,3.442,0,0,1-2.02,1.911l-1.938.564a2.9,2.9,0,0,0-1.745,1.152c-.138.394.451.716,1.307.716H70.4a.922.922,0,0,0,.9-1.419Z" transform="translate(-36.98 -44.205)"/></g></g></svg>