<svg xmlns="http://www.w3.org/2000/svg" width="24.802" height="20.153" viewBox="0 0 24.802 20.153"><defs><style>.a{fill:#fff;}</style></defs><g transform="translate(0 0)"><g transform="translate(0 0)"><path class="a" d="M21.71,61.952H8.8L3.376,49.55H.008V48H4.391L9.817,60.4H21.71Z" transform="translate(-0.008 -48)"/></g><path class="a" d="M196.643,370.325A2.325,2.325,0,1,1,194.317,368,2.326,2.326,0,0,1,196.643,370.325Z" transform="translate(-182.692 -352.498)"/><path class="a" d="M356.643,370.325A2.325,2.325,0,1,1,354.317,368,2.326,2.326,0,0,1,356.643,370.325Z" transform="translate(-334.941 -352.498)"/><g transform="translate(7.751 3.1)"><path class="a" d="M176.439,113.55l.621-1.55H160.008l.62,1.55Z" transform="translate(-160.008 -112)"/><path class="a" d="M211.2,240l.62,1.55h10.851l.621-1.55Z" transform="translate(-208.715 -233.799)"/><path class="a" d="M200.174,176H185.6l.62,1.55h13.331Z" transform="translate(-184.362 -172.9)"/></g></g></svg>