<svg xmlns="http://www.w3.org/2000/svg" width="23.831" height="21.195" viewBox="0 0 23.831 21.195"><defs><style>.a{fill:#292f33;}</style></defs><g transform="translate(32.771 32.694) rotate(180)"><path class="a" d="M21.657,14.746V12.275a.779.779,0,0,0-.388-.672.758.758,0,0,0-.775.005L9.323,18.153a.773.773,0,0,0,0,1.334l11.166,6.545a.763.763,0,0,0,.393.109.806.806,0,0,0,.388-.1.769.769,0,0,0,.388-.672v-2.4a5.5,5.5,0,0,1,5.758,2.077.775.775,0,1,0,1.261-.9c-1.98-2.786-4.368-2.765-7.8-2.765a.774.774,0,0,0-.775.775V24.01l-8.855-5.19,8.855-5.19V15.49a.774.774,0,0,0,.775.775A10.383,10.383,0,0,1,30,31.552a.775.775,0,0,0,.315,1.049.79.79,0,0,0,.367.093.779.779,0,0,0,.682-.408,11.938,11.938,0,0,0-9.7-17.54Z"/></g></svg>