<svg xmlns="http://www.w3.org/2000/svg" width="30" height="30" viewBox="0 0 30 30"><defs><style>.a{fill:#fff;}</style></defs><g transform="translate(-406.6 -70.8)"><g transform="translate(406.6 70.8)"><path class="a" d="M43.149,24.342H29.789V23.318h9.1a.44.44,0,0,0,.246-.082L43.4,19.594a.822.822,0,0,0,.164-.327.339.339,0,0,0-.123-.327l-4.262-3.765a.372.372,0,0,0-.287-.123h-9.1v-.409a1.844,1.844,0,0,0-3.689,0v.409H14.01a.387.387,0,0,0-.41.409v7.408a.387.387,0,0,0,.41.409H26.1v1.064H22.944a.372.372,0,0,0-.287.123l-3.484,3.806a.435.435,0,0,0,0,.573l3.484,3.643a.372.372,0,0,0,.287.123H26.1v9.372h-.779a.409.409,0,1,0,0,.819h8.934a.409.409,0,1,0,0-.819H29.789V32.609h13.4a.387.387,0,0,0,.41-.409V24.751A.481.481,0,0,0,43.149,24.342ZM26.961,14.683a1.025,1.025,0,0,1,2.049,0v.409H27v-.409ZM14.42,15.911h24.3l3.811,3.356L38.723,22.5H14.42Zm12.541,7.408h2.008v1.023H26.961Zm2.008,18.458H26.961V32.609h2.008Zm13.77-9.986H23.149l-3.074-3.233L23.149,25.2h19.59Z" transform="translate(-13.6 -12.8)"/><path class="a" d="M33.286,84.839H31.77a.37.37,0,1,1,0-.739h1.516a.349.349,0,0,1,.37.37A.37.37,0,0,1,33.286,84.839Z" transform="translate(-24.04 -54.839)"/></g></g></svg>