<svg xmlns="http://www.w3.org/2000/svg" width="44" height="30" viewBox="0 0 44 30"><defs><style>.a{fill:#fff;}</style></defs><g transform="translate(-6.832 -22.032)"><path class="a" d="M42.627,34.764a7.925,7.925,0,0,0-5.217,1.975l-2.355-2.522,1.779-4.531,3.245.556-.566-3.1H33l-.566,1.788,3.2.548L33.349,35.3,23.325,29.762l.454-1.973h-.938l-.512-2.162,0,0-.005-.006-.006-.023-.012,0-1.157-1.3,2.2-.374.054.349,2.5-.425-.233-1.813-2.5.723.04.261-3.833.652.138.905.047-.008,1.55,1.745.35,1.479h-.706v1.976l-2.783,5.582a7.793,7.793,0,0,0-2.938-.582,8.645,8.645,0,0,0,0,17.267,8.437,8.437,0,0,0,8.2-8.633,8.739,8.739,0,0,0-3.831-7.292l.824-1.652,9.21,9.6c0,.047-.013.091-.013.139a1.3,1.3,0,1,0,2.605,0,1.391,1.391,0,0,0-.483-1.056l2.934-7.475,1.95,2.086A8.854,8.854,0,0,0,34.424,43.4a8.437,8.437,0,0,0,8.2,8.633,8.645,8.645,0,0,0,0-17.268ZM19.854,43.4a4.956,4.956,0,0,1-4.819,5.072,5.079,5.079,0,0,1,0-10.144A4.956,4.956,0,0,1,19.854,43.4Zm10.515-.514a1.252,1.252,0,0,0-.185.071l-9.441-9.526,1.287-2.581,11,5.262ZM42.627,48.47A5.079,5.079,0,1,1,47.446,43.4,4.956,4.956,0,0,1,42.627,48.47Z" transform="translate(0 0)"/></g></svg>