<svg xmlns="http://www.w3.org/2000/svg" width="39.185" height="34.923" viewBox="0 0 39.185 34.923"><defs><style>.a{fill:#fff;}</style></defs><g transform="translate(28.534 34.921) rotate(-150)"><path class="a" d="M26.781,12.234a6.091,6.091,0,0,1-3.9-1.385l-1.77,1.793,1.32,3.206,2.431-.4-.432,2.2-4.877.018-.419-1.265,2.4-.4-1.7-4.116-7.52,3.949.335,1.4-.7,0-.389,1.534,0,0,0,0,0,.016-.009,0-.87.926,1.645.259.041-.247,1.87.294L14.052,21.3l-1.87-.506.03-.185-2.868-.452.106-.642.035.006,1.165-1.241.266-1.049-.529,0,.005-1.4-2.07-3.948a6.148,6.148,0,0,1-2.2.421A6.084,6.084,0,0,1,0,6.212,6.191,6.191,0,0,1,6.165.073a6.085,6.085,0,0,1,6.121,6.1A6.16,6.16,0,0,1,9.4,11.345l.613,1.169,6.921-6.828c0-.033-.009-.065-.009-.1a.983.983,0,0,1,.979-.974A.963.963,0,0,1,18.51,6.33l2.178,5.288,1.465-1.484a6.03,6.03,0,0,1-1.493-4A6.191,6.191,0,0,1,26.826,0a6.085,6.085,0,0,1,6.121,6.1A6.192,6.192,0,0,1,26.781,12.234ZM9.751,6.178A3.574,3.574,0,0,0,6.156,2.6,3.637,3.637,0,0,0,2.535,6.2a3.574,3.574,0,0,0,3.6,3.581A3.637,3.637,0,0,0,9.751,6.178Zm7.872.336a.964.964,0,0,1-.138-.05L10.391,13.24l.957,1.825L19.6,11.307Zm9.193-3.991A3.637,3.637,0,0,0,23.195,6.13a3.574,3.574,0,0,0,3.6,3.581A3.637,3.637,0,0,0,30.411,6.1,3.574,3.574,0,0,0,26.816,2.523Z" transform="translate(0 0)"/></g></svg>