<svg xmlns="http://www.w3.org/2000/svg" width="27.313" height="30.3" viewBox="0 0 27.313 30.3"><defs><style>.a{fill:#fff;stroke:#fff;stroke-width:0.3px;}</style></defs><g transform="translate(-11.719 -6.85)"><g transform="translate(11.876 7)"><path class="a" d="M25.376,7a3.929,3.929,0,0,0-2.5.687A3.327,3.327,0,0,0,21.8,10.445a5.893,5.893,0,0,0,1.007,3.4,3.2,3.2,0,0,0,2.567,1.472,3.2,3.2,0,0,0,2.567-1.472,5.893,5.893,0,0,0,1.007-3.4,3.327,3.327,0,0,0-1.073-2.758A3.929,3.929,0,0,0,25.376,7Zm0,.7a3.3,3.3,0,0,1,2.058.534,2.591,2.591,0,0,1,.808,2.213,5.227,5.227,0,0,1-.874,3,2.274,2.274,0,0,1-3.984,0,5.227,5.227,0,0,1-.874-3,2.591,2.591,0,0,1,.808-2.213A3.3,3.3,0,0,1,25.376,7.7Zm-3.143,9.495a.359.359,0,0,0-.133.033c-3.117,1.4-4.058,3.857-4.991,5.93a8.965,8.965,0,0,1-1.66,2.7,5.165,5.165,0,0,1-3.22,1.45.355.355,0,0,0-.32.2.345.345,0,0,0,.048.371.357.357,0,0,0,.361.115,5.967,5.967,0,0,0,3.641-1.657,9.461,9.461,0,0,0,1.793-2.9c.945-2.1,1.762-4.278,4.648-5.57a.348.348,0,0,0,.233-.413A.354.354,0,0,0,22.233,17.193Zm6.241,0a.353.353,0,0,0-.347.288.348.348,0,0,0,.225.388c2.886,1.293,3.7,3.471,4.648,5.57a9.461,9.461,0,0,0,1.793,2.9A5.967,5.967,0,0,0,38.434,28a.357.357,0,0,0,.361-.115.345.345,0,0,0,.048-.371.355.355,0,0,0-.32-.2,5.165,5.165,0,0,1-3.22-1.45,8.965,8.965,0,0,1-1.66-2.7c-.932-2.073-1.874-4.534-4.991-5.93A.359.359,0,0,0,28.475,17.193ZM21.2,25.063a.35.35,0,0,0-.288.382,12.972,12.972,0,0,1,.022,2.791,2.881,2.881,0,0,1-1.151,2.126c-1.62.321-3.226.24-4.958,1.2a3.46,3.46,0,0,0-1.682,1.722,2.148,2.148,0,0,0,.2,1.853A4.354,4.354,0,0,0,17.1,37c1.52,0,3.57-.822,5.633-1.624l.111-.044a.359.359,0,0,0,.077.011,22,22,0,0,1,5.467.752,26.528,26.528,0,0,0,5.267.9A4.354,4.354,0,0,0,37.4,35.136a2.148,2.148,0,0,0,.2-1.853,3.46,3.46,0,0,0-1.682-1.722c-1.731-.959-3.337-.878-4.958-1.2a2.881,2.881,0,0,1-1.151-2.126,12.972,12.972,0,0,1,.022-2.791.355.355,0,0,0-.708-.055,13.368,13.368,0,0,0-.011,2.943,3.58,3.58,0,0,0,1.5,2.649.358.358,0,0,0,.122.044c1.756.362,3.261.272,4.836,1.145a2.776,2.776,0,0,1,1.361,1.352,1.417,1.417,0,0,1-.144,1.265A3.756,3.756,0,0,1,33.653,36.3a26.842,26.842,0,0,1-5.112-.883,30.806,30.806,0,0,0-4.117-.665A22.928,22.928,0,0,1,29.27,33.5a.349.349,0,1,0-.022-.7c-1.53.026-4.709,1.118-6.771,1.92A19.177,19.177,0,0,1,17.1,36.3a3.756,3.756,0,0,1-3.143-1.515,1.417,1.417,0,0,1-.144-1.265,2.776,2.776,0,0,1,1.361-1.352c1.575-.872,3.079-.783,4.836-1.145a.358.358,0,0,0,.122-.044,3.58,3.58,0,0,0,1.5-2.649,13.369,13.369,0,0,0-.011-2.943.347.347,0,0,0-.134-.258A.358.358,0,0,0,21.2,25.063Z" transform="translate(-11.876 -7)"/></g></g></svg>