<svg xmlns="http://www.w3.org/2000/svg" width="28" height="30" viewBox="0 0 28 30"><defs><style>.a{fill:#fff;}</style></defs><g transform="translate(-2.789 -2.694)"><ellipse class="a" cx="2.482" cy="2.487" rx="2.482" ry="2.487" transform="translate(12.392 5.302)"/><path class="a" d="M3.987,6.209l-.025.025a1.361,1.361,0,0,0,.1,1.97l6.846,5.816a2.638,2.638,0,0,0-.107.709v4.384a2.663,2.663,0,0,0,1.94,2.556c-.007.04-.014.081-.021.121L11.08,29.625a1.477,1.477,0,0,0-.035.328,1.561,1.561,0,0,0,3.023.542l1.737-4.631a5.509,5.509,0,0,1,4.08-3.467l3.564-.706a1.281,1.281,0,0,1,1.39.662l.784,1.5a1.706,1.706,0,1,0,3.023-1.582l-1.871-3.039a2.707,2.707,0,0,0-2.9-1.224l-3.643.816L20.2,17.556a8.627,8.627,0,0,1,.462-2.97C21.5,12.1,23.211,7.07,24.05,4.622a1.451,1.451,0,0,0-.938-1.851l-.035-.01a1.4,1.4,0,0,0-1.757.881L19.761,8.159a4.754,4.754,0,0,1-4.492,3.2h-.978a4.743,4.743,0,0,1-2.909-.995c-1.554-1.2-4.135-3.2-5.539-4.3A1.381,1.381,0,0,0,3.987,6.209Zm7.81,8.52a1.669,1.669,0,0,1,1.547-1.661l-.8,3.334h4.033l-.48-3.339a1.67,1.67,0,0,1,1.6,1.666v4.384a1.673,1.673,0,0,1-1.67,1.674H13.467a1.673,1.673,0,0,1-1.67-1.674Z" transform="translate(-0.801 0)"/><g transform="translate(5.97 2.846)"><rect class="a" width="1.985" height="0.995" transform="translate(17.869)"/><rect class="a" width="1.985" height="0.995" transform="translate(0 1.99)"/><rect class="a" width="0.993" height="0.995" transform="translate(20.847 22.883)"/><rect class="a" width="1.985" height="0.995" transform="translate(22.833 22.883)"/><rect class="a" width="1.985" height="0.995" transform="translate(0.993 28.853)"/><rect class="a" width="0.993" height="0.995" transform="translate(3.971 28.853)"/><rect class="a" width="2.978" height="0.995" transform="translate(6.949 28.853)"/><rect class="a" width="2.978" height="0.995" transform="translate(16.876 9.949)"/><rect class="a" width="3.971" height="0.995" transform="translate(20.847 9.949)"/></g></g></svg>