<?xml version="1.0" encoding="utf-8"?>
<!-- Generator: Adobe Illustrator 24.3.0, SVG Export Plug-In . SVG Version: 6.00 Build 0)  -->
<svg version="1.1" id="Layer_1" xmlns="http://www.w3.org/2000/svg" xmlns:xlink="http://www.w3.org/1999/xlink" x="0px" y="0px"
	 viewBox="0 0 30 30" style="enable-background:new 0 0 30 30;" xml:space="preserve">
<style type="text/css">
	.st0{fill:#292F33;}
</style>
<g transform="translate(-15 -15)">
	<path class="st0" d="M44.9,38.2L41.7,35c-0.2-0.2-0.3-0.3-0.5-0.3l2-2c1-1,1.6-2.4,1.6-3.9v-8.2c0-3.1-2.5-5.6-5.6-5.6l0,0h-8.2
		c-1.4,0-2.8,0.6-3.9,1.6l-1,1l0.7,0.7l1-1c0.8-0.8,2-1.3,3.2-1.3h8.2c2.5,0,4.6,2.1,4.6,4.6v8.2c0,1.2-0.5,2.3-1.3,3.2l-2.6,2.6
		h-0.6l-2.5-2.5l2.3-2.3c0.5-0.5,0.7-1.1,0.7-1.8v-5.6c0-1.4-1.1-2.5-2.5-2.5h-5.6c-0.7,0-1.3,0.3-1.8,0.7L27.7,23l-2.3-2.3v-1.4
		c0-0.4-0.2-0.8-0.4-1.1l-3.2-3.2c-0.2-0.2-0.5-0.2-0.7,0l-2,2c-0.2,0.2-0.2,0.5,0,0.7l3.2,3.2c0.1,0.1,0.1,0.1,0.2,0.2l-1.3,1.3
		c-0.1-0.1-0.1-0.1-0.2-0.2l-3.2-3.2c-0.2-0.2-0.5-0.2-0.7,0l-2,2c-0.2,0.2-0.2,0.5,0,0.7l3.2,3.2c0.1,0.1,0.1,0.1,0.2,0.2l-1.9,1.9
		c-1,1-1.6,2.4-1.6,3.9v8.2c0,3.1,2.5,5.6,5.6,5.6h0h8.2c1.4,0,2.8-0.6,3.9-1.6l1-1L33,41.4l-1,1c-0.8,0.8-2,1.3-3.2,1.3h-8.2
		c-2.5,0-4.6-2.1-4.6-4.6v-8.2c0-1.2,0.5-2.3,1.3-3.2l2.4-2.4h1.1l2.3,2.3L20.7,30c-0.5,0.5-0.7,1.1-0.7,1.8v5.6
		c0,1.4,1.1,2.5,2.5,2.5H28c0.7,0,1.3-0.3,1.8-0.7l2.3-2.3l2.5,2.5v1.4c0,0.4,0.2,0.8,0.4,1.1l3.2,3.2c0.2,0.2,0.5,0.2,0.7,0l2-2
		c0.2-0.2,0.2-0.5,0-0.7L37.7,39c-0.2-0.2-0.3-0.3-0.5-0.3l1.5-1.5c0.1,0.2,0.2,0.4,0.3,0.5l3.2,3.2c0.2,0.2,0.5,0.2,0.7,0l2-2
		C45,38.7,45,38.4,44.9,38.2z M38.4,29L36,31.4l-1.2-1.2l4-4V28C38.8,28.4,38.6,28.8,38.4,29L38.4,29z M30.7,21.4
		c0.3-0.3,0.7-0.4,1.1-0.4h1.9l-4,4l-1.2-1.2L30.7,21.4z M20.2,17.5l1.3-1.3l2.8,2.8c0.1,0.1,0.1,0.2,0.1,0.4v1.1h-1.1
		c-0.1,0-0.3-0.1-0.4-0.1L20.2,17.5z M20.5,24.4h-1.1c-0.1,0-0.3-0.1-0.4-0.1l-2.8-2.8l1.3-1.3l2.8,2.8c0.1,0.1,0.1,0.2,0.1,0.4
		L20.5,24.4z M21.4,24.7v-1.1l2.2-2.2h1.1l2.3,2.3L23.7,27L21.4,24.7z M21.4,30.7l2.3-2.3l2.8,2.8l0.7-0.7l-0.9-0.9L29,27l-0.7-0.7
		l-2.6,2.6l-1.2-1.2l3.3-3.3l2.8,2.8l0.7-0.7l-0.9-0.9L35,21h2.3c0.2,0,0.4,0,0.6,0.1L21.1,38C21,37.8,21,37.5,21,37.3V35l3.8-3.8
		l-0.7-0.7L21,33.6v-1.9C21,31.4,21.1,31,21.4,30.7L21.4,30.7z M29,38.4c-0.3,0.3-0.7,0.4-1.1,0.4h-1.9l3.1-3.1L28.5,35l-3.8,3.8
		h-2.3c-0.2,0-0.4,0-0.6-0.1l16.9-16.9c0.1,0.2,0.1,0.4,0.1,0.6v2.3l-4.7,4.7l-0.9-0.9l-0.7,0.7l2.8,2.8l-3.3,3.3l-1.2-1.2l2.6-2.6
		l-0.7-0.7l-2.6,2.6l-0.9-0.9l-0.7,0.7l2.8,2.8L29,38.4z M36,32.8l2.5,2.5v0.6l-2.7,2.7h-0.6L32.8,36L36,32.8z M39.8,42.5l-1.3,1.3
		L35.7,41c-0.1-0.1-0.1-0.2-0.1-0.4v-1.1h1.1c0.1,0,0.3,0.1,0.4,0.1L39.8,42.5z M42.5,39.8L39.7,37c-0.1-0.1-0.1-0.2-0.1-0.4v-1.1
		h1.1c0.1,0,0.3,0.1,0.4,0.1l2.8,2.8L42.5,39.8z"/>
	<circle class="st0" cx="28" cy="19.5" r="0.8"/>
	<circle class="st0" cx="40.7" cy="18.5" r="0.8"/>
	<circle class="st0" cx="40.7" cy="31.6" r="0.8"/>
	<circle class="st0" cx="18.5" cy="29" r="0.8"/>
	<circle class="st0" cx="30.6" cy="41.7" r="0.8"/>
	<circle class="st0" cx="19.5" cy="41.7" r="0.8"/>
</g>
</svg>
