<svg xmlns="http://www.w3.org/2000/svg" width="30" height="30" viewBox="0 0 30 30"><defs><style>.a{fill:#fff;}</style></defs><g transform="translate(-15 -15)"><path class="a" d="M45.854,39.2l-3.181-3.181a1.482,1.482,0,0,0-.53-.342l2.01-2.01a5.419,5.419,0,0,0,1.6-3.857V21.574A5.575,5.575,0,0,0,40.177,16H31.938a5.419,5.419,0,0,0-3.857,1.6l-1.027,1.027.7.7L28.782,18.3a4.433,4.433,0,0,1,3.156-1.307h8.239a4.583,4.583,0,0,1,4.583,4.583v8.239a4.433,4.433,0,0,1-1.307,3.156l-2.617,2.617h-.581L37.74,33.072l2.327-2.327a2.464,2.464,0,0,0,.726-1.753V23.438a2.482,2.482,0,0,0-2.479-2.479H32.76a2.463,2.463,0,0,0-1.753.726L28.68,24.011l-2.267-2.267V20.377a1.478,1.478,0,0,0-.436-1.052L22.8,16.145a.5.5,0,0,0-.7,0l-1.983,1.983a.5.5,0,0,0,0,.7l3.181,3.181a1.5,1.5,0,0,0,.2.171L22.181,23.5a1.5,1.5,0,0,0-.171-.2l-3.18-3.181a.5.5,0,0,0-.7,0L16.145,22.1a.5.5,0,0,0,0,.7l3.181,3.181a1.5,1.5,0,0,0,.2.171L17.6,28.081A5.419,5.419,0,0,0,16,31.938v8.239a5.575,5.575,0,0,0,5.575,5.575h8.239a5.419,5.419,0,0,0,3.857-1.6L34.7,43.127l-.7-.7-1.027,1.027a4.433,4.433,0,0,1-3.156,1.307H21.574a4.583,4.583,0,0,1-4.583-4.583V31.938A4.433,4.433,0,0,1,18.3,28.782l2.369-2.369h1.077l2.267,2.267-2.327,2.327a2.464,2.464,0,0,0-.726,1.753v5.554a2.482,2.482,0,0,0,2.479,2.479h5.554a2.463,2.463,0,0,0,1.753-.726l2.327-2.327,2.515,2.515v1.367a1.478,1.478,0,0,0,.436,1.052L39.2,45.854a.5.5,0,0,0,.7,0l1.983-1.983a.5.5,0,0,0,0-.7l-3.181-3.181a1.483,1.483,0,0,0-.53-.342l1.471-1.47a1.483,1.483,0,0,0,.342.53l3.181,3.181a.5.5,0,0,0,.7,0L45.854,39.9A.5.5,0,0,0,45.854,39.2Zm-6.489-9.159-2.327,2.327-1.247-1.247L39.8,27.114v1.878A1.478,1.478,0,0,1,39.366,30.044Zm-7.658-7.658a1.478,1.478,0,0,1,1.052-.436h1.878L30.628,25.96l-1.247-1.247ZM21.164,18.479,22.446,17.2l2.83,2.83a.492.492,0,0,1,.145.351v1.077H24.344a.493.493,0,0,1-.351-.145Zm.291,6.942H20.377a.493.493,0,0,1-.351-.145l-2.83-2.83,1.282-1.282,2.83,2.83a.492.492,0,0,1,.145.351Zm.992.29V24.635l2.189-2.189h1.077l2.267,2.267-3.266,3.266Zm-.06,6,2.327-2.327,2.837,2.837.7-.7-.889-.889L29.987,28l-.7-.7-2.625,2.625L25.414,28.68l3.266-3.266,2.837,2.837.7-.7-.889-.889L36.04,21.95h2.274a1.479,1.479,0,0,1,.641.145L22.1,38.955a1.479,1.479,0,0,1-.145-.641V36.04l3.822-3.822-.7-.7-3.12,3.12V32.76a1.478,1.478,0,0,1,.436-1.052Zm7.658,7.658a1.478,1.478,0,0,1-1.052.436H27.114l3.12-3.12-.7-.7L25.712,39.8H23.438a1.479,1.479,0,0,1-.641-.145L39.656,22.8a1.479,1.479,0,0,1,.145.641v2.274l-4.711,4.711-.889-.889-.7.7,2.837,2.837-3.266,3.266-1.247-1.247,2.64-2.64-.7-.7-2.64,2.64-.889-.889-.7.7,2.837,2.837Zm7-5.592,2.515,2.515v.581l-2.685,2.685h-.581l-2.515-2.515Zm3.8,9.747L39.553,44.8l-2.83-2.83a.492.492,0,0,1-.145-.351V40.545h1.077a.493.493,0,0,1,.351.145Zm2.685-2.685-2.83-2.83a.492.492,0,0,1-.145-.351V36.578h1.077a.493.493,0,0,1,.351.145l2.83,2.83Z" transform="translate(-1 -1)"/><circle class="a" cx="0.847" cy="0.847" r="0.847" transform="translate(27.167 18.695)"/><circle class="a" cx="0.847" cy="0.847" r="0.847" transform="translate(39.877 17.695)"/><circle class="a" cx="0.847" cy="0.847" r="0.847" transform="translate(39.877 30.71)"/><circle class="a" cx="0.847" cy="0.847" r="0.847" transform="translate(17.694 28.168)"/><circle class="a" cx="0.847" cy="0.847" r="0.847" transform="translate(29.709 40.878)"/><circle class="a" cx="0.847" cy="0.847" r="0.847" transform="translate(18.694 40.878)"/></g></svg>