<svg xmlns="http://www.w3.org/2000/svg" width="28.3" height="28.3" viewBox="0 0 28.3 28.3"><defs><style>.a{fill:#fff;stroke:#fff;stroke-width:0.3px;}</style></defs><g transform="translate(-0.72 -0.717)"><path class="a" d="M2.258,28A2.258,2.258,0,0,1,0,25.742V2.259A2.258,2.258,0,0,1,2.258,0H14a2.258,2.258,0,0,1,2.258,2.259V4.065a.452.452,0,0,1-.451.452H.9V20.774H15.8a.452.452,0,0,1,.451.452v4.516A2.258,2.258,0,0,1,14,28ZM.9,25.742A1.354,1.354,0,0,0,2.258,27.1H14a1.355,1.355,0,0,0,1.355-1.355V21.677H.9ZM.9,2.259V3.613h14.45V2.259A1.355,1.355,0,0,0,14,.9H2.258A1.355,1.355,0,0,0,.9,2.259ZM7.225,24.387a.9.9,0,1,1,.9.9A.9.9,0,0,1,7.225,24.387Zm4.967-6.322a.452.452,0,0,1-.452-.452V7.678a.22.22,0,0,1,.068-.059.313.313,0,0,1,0-.09.317.317,0,0,1,.045-.086.192.192,0,0,1,.1-.117c.022-.014.041-.045.068-.045l.072-.022a.337.337,0,0,1,.1,0h15.42a.305.305,0,0,1,.091,0l.077.022.067.045a.3.3,0,0,1,.077.063.292.292,0,0,1,.027.054A.317.317,0,0,1,28,7.529a.3.3,0,0,1,0,.09.248.248,0,0,1,0,.059v9.935a.452.452,0,0,1-.452.452Zm.451-.9h14.45V8.635l-6.936,5.713a.451.451,0,0,1-.578,0L12.644,8.635Zm7.225-3.749,6.416-5.284H13.452Z" transform="translate(0.87 0.867)"/></g></svg>