<svg xmlns="http://www.w3.org/2000/svg" width="30.139" height="29.182" viewBox="0 0 30.139 29.182"><defs><style>.a{fill:#292f33;}</style></defs><path class="a" d="M2.67,29.182A2.676,2.676,0,0,1,0,26.508V2.674A2.673,2.673,0,0,1,2.67,0h24.8a2.673,2.673,0,0,1,2.67,2.674V26.508a2.676,2.676,0,0,1-2.67,2.674ZM1.233,26.508A1.441,1.441,0,0,0,2.67,27.949h24.8a1.441,1.441,0,0,0,1.438-1.441v-14.8H1.233Zm0-23.834v7.806H28.906V2.674a1.441,1.441,0,0,0-1.437-1.441H2.67A1.441,1.441,0,0,0,1.233,2.674Zm15.379,23.22V23.908H18.7v1.985Zm-12.331,0V23.908h11v1.985Zm12.331-4.931V18.974H18.7v1.989Zm-12.331,0V18.974h11v1.989Zm12.331-4.935V14.043H18.7v1.985Zm-12.331,0V14.043h11v1.985Zm0-10A3.082,3.082,0,1,1,7.364,9.108,3.081,3.081,0,0,1,4.281,6.029Zm9.865,2.122V6.919H25.858V8.151Zm0-3.013V3.9H25.858V5.139Z"/></svg>