<svg xmlns="http://www.w3.org/2000/svg" width="18.667" height="14" viewBox="0 0 18.667 14"><defs><style>.a{fill:#793f4e;}</style></defs><g transform="translate(-4.51 -4.841)"><path class="a" d="M0,14V12.667H18.666V14ZM17.866,9.791,3.468,6.883a3.3,3.3,0,0,1-2.5-2.421L.288.254C.259.071.364-.037.521.012L.807.1A2.2,2.2,0,0,1,1.876.9L3.6,3.666A1.9,1.9,0,0,0,4.693,4.4l4.016.812-1.035-3.5c-.053-.179.068-.289.262-.229a5.1,5.1,0,0,1,2.436,1.7l1.871,2.744,4.1.827a2.761,2.761,0,0,1,2.327,2.528.574.574,0,0,1-.637.531A.826.826,0,0,1,17.866,9.791Z" transform="translate(4.51 4.841)"/></g></svg>