<svg xmlns="http://www.w3.org/2000/svg" width="58.824" height="50.001" viewBox="0 0 58.824 50.001"><defs><style>.a{fill:#d82558;}</style></defs><g transform="translate(-5.665 -12.061)"><path class="a" d="M-3123.026,12379.291a3.477,3.477,0,0,0-2.464-1.007,3.482,3.482,0,0,0-2.461,1,4.715,4.715,0,0,1-3.287,1.3,4.733,4.733,0,0,1-3.291-1.292,3.468,3.468,0,0,0-2.461-1.007,3.477,3.477,0,0,0-2.464,1.007,4.73,4.73,0,0,1-3.287,1.292,4.73,4.73,0,0,1-3.287-1.292,3.469,3.469,0,0,0-2.461-1.007,3.469,3.469,0,0,0-2.461,1.007,4.722,4.722,0,0,1-3.284,1.292,4.725,4.725,0,0,1-3.287-1.292,3.474,3.474,0,0,0-2.461-1.007,3.469,3.469,0,0,0-2.461,1.007,4.731,4.731,0,0,1-3.287,1.292,4.739,4.739,0,0,1-3.29-1.292,3.469,3.469,0,0,0-2.461-1.007.663.663,0,0,1-.662-.662.663.663,0,0,1,.662-.662,4.72,4.72,0,0,1,3.287,1.293,3.476,3.476,0,0,0,2.464,1.007,3.469,3.469,0,0,0,2.461-1.007,4.72,4.72,0,0,1,3.287-1.293,4.715,4.715,0,0,1,3.287,1.3,3.478,3.478,0,0,0,2.461,1,3.477,3.477,0,0,0,2.458-1,4.714,4.714,0,0,1,3.287-1.3,4.708,4.708,0,0,1,3.287,1.3,3.485,3.485,0,0,0,2.461,1,3.48,3.48,0,0,0,2.461-1,4.723,4.723,0,0,1,3.291-1.3,4.727,4.727,0,0,1,3.287,1.293,3.476,3.476,0,0,0,2.464,1.007,3.468,3.468,0,0,0,2.461-1.007,4.727,4.727,0,0,1,3.287-1.293,4.729,4.729,0,0,1,3.291,1.293,3.476,3.476,0,0,0,2.464,1.007,3.471,3.471,0,0,0,2.464-1.007,4.735,4.735,0,0,1,3.29-1.293.661.661,0,0,1,.662.662.661.661,0,0,1-.662.662,3.476,3.476,0,0,0-2.464,1.007,4.733,4.733,0,0,1-3.291,1.292A4.732,4.732,0,0,1-3123.026,12379.291Zm0-6.625a3.484,3.484,0,0,0-2.464-1,3.483,3.483,0,0,0-2.461,1,4.742,4.742,0,0,1-3.29,1.3,4.736,4.736,0,0,1-3.291-1.3,3.47,3.47,0,0,0-2.461-1,3.483,3.483,0,0,0-2.461,1,4.734,4.734,0,0,1-3.287,1.3,4.728,4.728,0,0,1-3.287-1.3,3.476,3.476,0,0,0-2.461-1,3.273,3.273,0,0,0-2.25.835.645.645,0,0,1-.342.273,4.607,4.607,0,0,1-3.157,1.19,4.728,4.728,0,0,1-3.287-1.3,3.47,3.47,0,0,0-2.461-1,3.483,3.483,0,0,0-2.461,1,4.727,4.727,0,0,1-3.287,1.3,4.728,4.728,0,0,1-3.287-1.3,3.476,3.476,0,0,0-2.461-1,.666.666,0,0,1-.665-.665.664.664,0,0,1,.662-.662,4.73,4.73,0,0,1,3.291,1.3,3.472,3.472,0,0,0,2.461,1.007,3.222,3.222,0,0,0,1.237-.224.636.636,0,0,1-.059-.265v-19.184c-1.718.2-3.331.426-4.825.687a.677.677,0,0,1-.115.01.661.661,0,0,1-.569-.323.656.656,0,0,1,.05-.749,97.833,97.833,0,0,1,26.907-21.927.665.665,0,0,1,.615-.013c.177.091,17.816,9.083,26.889,21.878a.658.658,0,0,1,.2.472.68.68,0,0,1-.668.662.357.357,0,0,1-.078,0c-.05-.007-1.871-.192-4.869-.438v19.178a3.224,3.224,0,0,0,1.283.239,3.486,3.486,0,0,0,2.464-1.007,4.728,4.728,0,0,1,3.287-1.3.662.662,0,0,1,.662.662.663.663,0,0,1-.662.665,3.482,3.482,0,0,0-2.461,1,4.742,4.742,0,0,1-3.291,1.3A4.73,4.73,0,0,1-3123.023,12372.666Zm-11.238-2.725a.386.386,0,0,1-.012.059l.848,1.619a.718.718,0,0,1,.072.283,3.182,3.182,0,0,0,2.116.736,3.291,3.291,0,0,0,2.274-.858v-5.812h-5.3Zm-9.738,2.209a.665.665,0,0,1-.05.236,3.228,3.228,0,0,0,1.311.252,3.085,3.085,0,0,0,1.544-.367l-.028-.037-2.778-5.311Zm-13.246-.938c.2.137.376.28.55.42a3.472,3.472,0,0,0,2.461,1.007,3.3,3.3,0,0,0,2.287-.87v-5.8h-5.3Zm-5.984.386a4.691,4.691,0,0,1,3.247-1.262,4.707,4.707,0,0,1,1.414.205v-4.573h-4.661Zm17.906-.065v-5.564h-5.3v4.868a4.4,4.4,0,0,1,2.135-.5A4.6,4.6,0,0,1-3145.323,12371.532Zm22.98-.016v-5.549h-5.3v4.878a4.416,4.416,0,0,1,2.15-.51A4.6,4.6,0,0,1-3122.342,12371.517Zm-17.77-.016a4.578,4.578,0,0,1,3.123-1.165,4.653,4.653,0,0,1,1.519.236l-.494-.948a.611.611,0,0,1-.2.041h-4.906Zm-1.65-3.16h5.127l-1.047-2h-5.127Zm6.177-.848v-1.525h-.8Zm-7.917-2.477h5.127l-1.168-2.234h-5.127Zm6.426-.373h14.734v-1.861h-15.707Zm-26.153,0h18.037l-.976-1.861h-17.061Zm24.748-3.185h16.138v-8.343c-4.073-.316-9.809-.689-16.138-.883Zm-6.621,0h5.3v-9.266c-1.737-.043-3.508-.074-5.3-.087Zm-18.127-8.635v8.635h16.8v-9.358C-3146.528,12352.1-3158.481,12352.343-3163.229,12352.824Zm45.743-.625c-8.389-11.036-22.992-18.993-25.292-20.2l-.041.021c-6.391,5.456-13.721,16.157-15.678,19.1,3.583-.224,7.513-.339,11.77-.339C-3133.919,12350.776-3121.634,12351.812-3117.486,12352.2Zm-50.335-.14c1.15-.174,6.429-.736,7.678-.829.012-.022.012-.047.025-.068a136.841,136.841,0,0,1,12.4-16.22A98.948,98.948,0,0,0-3167.821,12352.06Zm35.079,7.84a.666.666,0,0,1-.665-.665v-4.3a.665.665,0,0,1,.665-.662h4.856a.665.665,0,0,1,.662.662v4.3a.665.665,0,0,1-.662.665Zm.662-1.327h3.53v-2.979h-3.53Zm-25.826,1.327a.665.665,0,0,1-.662-.665v-4.3a.665.665,0,0,1,.662-.662h4.856a.663.663,0,0,1,.662.662v4.3a.663.663,0,0,1-.662.665Zm.665-1.327h3.53v-2.979h-3.53Z" transform="translate(3177.808 -12318.521)"/></g></svg>