<svg xmlns="http://www.w3.org/2000/svg" width="27.258" height="24.662" viewBox="0 0 27.258 24.662"><defs><style>.a{fill:#292f33;}</style></defs><g transform="translate(0 24.662) rotate(-90)"><g transform="translate(0 0)"><path class="a" d="M4.047,20.231V.5A.506.506,0,0,0,3.035.5V20.231a3.541,3.541,0,1,0,1.012,0Zm-.506,6.017a2.524,2.524,0,1,1,2.529-2.524A2.53,2.53,0,0,1,3.541,26.248Z"/><path class="a" d="M4.257,9.941V.5A.506.506,0,0,0,3.245.5v9.4a3.636,3.636,0,0,0,0,7.229v9.614a.506.506,0,0,0,1.012,0V17.107a3.632,3.632,0,0,0,0-7.166Zm-.611,6.211A2.628,2.628,0,1,1,6.28,13.524,2.634,2.634,0,0,1,3.646,16.153Z" transform="translate(8.598)"/><path class="a" d="M7.082,3.533A3.541,3.541,0,1,0,3.035,7.026V26.753a.506.506,0,0,0,1.012,0V7.026A3.538,3.538,0,0,0,7.082,3.533ZM3.541,6.057A2.524,2.524,0,1,1,6.071,3.533,2.53,2.53,0,0,1,3.541,6.057Z" transform="translate(17.579)"/></g></g></svg>