<svg xmlns="http://www.w3.org/2000/svg" width="17.054" height="26.721" viewBox="0 0 17.054 26.721"><defs><style>.a{fill:#fff;}</style></defs><g transform="translate(0 0)"><path class="a" d="M28.8,954.362a3.841,3.841,0,0,1,3.906,3.9,6.4,6.4,0,0,1-.313,1.809l-3.584,7.654-3.584-7.654a6.431,6.431,0,0,1-.313-1.809A3.827,3.827,0,0,1,28.8,954.362Zm.009,2.227a1.67,1.67,0,1,0,1.67,1.67A1.67,1.67,0,0,0,28.81,956.589ZM27.67,966.609l.522,1.113H21.016a2.505,2.505,0,0,0,0,5.01h4.175a4.175,4.175,0,0,1,0,8.35H15.653l.531-1.113h9.008a3.062,3.062,0,0,0,0-6.124H21.016a3.618,3.618,0,1,1,0-7.237Z" transform="translate(-15.653 -954.362)"/></g></svg>