<svg xmlns="http://www.w3.org/2000/svg" width="38" height="38" viewBox="0 0 38 38"><defs><style>.a,.b{fill:#292f33;}.a{opacity:0;}</style></defs><g transform="translate(-2472.9 -3443.9)"><rect class="a" width="38" height="38" transform="translate(2472.9 3443.9)"/><g transform="translate(2473 3444)"><path class="b" d="M7.91,37.742l-.055-.06c-.056,0-.056,0-.111-.059l-3.4-3.617L1.336,30.8.167,29.558c-.055,0-.055-.059-.055-.059,0-.06-.056-.06-.056-.119C0,29.321,0,29.321,0,29.262v-.356c0-.059.055-.059.055-.119a.057.057,0,0,0,.056-.059L6.24,20.96a.517.517,0,0,1,.78-.059.6.6,0,0,1,.055.83L1.281,29.085l.836.949L4.265,32.3l4.656-4.67a.516.516,0,0,1,.78,0,.6.6,0,0,1,0,.83L5.125,33.175l3.008,3.2L15.1,30.211a.519.519,0,0,1,.78.06.6.6,0,0,1-.056.83l-7.3,6.523c-.056,0-.056.059-.112.059a.056.056,0,0,1-.055.06.406.406,0,0,1-.223.059A.321.321,0,0,1,7.91,37.742Zm16.878-3.851a6.161,6.161,0,0,1-1.917-4.281,6.6,6.6,0,0,1,1.506-4.5,14.24,14.24,0,0,0-.89-19.3A12.32,12.32,0,0,0,8.559,3.919c-.068.073-.137.073-.206.146A10.767,10.767,0,0,0,5.271,6.677l-.137.146a3.38,3.38,0,0,0,.274,4.644,2.994,2.994,0,0,0,4.109,0,11.865,11.865,0,0,1,15.751-.581A.739.739,0,0,1,25.4,11.9a.646.646,0,0,1-.959.144,10.571,10.571,0,0,0-13.97.581,4.3,4.3,0,0,1-5.958,0,4.828,4.828,0,0,1-.411-6.6l.137-.217a13.9,13.9,0,0,1,3.7-3.119A19.547,19.547,0,0,1,17.735,0C28.83,0,37.869,9.58,37.8,21.264A17.751,17.751,0,0,1,32.665,33.82a5.661,5.661,0,0,1-3.973,1.669A5.537,5.537,0,0,1,24.789,33.891Zm-.342-29.1A15.394,15.394,0,0,1,29.1,15.24a15.63,15.63,0,0,1-3.7,10.886,4.8,4.8,0,0,0-1.164,3.411A4.6,4.6,0,0,0,25.679,32.8a4.4,4.4,0,0,0,6.095-.072A16.1,16.1,0,0,0,36.5,21.264c0-10.451-7.738-19.087-17.463-19.739A14.063,14.063,0,0,1,24.446,4.79Z" transform="translate(0 0)"/></g></g></svg>