<svg xmlns="http://www.w3.org/2000/svg" width="21.357" height="14" viewBox="0 0 21.357 14"><defs><style>.a{fill:#793f4e;}</style></defs><g transform="translate(0.001 -12.023)"><path class="a" d="M15.3,11.651c0-.024,0-.048,0-.071H8.26c0,.023,0,.047,0,.071a2.349,2.349,0,1,1-4.7,0c0-.054.005-.108.008-.161H2.027V9.984H0V5.413H2.053L2.116,2.6H3.973V0H15.431V2.6h2.648L21.357,8.1v3.387H19.991c0,.053.008.106.008.161a2.348,2.348,0,1,1-4.7,0Zm.681,0a1.668,1.668,0,1,0,1.668-1.666A1.669,1.669,0,0,0,15.983,11.651Zm-11.735,0A1.667,1.667,0,1,0,5.914,9.985,1.668,1.668,0,0,0,4.248,11.651ZM.682,9.3h1V6.094h-1Zm13.98-1.44h4.675L16.871,3.941h-2.21Zm-5.569,0h4.17V3.941H9.093Zm-5.528,0H7.735V3.941H3.565Zm1.09-5.608h10.1V.681H4.654Zm11.821,9.4a1.176,1.176,0,1,1,1.175,1.176A1.177,1.177,0,0,1,16.475,11.651Zm.681,0a.494.494,0,1,0,.494-.493A.5.5,0,0,0,17.156,11.651Zm-12.416,0a1.175,1.175,0,1,1,1.175,1.176A1.177,1.177,0,0,1,4.74,11.651Zm.681,0a.494.494,0,1,0,.493-.493A.5.5,0,0,0,5.421,11.651Z" transform="translate(-0.001 12.023)"/></g></svg>