<svg xmlns="http://www.w3.org/2000/svg" width="38" height="29.714" viewBox="0 0 38 29.714"><defs><style>.a{fill:#292f33;}</style></defs><g transform="translate(-95 121.857)"><path class="a" d="M4978.907,5958.839a.194.194,0,0,1-.11-.178v-6.185a7.906,7.906,0,0,1-4.8-7.292v-.167a7.9,7.9,0,0,1,5.987-7.685c-.009.094-.009.191-.009.285v.179a10.567,10.567,0,0,0,10.506,10.605h8.178l1.71,1.482a7.789,7.789,0,0,1-6.3,3.21h-8.356l-6.6,5.716a.192.192,0,0,1-.125.046A.2.2,0,0,1,4978.907,5958.839Zm27.613-6.442-7.076-6.125h-8.958a8.435,8.435,0,0,1-8.4-8.475v-.179a8.435,8.435,0,0,1,8.4-8.475H5003.6a8.436,8.436,0,0,1,8.4,8.475v.178a8.481,8.481,0,0,1-5.14,7.815v6.628a.205.205,0,0,1-.207.208A.2.2,0,0,1,5006.52,5952.4Zm-3.981-14.689a1.952,1.952,0,1,0,1.953-1.971h0A1.962,1.962,0,0,0,5002.539,5937.707Zm-7.447,0a1.953,1.953,0,1,0,1.953-1.971A1.962,1.962,0,0,0,4995.092,5937.707Zm-7.446,0a1.953,1.953,0,1,0,1.952-1.971A1.962,1.962,0,0,0,4987.646,5937.707Z" transform="translate(-4879 -6051)"/></g></svg>