<svg xmlns="http://www.w3.org/2000/svg" width="30" height="30" viewBox="0 0 30 30">
  <defs>
    <style>
      .a,
      .b {
        fill: #fff;
      }

      .a {
        stroke: #fff;
        opacity: 0;
      }

      .c,
      .e {
        stroke: none;
      }

      .d {
        fill: none;
      }

      .e {
        fill: #fff;
      }
    </style>
  </defs>
  <g transform="translate(-3790.445 -4132.219)">
    <g class="a" transform="translate(3791.445 4133.219)">
      <rect class="c" width="28" height="28" />
      <rect class="d" x="-0.5" y="-0.5" width="29" height="29" />
    </g>
    <g class="b" transform="translate(3791.714 4133.714)">
      <path class="e"
        d="M 13.61816215515137 27.2363224029541 C 15.4575023651123 27.2363224029541 17.24104309082031 26.87604331970215 18.91947174072266 26.16577339172363 C 20.54047203063965 25.48042297363281 21.99678230285645 24.49817276000977 23.24775314331055 23.2472038269043 C 24.49763298034668 21.99732398986816 25.47988319396973 20.54101371765137 26.16523170471191 18.91839218139648 C 26.87550163269043 17.24050331115723 27.23578262329102 15.45696353912354 27.23578262329102 13.61816310882568 C 27.23578262329102 11.77882289886475 26.87550163269043 9.995822906494141 26.16523170471191 8.31739330291748 C 25.47988319396973 6.695302963256836 24.49817276000977 5.238462924957275 23.24775314331055 3.988583087921143 C 21.99678230285645 2.737073183059692 20.54047203063965 1.7553631067276 18.91947174072266 1.070553064346313 C 17.24104309082031 0.3602831065654755 15.4575023651123 3.108825694653206e-06 13.61816215515137 3.108825694653206e-06 C 11.77936267852783 3.108825694653206e-06 9.995821952819824 0.3602831065654755 8.317392349243164 1.070553064346313 C 6.696392059326172 1.7553631067276 5.240092277526855 2.737073183059692 3.988582372665405 3.988583087921143 C 2.737072229385376 5.240093231201172 1.755902290344238 6.696393013000488 1.070552229881287 8.31739330291748 C 0.3608222603797913 9.995822906494141 2.265319835714763e-06 11.77882289886475 2.265319835714763e-06 13.61816310882568 C 2.265319835714763e-06 15.45696353912354 0.3608222603797913 17.24050331115723 1.070552229881287 18.91839218139648 C 1.756452322006226 20.53993225097656 2.737612247467041 21.99678230285645 3.988582372665405 23.2472038269043 C 5.239542484283447 24.49817276000977 6.696392059326172 25.48042297363281 8.317392349243164 26.16577339172363 C 9.995821952819824 26.87604331970215 11.77936267852783 27.2363224029541 13.61816215515137 27.2363224029541 M 10.35665225982666 9.532063484191895 C 10.56903266906738 9.532063484191895 10.77653217315674 9.623083114624023 10.94123268127441 9.788323402404785 L 13.63658237457275 12.48530292510986 L 16.33356285095215 9.788323402404785 C 16.48634147644043 9.635003089904785 16.69167137145996 9.551023483276367 16.91109275817871 9.551023483276367 C 17.13052177429199 9.551023483276367 17.33585166931152 9.635003089904785 17.48917198181152 9.788323402404785 C 17.80666160583496 10.10689353942871 17.80666160583496 10.62483310699463 17.48917198181152 10.94394302368164 L 14.79382228851318 13.64091300964355 L 17.48917198181152 16.33572387695312 C 17.64521217346191 16.48905372619629 17.73135185241699 16.69438362121582 17.73135185241699 16.91435241699219 C 17.73135185241699 17.13431358337402 17.64521217346191 17.34018325805664 17.48917198181152 17.49296379089355 C 17.33585166931152 17.64629364013672 17.13106155395508 17.73081398010254 16.91109275817871 17.73081398010254 C 16.69113159179688 17.73081398010254 16.48634147644043 17.64629364013672 16.33356285095215 17.49296379089355 L 13.63658237457275 14.79599285125732 L 10.94123268127441 17.49296379089355 C 10.78520202636719 17.64900398254395 10.57932186126709 17.73514366149902 10.36153221130371 17.73514366149902 C 10.14481258392334 17.73514366149902 9.94056224822998 17.64900398254395 9.786162376403809 17.49296379089355 C 9.624162673950195 17.33477401733398 9.534771919250488 17.13106346130371 9.534232139587402 16.91976356506348 C 9.53315258026123 16.70684242248535 9.622002601623535 16.49934387207031 9.786162376403809 16.33572387695312 C 10.11610221862793 16.00632286071777 12.45821189880371 13.66367340087891 12.48151206970215 13.64091300964355 L 12.46580219268799 13.62466335296631 C 12.06651210784912 13.22591304779053 10.060302734375 11.21970272064209 9.786162376403809 10.94394302368164 C 9.623082160949707 10.78249263763428 9.533692359924316 10.57553291320801 9.533692359924316 10.36207294464111 C 9.533692359924316 10.15131282806396 9.620912551879883 9.953022956848145 9.786162376403809 9.788323402404785 C 9.950322151184082 9.620372772216797 10.14752197265625 9.532063484191895 10.35665225982666 9.532063484191895 M 13.61816215515137 28.2363224029541 C 11.64486217498779 28.2363224029541 9.730301856994629 27.84953308105469 7.927672386169434 27.08670234680176 C 6.187502384185791 26.35097312927246 4.624192237854004 25.29703330993652 3.281472206115723 23.95430374145508 C 1.940442323684692 22.61386299133301 0.8866622447967529 21.05056381225586 0.149562269449234 19.30796241760254 C -0.6132277250289917 17.50464248657227 -0.9999977350234985 15.59031295776367 -0.9999977350234985 13.61816310882568 C -0.9999977350234985 11.64623355865479 -0.6132477521896362 9.731762886047363 0.1495122611522675 7.927923202514648 C 0.8856122493743896 6.18690299987793 1.939362287521362 4.623593330383301 3.281472206115723 3.281473159790039 C 4.624592304229736 1.938353061676025 6.187992095947266 0.8845630884170532 7.928232192993164 0.1493831127882004 C 9.730301856994629 -0.6132068634033203 11.64486217498779 -0.9999969005584717 13.61816215515137 -0.9999969005584717 C 15.59182262420654 -0.9999969005584717 17.50656318664551 -0.6132068634033203 19.3091926574707 0.1496231108903885 C 21.04927253723145 0.8847330808639526 22.6125316619873 1.938573122024536 23.95501136779785 3.281633138656616 C 25.29672241210938 4.622763156890869 26.35037231445312 6.186192989349365 27.08638191223145 7.928193092346191 C 27.84899139404297 9.730302810668945 28.23578262329102 11.64486312866211 28.23578262329102 13.61816310882568 C 28.23578262329102 15.59168338775635 27.8489818572998 17.50609397888184 27.08612251281738 19.30821228027344 C 26.35123252868652 21.04813385009766 25.2976131439209 22.61155319213867 23.95486259460449 23.95431327819824 C 22.61186218261719 25.29730224609375 21.04873275756836 26.35123252868652 19.30889320373535 27.08683395385742 C 17.50656318664551 27.84953308105469 15.59182262420654 28.2363224029541 13.61816215515137 28.2363224029541 Z" />
    </g>
  </g>
</svg>