<svg xmlns="http://www.w3.org/2000/svg" width="38.826" height="33.002" viewBox="0 0 38.826 33.002"><defs><style>.a{fill:#fff;}</style></defs><g transform="translate(0 0)"><path class="a" d="M32.418,32.147a2.326,2.326,0,0,0-3.25,0,3.182,3.182,0,0,1-4.341,0,2.326,2.326,0,0,0-3.25,0,3.18,3.18,0,0,1-4.339,0,2.323,2.323,0,0,0-3.248,0,3.18,3.18,0,0,1-4.339,0,2.324,2.324,0,0,0-3.249,0A3.11,3.11,0,0,1,4.23,33a3.109,3.109,0,0,1-2.169-.855,2.3,2.3,0,0,0-1.626-.662.438.438,0,0,1,0-.875,3.113,3.113,0,0,1,2.17.855,2.323,2.323,0,0,0,3.249,0,3.181,3.181,0,0,1,4.341,0,2.321,2.321,0,0,0,3.247,0,3.179,3.179,0,0,1,4.339,0,2.323,2.323,0,0,0,3.249,0,3.183,3.183,0,0,1,4.343,0,2.323,2.323,0,0,0,3.249,0,3.183,3.183,0,0,1,4.343,0,2.328,2.328,0,0,0,3.252,0,3.118,3.118,0,0,1,2.17-.855.438.438,0,0,1,0,.875,2.3,2.3,0,0,0-1.624.662,3.187,3.187,0,0,1-4.345,0Zm0-4.37a2.322,2.322,0,0,0-3.25,0,3.189,3.189,0,0,1-4.343,0,2.32,2.32,0,0,0-3.249,0,3.187,3.187,0,0,1-4.341,0,2.287,2.287,0,0,0-1.624-.664,2.15,2.15,0,0,0-1.483.553.434.434,0,0,1-.227.178,3.036,3.036,0,0,1-2.083.786,3.125,3.125,0,0,1-2.17-.854,2.318,2.318,0,0,0-3.247,0,3.126,3.126,0,0,1-2.17.854,3.122,3.122,0,0,1-2.171-.854,2.288,2.288,0,0,0-1.624-.664.438.438,0,0,1,0-.875,3.126,3.126,0,0,1,2.17.855,2.288,2.288,0,0,0,1.625.663,2.127,2.127,0,0,0,.816-.145.409.409,0,0,1-.04-.176V14.774c-1.133.13-2.2.282-3.184.453a.324.324,0,0,1-.077.007.437.437,0,0,1-.341-.708A64.576,64.576,0,0,1,19.167.054a.431.431,0,0,1,.405-.007C19.69.108,31.333,6.041,37.32,14.485a.442.442,0,0,1,.13.313.448.448,0,0,1-.441.437.3.3,0,0,1-.05,0c-.034,0-1.233-.129-3.215-.292V27.6a2.133,2.133,0,0,0,.846.157,2.29,2.29,0,0,0,1.626-.664,3.126,3.126,0,0,1,2.172-.855.438.438,0,0,1,0,.875,2.3,2.3,0,0,0-1.626.664,3.189,3.189,0,0,1-4.343,0Zm-22.587-.96c.128.091.248.186.362.276a2.291,2.291,0,0,0,1.624.664,2.169,2.169,0,0,0,1.51-.574V23.357h-3.5ZM25,25.979a.328.328,0,0,1-.009.04l.56,1.069a.457.457,0,0,1,.047.186,2.094,2.094,0,0,0,1.4.484,2.166,2.166,0,0,0,1.5-.564V23.357H25Zm-6.429,1.457a.456.456,0,0,1-.031.157,2.094,2.094,0,0,0,.864.165,2.047,2.047,0,0,0,1.019-.239c-.005-.009-.013-.016-.018-.025l-1.835-3.506ZM5.883,27.073a3.2,3.2,0,0,1,3.077-.7V23.357H5.883ZM17.7,27.028V23.357H14.2v3.212a2.9,2.9,0,0,1,1.41-.33A3.047,3.047,0,0,1,17.7,27.028Zm15.168-.009V23.357h-3.5v3.22a2.89,2.89,0,0,1,1.419-.337A3.037,3.037,0,0,1,32.87,27.019Zm-11.727-.01a3.014,3.014,0,0,1,2.06-.77,3.073,3.073,0,0,1,1,.156l-.326-.625a.42.42,0,0,1-.132.027H20.509ZM20.05,24.922h3.384L22.744,23.6H19.359Zm4.079-.561v-1H23.6ZM18.9,22.729h3.384l-.771-1.475H18.131Zm4.243-.247H32.87V21.254H22.5Zm-17.262,0h11.9l-.643-1.228H5.883Zm16.334-2.1H32.87V14.873c-2.69-.208-6.474-.455-10.653-.582Zm-4.371,0h3.5V14.266c-1.144-.03-2.315-.052-3.5-.059ZM5.883,14.68v5.7h11.09V14.2C16.907,14.2,9.016,14.364,5.883,14.68Zm30.191-.412C30.537,6.983,20.9,1.732,19.381.934a.174.174,0,0,0-.025.014C15.136,4.549,10.3,11.613,9,13.552q3.55-.22,7.77-.223C25.228,13.329,33.336,14.013,36.074,14.268ZM2.851,14.177c.76-.114,4.245-.487,5.069-.548.007-.015.009-.031.016-.043A90.072,90.072,0,0,1,16.123,2.878,65.268,65.268,0,0,0,2.851,14.177ZM26,19.351a.437.437,0,0,1-.437-.437V16.072A.437.437,0,0,1,26,15.635h3.2a.437.437,0,0,1,.437.438v2.842a.437.437,0,0,1-.437.437Zm.437-.875h2.331V16.509H26.442ZM9.4,19.351a.437.437,0,0,1-.436-.437V16.072a.437.437,0,0,1,.436-.437H12.6a.438.438,0,0,1,.438.438v2.842a.438.438,0,0,1-.437.437Zm.437-.875h2.331V16.509H9.833Z"/></g></svg>