<svg xmlns="http://www.w3.org/2000/svg" width="61.771" height="50.001" viewBox="0 0 61.771 50.001"><defs><style>.a{fill:#d9345a;}</style></defs><g transform="translate(-0.001 0.001)"><path class="a" d="M-3167.516,11482.558a36.289,36.289,0,0,1-4.483-15.42h.014c-.009-.127-.014-.263-.014-.39,0-2.392,1.514-4.624,4.117-6.557l2.775,1.742c-1.714,1.122-2.709,2.383-2.709,3.71,0,4.705,11.955,8.516,26.7,8.516s26.7-3.811,26.7-8.516c0-1.206-.793-2.346-2.207-3.384a18.109,18.109,0,0,0,2.928-1.526c2.181,1.809,3.462,3.834,3.462,6.015,0,.127-.009.263-.017.393h.009a36.541,36.541,0,0,1-4.584,15.313s-6.355,12.546-26.293,12.546S-3167.516,11482.558-3167.516,11482.558Zm19.557-10.755c-1.151-.208-.84-1.59-1.719-2.579-.842-.955-3.061-.98-1.439-3.22,1.116-1.534,4.284-1.748,5.366-.2.825,1.445,2.986,4.985,1.281,6.258a1.516,1.516,0,0,1-.922.249A14.424,14.424,0,0,1-3147.959,11471.8Zm6.453-1.434c-1.321-4.475,5.874-7.178,5.79-2.666.667,2.406.854,3.8-1.6,4.264a11.7,11.7,0,0,1-1.994.263C-3140.357,11472.229-3141.076,11471.819-3141.506,11470.369Zm-14.355.6c-1.63-.524-1.892-.009-2.077-2.3a7.914,7.914,0,0,1,.675-3.93c.7-1.485,4.347-6.433,5.6-2.786.159,1.652-1.2,2.746-1.215,4.354-.011,1.168.687,2.336.981,3.441.361,1.33,1.238,1.884-.669,2.2a1.563,1.563,0,0,1-.228.017A12.49,12.49,0,0,1-3155.861,11470.966Zm21.818.381c-1.018-1.283,1.541-5.646,2.443-6.574a6.332,6.332,0,0,1,5.126-1.757c.28,1.872.678,6.459-1,7.873a13,13,0,0,1-4.81.841A2.6,2.6,0,0,1-3134.043,11471.347Zm9.061-7.48c-.355-1.748-1.7-1.754-2.23-2.743-1.722-3.24,2.363-4.238,4.613-2.954-.482-1.31-2.377-2.827-1.893-4.4.465-1.5,1.526-1.284,2.464.089,1.829-.089.525,4.523-.767,4.584a6.145,6.145,0,0,1,1.22,2.614c-.023,1.2-.785,1.347-1.434,2.365a6.8,6.8,0,0,0-.766,2.169c1.472-3.17,6.041-5.864,7.061-1.649.47,2.228.006,3.56-1.988,4.541-1.521.759-4.538,1.615-5.233.266a2.681,2.681,0,0,1-.281-.955,3.9,3.9,0,0,1-.971,2.138C-3125.446,11467.926-3124.577,11465.84-3124.981,11463.866Zm-36.153,5.121c-1.6-.759-1.266-2.346-1.541-3.863-1,2.285-1.6,4.281-3.208.652-.9-2.031.724-3.511,2.293-4.394a3.662,3.662,0,0,1,1.642,1.569,8.569,8.569,0,0,0-.545,1.624c1.03-.288,2.267-2.164,3.364-1.9,1.535.378.75,3.326.626,4.5-.137,1.313-.565,2.128-1.486,2.128A2.772,2.772,0,0,1-3161.135,11468.987Zm17.5-2.77c-1.385-2.5,5.845-8.317,7.051-4.308.3,2.427-1.976,1.783-3.375,2.5-.792.407-1.963,2.377-2.92,2.377C-3143.156,11466.786-3143.413,11466.624-3143.638,11466.218Zm15.229-6c.326,2.034-1.7,1.907-2.922,2.747-1.318.9-1.74,2.774-3.193,3.4C-3134.2,11464.787-3130.434,11455.6-3128.409,11460.22Zm-18.287,3.269a3.265,3.265,0,0,0-1.826-.309c-.066-.819-.13-1.633-.193-2.452-.5.5-.476.269-1.111.563.785-1.2,2.977-3.493,2.643-5.1-.3-1.419-2.112-1.24-2.308-2.516-.1-.643,1.662-2.844,2.395-3.069,1.03-.3,2.686.785,3.372,1.59-.337,1.633-.329,3.3-.675,4.933-.349,1.665-1.766.246-2.285,1.774,2.7-.36,4.391.863,2.747,3.52-.672,1.086-1.172,1.407-1.658,1.407A2.986,2.986,0,0,1-3146.7,11463.488Zm-11.885-1.555a2.479,2.479,0,0,0-1.523.332,1.911,1.911,0,0,1-1.163.337c-.814-.21-1.128-1.673-1.982-2.033-.972-.413-1.307-.09-2.447-1.125-1.082-.99,1.261-1.642,1.832-1.937,2.738-1.4,5.441-.32,7.59,1.774a3.378,3.378,0,0,1-.069,3.093c-.309.472-.543.641-.745.641C-3157.57,11463.016-3157.872,11462.05-3158.581,11461.934Zm21.734-4.968c.741-2.55,4.307-2.533,6.324-2.827-1.99-1.509.049-3.185,1.642-4.051,2.227-1.223,2.155.474,2.966,2.213a8.984,8.984,0,0,1,.384,2.4c-1.629.174-4.034,4.782-4.264.663.055,2.251-2.169,2.7-3.144,4.392-.692,1.211-.153,2.683-2,2.683C-3134.022,11459.747-3137.562,11459.4-3136.847,11456.966Zm-6.26-2.867c.208-.949.684-2.957,1.6-3.477a1.728,1.728,0,0,1,2.291.45c.384.366.71.729,1.064.721,1.261-.046-.242-1,1.405-1.875a3.645,3.645,0,0,1,3.73.7c1.07,2.92-3.28,4.229-4.408,1.33a7.677,7.677,0,0,1,.335,2.489c-.234.946-.865.8-1.3,1.69-.649,1.339-.352,3.895-2.025,4.4a2.072,2.072,0,0,1-.615.1C-3143.392,11460.631-3143.462,11455.729-3143.107,11454.1Zm-8.842,6.1a.928.928,0,0,0-.736-.26c-1.927.115-2.778,1.013-3.069-.937-.73-4.916,7.749-5.56,6.811-1.4-.574.75-1.2,2.389-2.1,2.767a1.038,1.038,0,0,1-.394.1A.763.763,0,0,1-3151.949,11460.2Zm30.819-1.726c-.62-2.365,2.891-5,3-1.711.225,1.238.736,3.378-.623,3.655a1.409,1.409,0,0,1-.276.028C-3120.047,11460.447-3120.9,11459.324-3121.13,11458.475Zm-38.6-3.813a1.877,1.877,0,0,1,3.528.545c-.109,1.467-.647,1.982-1.274,1.982C-3158.624,11457.188-3160.071,11455.458-3159.729,11454.661Zm5.02-1.076c-1.6-4,7.558-7.767,6.456-3.921-.688,1.083-3.623,4.765-5.385,4.764A1.13,1.13,0,0,1-3154.71,11453.585Zm8.225-5.438c-1.336-4.041,5.588-3.856,6.981-1.332.274,1.886-1.885,2.914-3.889,2.913C-3144.8,11449.728-3146.13,11449.221-3146.485,11448.146Zm12.3.121c-1.258-.524-2.81-.08-4.091.081-.15-3.021,4.451-2.654,6.09-1.327.256,1.1-.233,1.49-.917,1.49A2.944,2.944,0,0,1-3134.19,11448.268Z" transform="translate(3172 -11445)"/></g></svg>