<svg xmlns="http://www.w3.org/2000/svg" width="24.013" height="24.001" viewBox="0 0 24.013 24.001"><defs><style>.a{fill:#ffc300;}</style></defs><g transform="translate(-16.017 -16.037)"><path class="a" d="M3.669,23.73l-.712-.045A2.843,2.843,0,0,1,.313,21.06L.29,20.685a130.022,130.022,0,0,1,0-17.371l.022-.376A2.845,2.845,0,0,1,2.938.313L3.313.289a130.45,130.45,0,0,1,17.371,0l.375.023a2.848,2.848,0,0,1,2.626,2.625l.037.383a130.535,130.535,0,0,1,0,17.371l-.022.375a2.842,2.842,0,0,1-2.626,2.625q-4.5.311-9,.309C9.264,24,6.456,23.91,3.669,23.73ZM3.419,1.745l-.375.023A1.342,1.342,0,0,0,1.8,3.01l-.023.375a130.15,130.15,0,0,0,0,17.173l.023.375a1.341,1.341,0,0,0,1.245,1.24l.709.045a129.4,129.4,0,0,0,17.193-.038,1.334,1.334,0,0,0,1.237-1.24l.027-.375v.01A130.261,130.261,0,0,0,22.219,3.41L22.2,3.035a1.343,1.343,0,0,0-1.242-1.24l-.375-.022c-2.847-.192-5.716-.286-8.585-.286S6.257,1.58,3.419,1.745ZM15.5,16.988v-.625h-.624a.625.625,0,1,1,0-1.249H15.5v-.625a.625.625,0,0,1,1.251,0v.625h.625a.625.625,0,0,1,0,1.249h-.625v.625a.625.625,0,1,1-1.251,0Zm-8.751-.5a.75.75,0,1,1,0-1.5h5.25a.75.75,0,1,1,0,1.5Zm0-3.749a.75.75,0,1,1,0-1.5h10.5a.75.75,0,0,1,0,1.5Zm0-3.751a.751.751,0,0,1,0-1.5h10.5a.751.751,0,0,1,0,1.5Z" transform="translate(16.017 16.037)"/></g></svg>