<svg xmlns="http://www.w3.org/2000/svg" viewBox="0 0 164.32 164.37"><g id="Calque_2" data-name="Calque 2"><g id="Calque_1-2" data-name="Calque 1"><path id="PICTO_ARROW_RIGHT_1" data-name="PICTO ARROW RIGHT 1" d="M96.79,60.56,69.69,87.4l27.1,26.82-8.34,8.25L53,87.4l35.5-35.08Z"/><path d="M22.68,38.53l.33-.35-2.12-2.13-.35.38A76,76,0,0,0,127.9,143.79l.37-.35-2.12-2.12-.35.33A73,73,0,0,1,22.68,38.53Z"/><path d="M99.7,2.19a82.92,82.92,0,0,0-63,10.47,84.46,84.46,0,0,0-14.15,11.1l-1.45,1.42,1.43,1.43,9.9,9.9,1.39,1.39,1.41-1.37a66.4,66.4,0,0,1,11-8.6,65.46,65.46,0,0,1,80.85,9.18,66.22,66.22,0,0,1,9.32,11.77,65.39,65.39,0,0,1-8.56,80.23l-1.38,1.41,1.4,1.4,9.89,9.89,1.43,1.42,1.41-1.44A83.5,83.5,0,0,0,99.7,2.19Z"/></g></g></svg>