<svg xmlns="http://www.w3.org/2000/svg" viewBox="0 0 24.00005 12"><g id="Calque_2" data-name="Calque 2"><g id="Calque_1-2" data-name="Calque 1"><path d="M23.55758,6.82927s-1.5001-.09756-3.469-.19512c2.62517-.29269,2.62517,0,2.62517-1.36586,0-1.65853-.375-1.36585-1.78137-1.36585A15.95476,15.95476,0,0,0,18.776,3.80488l2.15639-.09756c.18752-.58537.18752-1.17073-.46878-1.36586-.28126,0-8.438-2.34146-8.438-2.34146L2.18119,1.65854c-.09376,0-.09376.19512,0,.19512a2.52846,2.52846,0,0,0,.56253-.09756,2.8114,2.8114,0,0,1,0,1.7561H2.18119c-.18752.39024,2.53141.39024,2.53141.39024l-1.5001.4878.28127.19513a6.76522,6.76522,0,0,1,0,1.95122L.21231,6.73171c-.09376.09756-.56254.29268.46878.29268a6.994,6.994,0,0,1-.18751,3.31707c-.6563-.09756-.46878.29269-.46878.29269L9.68167,12l13.96966-1.46341a4.68478,4.68478,0,0,0-.09375-3.70732ZM.8686,7.02439H9.68167c.56254,0,0,4.19512-.09375,4.48781L.58733,10.439A7.83729,7.83729,0,0,0,.8686,7.02439ZM2.83748,1.7561C5.65016,1.36585,11.93182.29268,11.93182.39024c.09376.29269.28127,1.95122-.18751,2.14635l-8.81308.878A2.06971,2.06971,0,0,0,2.83748,1.7561Zm.8438,2.7317,3.0002-1.07317L6.58772,6.04878,3.68128,6.439A3.44963,3.44963,0,0,0,3.68128,4.4878Z" fill-rule="evenodd"/></g></g></svg>