<svg xmlns="http://www.w3.org/2000/svg" viewBox="0 0 24 24"><defs><style>.transparent{opacity:0;}</style></defs><g id="Calque_2" data-name="Calque 2"><g id="Calque_1-2" data-name="Calque 1"><rect class="transparent" width="24" height="24"/><path d="M2.67,16a1.34,1.34,0,0,1-1.45,1.23A1.36,1.36,0,0,1,0,16V8A1.34,1.34,0,0,1,1.45,6.73,1.36,1.36,0,0,1,2.67,8Z"/><path d="M8,22.76a1.34,1.34,0,0,1-2.67,0V1.24A1.34,1.34,0,0,1,8,1.24Z"/><path d="M13.33,20.75a1.33,1.33,0,1,1-2.66,0V3.93a1.33,1.33,0,1,1,2.66,0h0Z"/><path d="M18.67,22.76a1.34,1.34,0,0,1-2.67,0V1.24a1.34,1.34,0,0,1,2.67,0Z"/><path d="M24,16a1.34,1.34,0,0,1-2.67,0V8A1.34,1.34,0,0,1,24,8Z"/></g></g></svg>