<svg xmlns="http://www.w3.org/2000/svg" viewBox="0 0 20 20" height="40"><g id="Calque_2" data-name="Calque 2"><g id="Calque_1-2" data-name="Calque 1"><path id="PICTO_ARROW_RIGHT_1" data-name="PICTO ARROW RIGHT 1" d="M67.53,103.81,94.63,77,67.53,50.15l8.34-8.25L111.37,77l-35.5,35.07Z"/><path d="M141.64,125.84l-.33.36,2.12,2.12.35-.38A76,76,0,0,0,36.42,20.58l-.37.36,2.12,2.12.35-.33A73,73,0,0,1,141.64,125.84Z"/><path d="M64.62,162.18a82.92,82.92,0,0,0,63-10.47,84.46,84.46,0,0,0,14.15-11.1l1.45-1.41-1.43-1.44-9.9-9.89-1.39-1.4-1.41,1.37a66.46,66.46,0,0,1-11,8.61,65.48,65.48,0,0,1-80.85-9.19A65.87,65.87,0,0,1,28,115.49a65.38,65.38,0,0,1,8.56-80.22l1.38-1.42-1.4-1.39L26.6,22.57l-1.42-1.43-1.42,1.44a83.49,83.49,0,0,0,40.86,139.6Z"/></g></g></svg>