<svg xmlns="http://www.w3.org/2000/svg" viewBox="0 0 40 40" fill="#292f33">
  <g id="Calque_2" data-name="Calque 2">
    <g id="Calque_1-2" data-name="Calque 1">
      <path id="PICTO_ARROW_RIGHT_1" data-name="PICTO ARROW RIGHT 1" d="M16.44,25.26,23,18.73l-6.6-6.53,2-2,8.64,8.53-8.64,8.54Z" />
      <path d="M34.48,30.62l-.08.09.51.52.09-.1A18.48,18.48,0,0,0,8.87,5l-.1.08.52.52.09-.08a17.75,17.75,0,0,1,25.1,25.09Z" />
      <path
        d="M15.73,39.47a20.22,20.22,0,0,0,15.34-2.55,20.77,20.77,0,0,0,3.44-2.7l.36-.35-.35-.35-2.41-2.4-.34-.34-.34.33a16.13,16.13,0,0,1-2.68,2.09A16,16,0,0,1,9.07,31,16.6,16.6,0,0,1,6.8,28.11,15.94,15.94,0,0,1,8.89,8.58l.33-.34L8.88,7.9,6.48,5.49l-.35-.35-.35.36a20.32,20.32,0,0,0,10,34Z"
      />
    </g>
  </g>
</svg>