<svg xmlns="http://www.w3.org/2000/svg" viewBox="0 0 24 24">
  <defs>
    <style>
      .cls-3211 {
        opacity: 0;
      }
    </style>
  </defs>
  <g id="Calque_2" data-name="Calque 2">
    <g id="Calque_1-2" data-name="Calque 1">
      <rect class="cls-3211" width="24" height="24" />
      <path
        d="M12,0A12,12,0,1,0,24,12h0A12.01192,12.01192,0,0,0,12.00075,0Zm0,1.09125a10.91024,10.91024,0,0,1,8.08875,18.231l.00825-.009a5.3991,5.3991,0,0,0-3.375-2.778l-.01725-.00825a5.09213,5.09213,0,0,1-1.6125-.71025l.018.01125a.9339.9339,0,0,1-.375-.732v-.00075c.02325-.05175.04575-.10125.06825-.153a11.55877,11.55877,0,0,0,.99675-4.272L15.801,10.647c0-2.4195-1.6365-4.50825-3.801-4.50825-2.15475,0-3.801,2.0865-3.801,4.50825a11.61294,11.61294,0,0,0,1.03575,4.36875l-.03-.07275c.02475.057.051.114.0765.171a.86222.86222,0,0,1-.32175.79125l-.0015.0015a4.56267,4.56267,0,0,1-1.43475.591l-.03075.006-.01725.00825A5.63608,5.63608,0,0,0,3.87,19.28175a10.91254,10.91254,0,0,1,8.13075-18.1875h0Z" />
    </g>
  </g>
</svg>