<svg xmlns="http://www.w3.org/2000/svg" viewBox="0 0 24 24"><defs><style>.cls-1{opacity:0;}</style></defs><g id="Calque_2" data-name="Calque 2"><g id="Calque_1-2" data-name="Calque 1"><rect class="cls-1" width="24" height="24"/><g id="PICTO_CUISINE" data-name="PICTO CUISINE"><path id="PICTO_CUISINE-2" data-name="PICTO CUISINE-2" d="M1.742,16.88014A14.118,14.118,0,0,1,0,10.88714H.007a1.06919,1.06919,0,0,1-.007-.151,3.323,3.323,0,0,1,1.6-2.549l1.078.677a1.9,1.9,0,0,0-1.053,1.444c0,1.828,4.646,3.309,10.375,3.309s10.375-1.481,10.375-3.309a1.727,1.727,0,0,0-.858-1.314,7.00038,7.00038,0,0,0,1.137-.593A3.136,3.136,0,0,1,24,10.73614a1.13418,1.13418,0,0,1-.007.153h0a14.18905,14.18905,0,0,1-1.781,5.949s-2.465,4.876-10.212,4.876S1.742,16.88014,1.742,16.88014Zm7.6-4.179c-.447-.081-.327-.618-.668-1s-1.19-.381-.56-1.25a1.437,1.437,0,0,1,2.02788-.13289q.02979.02614.05812.05389c.32.562,1.159,1.937.5,2.432a.588.588,0,0,1-.357.1,5.6335,5.6335,0,0,1-1.002-.203Zm2.508-.556c-.514-1.739,2.282-2.789,2.249-1.037.258.936.332,1.477-.623,1.656a4.54518,4.54518,0,0,1-.776.1c-.406.003-.685-.157-.851-.72Zm-5.578.231c-.632-.2-.735,0-.807-.894a3.081,3.081,0,0,1,.262-1.527c.273-.577,1.688-2.5,2.173-1.083.062.641-.465,1.067-.472,1.691a5.3149,5.3149,0,0,0,.381,1.336c.139.517.481.732-.26.853a.58244.58244,0,0,1-.089.006,4.85209,4.85209,0,0,1-1.19-.382Zm8.478.148c-.4-.5.6-2.193.949-2.554a2.463,2.463,0,0,1,1.99-.683c.108.727.263,2.51-.39,3.059a5.06315,5.06315,0,0,1-1.868.326,1.012,1.012,0,0,1-.683-.149Zm3.52-2.905c-.138-.68-.661-.683-.866-1.067-.669-1.259.917-1.647,1.792-1.148-.187-.508-.924-1.1-.735-1.707.18-.582.593-.5.957.034.71-.034.2,1.757-.3,1.781a2.39084,2.39084,0,0,1,.474,1.015c-.008.465-.305.523-.557.919a2.64408,2.64408,0,0,0-.3.843c.572-1.232,2.347-2.278,2.743-.641a1.355,1.355,0,0,1-.75975,1.75921l-.01224.00479c-.591.295-1.764.628-2.034.1a1.043,1.043,0,0,1-.109-.37,1.513,1.513,0,0,1-.377.829c-.099-.777.24-1.584.082-2.353Zm-14.048,1.987c-.621-.295-.492-.911-.6-1.5-.387.888-.621,1.663-1.247.254-.349-.79.282-1.365.891-1.708a1.419,1.419,0,0,1,.637.609,3.39423,3.39423,0,0,0-.212.631c.4-.111.881-.84,1.307-.739.6.146.291,1.292.243,1.746-.053.51-.219.827-.577.827A1.07611,1.07611,0,0,1,4.222,11.60614Zm6.8-1.076c-.539-.969,2.271-3.232,2.739-1.673.118.942-.769.692-1.311.971-.308.158-.762.924-1.134.923-.109.001-.208-.064-.296-.221Zm5.917-2.33c.126.79-.663.741-1.136,1.067-.512.349-.675,1.078-1.241,1.32.123-.612,1.588-4.182,2.375-2.386Zm-7.107,1.271a1.27,1.27,0,0,0-.709-.12c-.026-.318-.051-.634-.076-.952-.194.194-.184.1-.431.218.305-.465,1.156-1.358,1.027-1.983-.116-.551-.821-.482-.9-.977-.038-.25.646-1.105.931-1.193.4-.118,1.043.305,1.31.618-.131.634-.128,1.282-.261,1.916s-.686.1-.888.689c1.048-.139,1.706.336,1.066,1.368-.261.422-.455.548-.644.547A1.15814,1.15814,0,0,1,9.832,9.47114Zm-4.617-.6a.966.966,0,0,0-.592.129.729.729,0,0,1-.452.131c-.316-.081-.439-.649-.77-.79-.378-.161-.508-.034-.951-.438-.421-.384.49-.637.712-.752a2.481,2.481,0,0,1,2.948.689,1.314,1.314,0,0,1-.026,1.2c-.12.183-.211.249-.29.249-.188-.002-.304-.377-.58-.423Zm8.445-1.931c.288-.99,1.673-.983,2.456-1.1-.773-.586.02-1.238.638-1.573.866-.476.838.184,1.153.859a3.49015,3.49015,0,0,1,.149.933c-.633.067-1.567,1.857-1.656.258.021.874-.844,1.046-1.222,1.706-.269.47-.06,1.042-.777,1.042.354-1.048-1.021-1.183-.742-2.129Zm-2.435-1.117c.081-.369.267-1.149.623-1.351a.671.671,0,0,1,.89.176c.149.142.275.283.413.28.49-.019-.1-.389.546-.729a1.415,1.415,0,0,1,1.449.274c.416,1.135-1.275,1.643-1.712.517a3.009,3.009,0,0,1,.129.967c-.091.367-.336.311-.507.657-.252.52-.136,1.512-.787,1.71a.81216.81216,0,0,1-.238.039C11.116,8.36114,11.088,6.45614,11.225,5.82314Zm-3.434,2.37a.363.363,0,0,0-.291-.106c-.749.045-1.08.394-1.193-.364-.278-1.906,3.016-2.156,2.652-.536-.224.291-.467.929-.816,1.075a.40013.40013,0,0,1-.154.037A.291.291,0,0,1,7.791,8.19314Zm11.974-.67c-.242-.919,1.123-1.944,1.164-.666.088.482.286,1.314-.242,1.421a.53625.53625,0,0,1-.107.009C20.185,8.28714,19.853,7.85314,19.765,7.52314Zm-15-1.482a.729.729,0,0,1,1.371.212c-.043.57-.252.77-.5.77-.436-.001-1.001-.673-.868-.982Zm1.95-.418c-.615-1.556,2.939-3.018,2.511-1.524-.267.421-1.408,1.852-2.093,1.852a.439.439,0,0,1-.416-.328Zm3.2-2.114c-.519-1.57,2.171-1.5,2.713-.517.106.732-.733,1.132-1.511,1.132a1.186,1.186,0,0,1-1.204-.615Zm4.778.048a3.2129,3.2129,0,0,0-1.593.03c-.057-1.173,1.73-1.03,2.368-.515.1.428-.091.58-.356.58a1.14526,1.14526,0,0,1-.421-.095Z"/></g></g></g></svg>