<svg xmlns="http://www.w3.org/2000/svg" viewBox="0 0 24 19.426">
    <path id="PICTO_CUISINE-2" data-name="PICTO_CUISINE" d="M1.742,14.593A14.118,14.118,0,0,1,0,8.6H.007C0,8.552,0,8.5,0,8.449A3.323,3.323,0,0,1,1.6,5.9l1.078.677A1.9,1.9,0,0,0,1.625,8.021C1.625,9.849,6.271,11.33,12,11.33S22.375,9.849,22.375,8.021a1.727,1.727,0,0,0-.858-1.314,7,7,0,0,0,1.137-.593A3.136,3.136,0,0,1,24,8.449c0,.051,0,.1-.007.153h0a14.189,14.189,0,0,1-1.781,5.949S19.747,19.427,12,19.427,1.742,14.593,1.742,14.593Zm7.6-4.179c-.447-.081-.327-.618-.668-1s-1.19-.381-.56-1.25A1.437,1.437,0,0,1,10.2,8.085c.32.562,1.159,1.937.5,2.432a.588.588,0,0,1-.357.1A5.633,5.633,0,0,1,9.341,10.414Zm2.508-.556c-.514-1.739,2.282-2.789,2.249-1.037.258.936.332,1.477-.623,1.656a4.545,4.545,0,0,1-.776.1C12.294,10.58,12.015,10.42,11.849,9.857Zm-5.578.231c-.632-.2-.735,0-.807-.894a3.081,3.081,0,0,1,.262-1.527C6,7.091,7.415,5.168,7.9,6.585c.062.641-.465,1.067-.472,1.691a5.315,5.315,0,0,0,.381,1.336c.139.517.481.732-.26.853a.582.582,0,0,1-.089.006A4.852,4.852,0,0,1,6.27,10.089Zm8.478.148c-.4-.5.6-2.193.949-2.554A2.463,2.463,0,0,1,17.689,7c.108.727.263,2.51-.39,3.059a5.063,5.063,0,0,1-1.868.326A1.012,1.012,0,0,1,14.748,10.236Zm3.52-2.905c-.138-.68-.661-.683-.866-1.067-.669-1.259.917-1.647,1.792-1.148-.187-.508-.924-1.1-.735-1.707.18-.582.593-.5.957.034.71-.034.2,1.757-.3,1.781a2.391,2.391,0,0,1,.474,1.015c-.008.465-.305.523-.557.919a2.644,2.644,0,0,0-.3.843c.572-1.232,2.347-2.278,2.743-.641a1.355,1.355,0,0,1-.772,1.764c-.591.295-1.764.628-2.034.1a1.043,1.043,0,0,1-.109-.37,1.513,1.513,0,0,1-.377.829C18.087,8.907,18.426,8.1,18.268,7.331ZM4.222,9.319c-.621-.295-.492-.911-.6-1.5-.387.888-.621,1.663-1.247.254-.349-.79.282-1.365.891-1.708a1.419,1.419,0,0,1,.637.609,3.394,3.394,0,0,0-.212.631c.4-.111.881-.84,1.307-.739.6.146.291,1.292.243,1.746-.053.51-.219.827-.577.827A1.076,1.076,0,0,1,4.222,9.319Zm6.8-1.076c-.539-.969,2.271-3.232,2.739-1.673.118.942-.769.692-1.311.971-.308.158-.762.924-1.134.923C11.207,8.465,11.108,8.4,11.02,8.243Zm5.917-2.33c.126.79-.663.741-1.136,1.067-.512.349-.675,1.078-1.241,1.32C14.685,7.688,16.15,4.118,16.937,5.914ZM9.832,7.184a1.27,1.27,0,0,0-.709-.12c-.026-.318-.051-.634-.076-.952-.194.194-.184.1-.431.218.305-.465,1.156-1.358,1.027-1.983-.116-.551-.821-.482-.9-.977-.038-.25.646-1.105.931-1.193.4-.118,1.043.305,1.31.618-.131.634-.128,1.282-.261,1.916s-.686.1-.888.689c1.048-.139,1.706.336,1.066,1.368-.261.422-.455.548-.644.547A1.158,1.158,0,0,1,9.832,7.184Zm-4.617-.6a.966.966,0,0,0-.592.129.729.729,0,0,1-.452.131c-.316-.081-.439-.649-.77-.79-.378-.161-.508-.034-.951-.438-.421-.384.49-.637.712-.752a2.481,2.481,0,0,1,2.948.689,1.314,1.314,0,0,1-.026,1.2c-.12.183-.211.249-.29.249C5.606,7,5.49,6.625,5.214,6.579Zm8.445-1.931c.288-.99,1.673-.983,2.456-1.1-.773-.586.02-1.238.638-1.573.866-.476.838.184,1.153.859a3.49,3.49,0,0,1,.149.933c-.633.067-1.567,1.857-1.656.258.021.874-.844,1.046-1.222,1.706-.269.47-.06,1.042-.777,1.042C14.755,5.73,13.38,5.595,13.659,4.649ZM11.225,3.536c.081-.369.267-1.149.623-1.351a.671.671,0,0,1,.89.176c.149.142.275.283.413.28.49-.019-.1-.389.546-.729a1.415,1.415,0,0,1,1.449.274c.416,1.135-1.275,1.643-1.712.517a3.009,3.009,0,0,1,.129.967c-.091.367-.336.311-.507.657-.252.52-.136,1.512-.787,1.71a.812.812,0,0,1-.238.039C11.116,6.074,11.088,4.169,11.225,3.536ZM7.791,5.906A.363.363,0,0,0,7.5,5.8c-.749.045-1.08.394-1.193-.364C6.029,3.53,9.323,3.28,8.959,4.9c-.224.291-.467.929-.816,1.075a.4.4,0,0,1-.154.037A.291.291,0,0,1,7.791,5.906Zm11.974-.67c-.242-.919,1.123-1.944,1.164-.666.088.482.286,1.314-.242,1.421A.536.536,0,0,1,20.58,6C20.185,6,19.853,5.566,19.765,5.236Zm-15-1.482a.729.729,0,0,1,1.371.212c-.043.57-.252.77-.5.77C5.2,4.735,4.635,4.063,4.768,3.754Zm1.95-.418C6.1,1.78,9.654.318,9.226,1.812c-.267.421-1.408,1.852-2.093,1.852A.439.439,0,0,1,6.717,3.336Zm3.2-2.114c-.519-1.57,2.171-1.5,2.713-.517.106.732-.733,1.132-1.511,1.132A1.186,1.186,0,0,1,9.913,1.222Zm4.778.048A3.213,3.213,0,0,0,13.1,1.3C13.043.127,14.83.27,15.468.785c.1.428-.091.58-.356.58A1.145,1.145,0,0,1,14.691,1.27Z"/>
</svg>
