<svg id="noun_Camera_2021664" xmlns="http://www.w3.org/2000/svg" width="21.799" height="16.962" viewBox="0 0 21.799 16.962" fill="#292f33">
  <path id="Tracé_5549" data-name="Tracé 5549" d="M25.8,19.935H22.675l-.665-1.714a1.321,1.321,0,0,0-1.254-.921H15.613a1.29,1.29,0,0,0-1.254.947l-.588,1.663H10.8c-2.3,0-3.4,1.126-3.4,3.4V29.76c0,2.3,1.126,3.4,3.4,3.4h1.2a.661.661,0,0,0,.665-.665.645.645,0,0,0-.665-.665H10.8c-1.586,0-2.1-.537-2.1-2.1v-6.4c0-1.586.537-2.1,2.1-2.1h3.326a.514.514,0,0,0,.333-.1.706.706,0,0,0,.384-.384l.742-2.072c0-.026,0-.026.026-.051h5.143c0,.026,0,.026.026.051l.819,2.072a.919.919,0,0,0,.179.256.727.727,0,0,0,.486.23H25.8c1.586,0,2.1.537,2.1,2.1v6.448c0,1.586-.537,2.1-2.1,2.1H24.568a.661.661,0,0,0-.665.665.645.645,0,0,0,.665.665H25.8c2.3,0,3.4-1.126,3.4-3.4V23.338C29.2,21.036,28.1,19.935,25.8,19.935Z" transform="translate(-7.4 -17.3)" />
  <path id="Tracé_5550" data-name="Tracé 5550" d="M33.419,49.437a5.819,5.819,0,1,1,5.819-5.819A5.826,5.826,0,0,1,33.419,49.437Zm0-10.286a4.494,4.494,0,1,0,4.494,4.494A4.5,4.5,0,0,0,33.419,39.151Z" transform="translate(-22.353 -32.475)" />
  <path id="Tracé_5551" data-name="Tracé 5551" d="M73.364,38.866H71.883A.876.876,0,0,1,71,37.983h0a.876.876,0,0,1,.883-.883h1.481a.876.876,0,0,1,.883.883h0A.876.876,0,0,1,73.364,38.866Z" transform="translate(-54.479 -31.957)" />
  <path id="Tracé_5552" data-name="Tracé 5552" d="M43.075,49a2.925,2.925,0,0,1,2.13.883,3.057,3.057,0,0,1,0,4.286.643.643,0,0,1-.909-.909,1.727,1.727,0,1,0-2.442-2.442.643.643,0,0,1-.909-.909A2.852,2.852,0,0,1,43.075,49Z" transform="translate(-32.087 -40.766)" />
</svg>
