<svg xmlns="http://www.w3.org/2000/svg" viewBox="0 0 22.853 23.999"><g id="Calque_2" data-name="Calque 2"><g id="Calque_1-2" data-name="Calque 1"><g id="PICTO_CANONYING-2" data-name="PICTO CANONYING-2"><path id="PICTO_CANONYING-3" data-name="PICTO CANONYING-3" d="M11.427,24C5.127,24,0,21.109,0,17.558a4.552,4.552,0,0,1,1.543-3.25.153.153,0,0,1,.225.006l.018.024a.235.235,0,0,1-.027.29,4.127,4.127,0,0,0-1.413,2.93c0,3.325,4.971,6.03,11.082,6.03h0a19.2,19.2,0,0,0,4.171-.447.177.177,0,0,1,.2.153v.01a.2.2,0,0,1-.137.24A19.424,19.424,0,0,1,11.43,24Zm5.915-1.135a.216.216,0,0,1,.116-.256c3.162-1.126,5.05-3.014,5.05-5.05,0-2.19-2.206-4.215-5.758-5.284a.21.21,0,0,1-.126-.248.173.173,0,0,1,.194-.153l.015,0c3.714,1.118,6.02,3.3,6.02,5.682,0,2.228-1.979,4.263-5.3,5.445a.142.142,0,0,1-.05.008.178.178,0,0,1-.166-.147ZM6.77,21.914a.213.213,0,0,1-.117-.254.173.173,0,0,1,.2-.145l.014,0a14.3,14.3,0,0,0,4.561.713c3.732,0,7.032-1.3,8.207-3.237a.155.155,0,0,1,.216-.064l.023.017a.232.232,0,0,1,.04.288c-1.236,2.038-4.647,3.407-8.486,3.407A14.643,14.643,0,0,1,6.77,21.914Zm-1.889-.863A4.273,4.273,0,0,1,2.45,17.558c0-2.285,2.589-4.247,6.442-4.88a.179.179,0,0,1,.194.163v.011a.2.2,0,0,1-.147.232c-3.619.6-6.146,2.436-6.146,4.474a3.889,3.889,0,0,0,2.241,3.126.223.223,0,0,1,.076.277.167.167,0,0,1-.152.112.144.144,0,0,1-.078-.022Zm8.17-1.309-.069-.062L12.9,19.7a2.619,2.619,0,0,1-1.678-.217l-.067-.033-.069.024a3.794,3.794,0,0,1-1.27.21,2.842,2.842,0,0,1-2.177-.806l-.091-.117-.125.055a1.867,1.867,0,0,1-.746.154,1.464,1.464,0,0,1-1.589-1.286,1.4,1.4,0,0,1,1.292-1.26l.2-.032-.021-.232c0-.035-.006-.066-.006-.1a1.532,1.532,0,0,1,1.66-1.35,1.978,1.978,0,0,1,.36.035l.024,0c.057.012.111.025.167.04l0,0a1.737,1.737,0,0,1,.545.266l.06.043c.024.02.047.04.07.062s.052.047.075.072.032.033.048.052a1.175,1.175,0,0,1,.107.135l0,0,.1.147.142-.077a3.133,3.133,0,0,1,1.473-.343,2.8,2.8,0,0,1,1.83.6l.137.123.124-.14a2.643,2.643,0,0,1,1.977-.778c.08,0,.158,0,.237.008l.147.017c.027,0,.055,0,.082.009.057.01.114.019.169.031l.054.011c.057.013.117.03.176.045l.035.01a1.75,1.75,0,0,1,1.418,1.474,1.5,1.5,0,0,1-.877,1.249l-.434.24.447.2c.543.242.864.586.864.921,0,.588-1.033,1.241-2.516,1.241a3.442,3.442,0,0,1-2.2-.665Zm7.01-2.184c0-1.465-1.318-2.869-3.523-3.756a.217.217,0,0,1-.108-.26.168.168,0,0,1,.2-.134l.019.005c2.387.96,3.755,2.471,3.755,4.146a.181.181,0,0,1-.147.2.175.175,0,0,1-.2-.154.218.218,0,0,1,0-.051Zm-8.682-2.889a3.91,3.91,0,0,0-.484.034,3.392,3.392,0,0,0-1.014.284,2.125,2.125,0,0,0-.192-.2l-.052-.044a1.964,1.964,0,0,0-.18-.135c-.017-.011-.031-.025-.049-.035a2.246,2.246,0,0,0-.543-.245l-.007,0C10.51,4.22,15.235.562,15.283.526,17.028-.856,19.635.823,19.1,1.7c-.019.043-1.927,4.52-2.814,12.864A3.584,3.584,0,0,0,15.9,14.5l-.058-.006a3.7,3.7,0,0,0-.393-.022,3.082,3.082,0,0,0-2.129.78A3.282,3.282,0,0,0,11.379,14.669ZM15.721,4.386a33.034,33.034,0,0,0-1.964,9.286c0,.131.2.25.2.25a.22.22,0,0,0,.2-.23,32.513,32.513,0,0,1,1.928-9.109c.036-.094-.18-.235-.3-.235a.066.066,0,0,0-.067.036ZM14,3.546a26.838,26.838,0,0,0-3.322,10.11.233.233,0,0,0,.182.263l.019,0a.219.219,0,0,0,.2-.216A26.171,26.171,0,0,1,14.326,3.82a.272.272,0,0,0-.05-.334.174.174,0,0,0-.114-.043A.2.2,0,0,0,14,3.546ZM2.473,13.779a.23.23,0,0,1,.063-.282,14.734,14.734,0,0,1,6.687-2.261.182.182,0,0,1,.186.18v.008a.2.2,0,0,1-.156.221,14.423,14.423,0,0,0-6.545,2.208.156.156,0,0,1-.236-.074Z"/></g></g></g></svg>