<svg xmlns="http://www.w3.org/2000/svg" width="212.639" height="212.602" viewBox="0 0 212.639 212.602">
  <g id="Groupe_17065" data-name="Groupe 17065" transform="translate(-13293.038 -1400.902)">
    <g id="Calque_2" data-name="Calque 2" transform="translate(13293.038 1400.902)">
      <path id="Tracé_5814" data-name="Tracé 5814" d="M13457.508,1776.46l-1.432,1.181a93.645,93.645,0,0,1-59.5,21.3h-.463a95.02,95.02,0,0,1-66.99-27.958c-35.272-35.157-37.937-89.966-6.22-127.491l1.2-1.423-5.69-5.735-1.432,1.688a100.064,100.064,0,0,0-18.142,31.48,101.666,101.666,0,0,0-5.781,36.142,103.7,103.7,0,0,0,103.069,101.328h.5a101.668,101.668,0,0,0,34.35-5.93,100.517,100.517,0,0,0,30.506-17.422l1.707-1.421Z" transform="translate(-13293.04 -1594.366)" fill="#d82558"/>
      <path id="Tracé_5815" data-name="Tracé 5815" d="M13610.739,1433.027a109.933,109.933,0,0,0-150.085-4.894l-.66.58,16.838,16.966.585-.5a85.889,85.889,0,0,1,120.672,121.571l-.5.58,16.829,16.96.583-.654a109.666,109.666,0,0,0-4.262-150.611Zm-10.9,134.228a87.547,87.547,0,0,0-122.916-123.825l-14.519-14.631a108.1,108.1,0,0,1,151.946,153.081Z" transform="translate(-13430.235 -1400.902)" fill="#fff"/>
    </g>
  </g>
  <g id="MODULE_INFO" transform="translate(-187.803 71.253)">
    <g id="PICTO_DISCUTEZ" transform="translate(266.219 -13.439)" style="isolation: isolate">
      <path id="PICTO_DISCUTEZ-2" data-name="PICTO_DISCUTEZ" d="M30.71,116l-.035-.014a6.543,6.543,0,0,1-2.623-2.035c-.24-.264-.487-.539-.759-.811-.362-.366-.744-.733-1.145-1.121-.431-.413-.875-.842-1.328-1.3-.347-.35-.727-.7-1.128-1.069-1.381-1.278-2.946-2.724-3.356-4.4a16.993,16.993,0,0,1,.019-4.615c.019-.213.035-.416.049-.594.091-1.1.115-2.275.14-3.417.07-3.222.143-6.55,1.629-8.662-2.1-1.292-3.693-5.8-3.017-8.736a3.513,3.513,0,0,1,3.674-2.944h.03a3.744,3.744,0,0,0-.4-.022,2.919,2.919,0,0,1-.359-.016,15.035,15.035,0,0,1-4.87-1.382,16.588,16.588,0,0,1-9.873-15l0-.11.083-.071a1.267,1.267,0,0,1,.978-.228c-.17-.321-.372-.64-.58-.969a5.517,5.517,0,0,1-1.225-3.8c.076-.34.283-.385.4-.385a.916.916,0,0,1,.269.055,1.1,1.1,0,0,0,.178.045,4.8,4.8,0,0,0-.808-1.371,3.249,3.249,0,0,1-.859-3.136l.013-.047.032-.036a.438.438,0,0,1,.334-.172.414.414,0,0,1,.221.065,3.638,3.638,0,0,0-.275-.539,4.161,4.161,0,0,0-.651-.744,2.033,2.033,0,0,1-.8-2.313,1.454,1.454,0,0,1,.547-.66c.208-.167.385-.31.423-.52.1-.574-.4-1.037-.923-1.524-.668-.621-1.427-1.326-.935-2.385a1.265,1.265,0,0,1,.708-.541c.2-.094.412-.187.468-.3-.01-.159-.013-.3-.019-.437-.008-.506-.024-.688-.266-.867a.976.976,0,0,0-.5-.119,1.3,1.3,0,0,1-.695-.177,2.147,2.147,0,0,1-.525-2.313,1.168,1.168,0,0,1,.6-.5,1.084,1.084,0,0,0,.526-.41,1.452,1.452,0,0,0-.057-1.406,2.082,2.082,0,0,0-1.773-.853l-.115,0-.062-.1c-.84-1.276-.054-1.954.523-2.453a1.721,1.721,0,0,0,.573-.671,1.86,1.86,0,0,0-.512-1.726,1.225,1.225,0,0,0-.469-.11,1.533,1.533,0,0,1-.99-.374c-.854-.895-.151-1.716.314-2.261a2.291,2.291,0,0,0,.388-.532,2.044,2.044,0,0,0-.2-1.7c-.043-.1-.087-.208-.132-.321a2.084,2.084,0,0,0-.472-.038c-.094,0-.191,0-.288,0-.177.006-.353.011-.514,0L.1,22.8l-.019-.189a4.2,4.2,0,0,1,0-.635,2.037,2.037,0,0,0-.054-.8L0,21.131V15.637C.135,8.512,5.3,5.518,10.867,3.339A52.546,52.546,0,0,1,27.211,0h3.835A22.738,22.738,0,0,1,41.284,2.824c5,2.932,5.809,5.389,5.958,7.2.073.868.062,1.7.051,2.574-.008.76-.019,1.544.025,2.421-.013.4-.382.43-.563.445-.03,0-.068.008-.1.011.035.426.084.835.129,1.236.062.52.124,1.056.154,1.622a1.9,1.9,0,0,0,.228-.076,1.733,1.733,0,0,1,.782-.121l.166.016.03.166a10.562,10.562,0,0,1,0,2.793l-.013.073-.055.054a1.3,1.3,0,0,1-.818.355c.046.706.122,1.39.192,2.056.026.224.051.447.073.67a2.52,2.52,0,0,0,.3-.1,2.359,2.359,0,0,1,.829-.2,1.12,1.12,0,0,1,.5.111l.1.047.022.109a11.576,11.576,0,0,1,.077,2.246l0,.1-.073.063A3.909,3.909,0,0,1,48,27.279c-.071.022-.141.047-.208.071.041.333.051.7.062,1.05.008.3.016.6.042.881.059,0,.126-.011.2-.019a2.345,2.345,0,0,1,.623-.008l.038.008a2.1,2.1,0,0,1,1.131,2.254,2.154,2.154,0,0,1-1.323,1.894c.035.183.048.378.065.568a5.2,5.2,0,0,0,.064.547,1.871,1.871,0,0,1,1.964,1.9,2.62,2.62,0,0,1-1.341,2.718,7.389,7.389,0,0,1,.164,1.113,1.6,1.6,0,0,1,1.374.428,3.553,3.553,0,0,1,.517,2.545l-.013.071a2.378,2.378,0,0,1-1.091,1.122c-.14.089-.272.176-.393.267a2.767,2.767,0,0,0,.094.657,2.367,2.367,0,0,1,1.791,1.22,2.719,2.719,0,0,1,.263,2.572,1.714,1.714,0,0,1-.894.74c-.465.232-.628.347-.541.687a2.2,2.2,0,0,0,.4.067,1.7,1.7,0,0,1,.733.189c.74.482.885,2.349.457,3.439a2.331,2.331,0,0,1-.667.87,1.087,1.087,0,0,0-.363.445c1.19.2,1.85,1.045,2.02,2.588l0,.022v1.134a3.914,3.914,0,0,1-.893,2.238,6.226,6.226,0,0,0-.4.654,5.854,5.854,0,0,0-.442,2.526c-.014.391-.027.8-.062,1.25-.234,2.881-2.453,4.8-4.6,6.286a35.386,35.386,0,0,1-6.887,3.491,7.57,7.57,0,0,1-.291,6.42,5.493,5.493,0,0,1-3.773,2.858l.008.031a3.54,3.54,0,0,0,.778,1.684,3.126,3.126,0,0,0,.568.426c.461.3.98.633,1.064,1.2a22.844,22.844,0,0,1-.008,4.078c-.024.414-.048.837-.064,1.255-.041.841-.019,1.721,0,2.57s.035,1.648,0,2.421c-.013.256-.025.525-.041.792-.083,1.7-.18,3.62.243,4.466l.025.054,0,.061a10.677,10.677,0,0,1-.183,1.191,8.617,8.617,0,0,0-.189,1.333,3.38,3.38,0,0,0,.3.175,1.107,1.107,0,0,1,.574.509,3.044,3.044,0,0,1-.38,2.807,3.894,3.894,0,0,0-.571,2.031l.013.132-.108.073a46.272,46.272,0,0,1-4.112,2.472c-.676.378-1.376.767-2.052,1.164l-.051.029ZM20.979,96.635c-.025,1.148-.049,2.333-.14,3.443-.017.179-.032.382-.051.6a17.311,17.311,0,0,0-.03,4.474c.378,1.548,1.891,2.946,3.227,4.177.407.377.789.731,1.142,1.086.447.453.891.878,1.32,1.29.4.391.789.757,1.155,1.129.278.279.528.557.77.821a6.2,6.2,0,0,0,2.413,1.909h.727c.666-.39,1.35-.77,2.012-1.138a46.162,46.162,0,0,0,3.973-2.378,4.454,4.454,0,0,1,.625-2.136c.4-.832.781-1.616.381-2.415a.7.7,0,0,0-.381-.319,2.346,2.346,0,0,1-.464-.293l-.03-.025v2.325l-7.686,3.905-5.064-5.732V91.642l4.751,2.424,8.217-3.529v.947a16.9,16.9,0,0,0-.04-3.031c-.055-.372-.464-.639-.865-.9a3.271,3.271,0,0,1-.655-.5,3.965,3.965,0,0,1-.878-1.867l-.137-.5.092-.014c.222-3.081-.034-5.052-.8-5.851-.062-.41.124-.566.531-.44.831.8,1.236,2.827,1.159,6.1a5.129,5.129,0,0,0,2.959-2.505,7.156,7.156,0,0,0,.183-6.24l-.026-.059a2.332,2.332,0,0,1-1.62-.413.913.913,0,0,1-.185-1.071,1.464,1.464,0,0,0,.218-.976V69.029q.234-1.75,2.157-1.514c.625-.061.97.539,1.032,1.862a15.368,15.368,0,0,1-.312,4.188,3.966,3.966,0,0,1-.969,1.807c.591-.244,1.168-.486,1.731-.731a3.861,3.861,0,0,0,1.329-2.082V67.609c.033-1.1.469-1.7,1.25-1.855.784-.094,1.282.126,1.5.785v4.6a3.177,3.177,0,0,1-.808,1.915c.629-.351,1.239-.728,1.829-1.139.321-.223.638-.452.948-.689L47.443,65.6a1.648,1.648,0,0,1,1.406-1.764c.563-.094.876.22.905,1.007V69a5.861,5.861,0,0,0,1.177-3.044c.038-.445.048-.843.061-1.228a6.3,6.3,0,0,1,.485-2.706,5.681,5.681,0,0,1,.439-.706,3.54,3.54,0,0,0,.816-1.99V58.2c-.156-1.4-.738-2.1-1.829-2.212l-.035,0c.771.881.973,1.492.638,1.83a24.68,24.68,0,0,1-8.471,4.093l-.531-2.772a32.88,32.88,0,0,0,7.313-3.115,10.086,10.086,0,0,0,.921-.619,1.57,1.57,0,0,1,.473-.6,1.865,1.865,0,0,0,.558-.706c.382-.97.223-2.575-.291-2.909a1.411,1.411,0,0,0-.539-.119,1.73,1.73,0,0,1-.56-.121c.744.629.907,1.09.465,1.446a24.241,24.241,0,0,1-8.78,3.746l-.436-2.8a29.261,29.261,0,0,0,8.5-3.213l.015.113c.084-.407.479-.6.787-.757a1.391,1.391,0,0,0,.7-.541,2.3,2.3,0,0,0-.245-2.145,1.859,1.859,0,0,0-1.573-1.019l-.073.006c.591.726.683,1.276.3,1.571a34.569,34.569,0,0,1-8.5,3.057l-.312-2.833a28.768,28.768,0,0,0,8.206-3.018V44.48l.081-.068c.164-.132.346-.245.517-.358a2.029,2.029,0,0,0,.9-.879,3.24,3.24,0,0,0-.4-2.183,1.316,1.316,0,0,0-1.228-.27l-.163.025a.5.5,0,0,0,.047.1c.408.159.534.475.408,1.007-.219.094-.437.189-.625.283A37.967,37.967,0,0,1,41.631,44.4c.657-2.077,1.436-3.338,2.343-3.715a26.626,26.626,0,0,0,4.85-1.7l-.048-.171.231-.043c.844-.167,1.307-1.325,1.212-2.305a1.493,1.493,0,0,0-1.432-1.509,1.68,1.68,0,0,0-.237.014L48.372,35l-.032-.1c-.116.063-.112.188.008.34.719.569.842.978.377,1.231a21.686,21.686,0,0,1-6.6,1.541,5.046,5.046,0,0,1-1.875-2.551,27.521,27.521,0,0,0,7.831-2.167l-.068-.216.247-.043a1.638,1.638,0,0,0,1.185-1.557,1.682,1.682,0,0,0-.832-1.791,2.091,2.091,0,0,0-.477.016c-.1.01-.2.024-.288.024a.466.466,0,0,1-.288-.077l-.042-.034a.29.29,0,0,0-.05.338c1.221-.032,1,.374-.718,1.2a24.724,24.724,0,0,1-7.811,1.638l-.6-3.213a43.253,43.253,0,0,0,8.985-2.333l-.026-.18.169-.062c.129-.045.259-.089.388-.131a3.917,3.917,0,0,0,1.048-.456,11.732,11.732,0,0,0-.057-1.92,1.485,1.485,0,0,0-.881.143,1.378,1.378,0,0,1-.689.142l-.16-.028-.011-.1a51.325,51.325,0,0,1-8.984,2l-.345-3.433,9.024-1.786c0-.008,0-.018,0-.026l-.013-.245.24.014a.98.98,0,0,0,.689-.2,10.213,10.213,0,0,0,.01-2.4,1.556,1.556,0,0,0-.426.106,1.825,1.825,0,0,1-.577.126l-.217.008-.006-.147a45,45,0,0,1-9.222,1.457l-.345-3.367L46.2,15.311l0-.062.072-.073a.682.682,0,0,1,.447-.144,1.531,1.531,0,0,0,.162-.023c-.041-.87-.033-1.653-.025-2.414.01-.867.022-1.685-.048-2.531-.236-2.825-2.393-4.746-4.73-6.239a9.622,9.622,0,0,1,3.023,3.8c.625,1.635.749,2.737.406,3.337-.875.378-1.721-.724-2.47-3.307a9.965,9.965,0,0,0-4.335-5.6A24.471,24.471,0,0,0,31.035.438H27.222a52.129,52.129,0,0,0-16.2,3.31C5.606,5.87.566,8.779.437,15.639v5.394A2.363,2.363,0,0,1,.512,22c0,.129-.01.258-.01.38.094,0,.192,0,.283-.007s.2,0,.3,0a2.07,2.07,0,0,1,.712.1l.091.036.036.089c.057.145.113.279.166.41A2.423,2.423,0,0,1,2.3,25.006a2.486,2.486,0,0,1-.465.674c-.549.644-.87,1.107-.334,1.673a1.191,1.191,0,0,0,.73.239,1.458,1.458,0,0,1,.662.184,2.287,2.287,0,0,1,.687,2.2,1.953,1.953,0,0,1-.711.891c-.555.48-1.034.895-.5,1.783A2.478,2.478,0,0,1,4.38,33.709a1.872,1.872,0,0,1,.089,1.82,1.417,1.417,0,0,1-.725.623c-.172.088-.355.182-.4.282a1.739,1.739,0,0,0,.375,1.772,1,1,0,0,0,.48.106,1.293,1.293,0,0,1,.727.2c.429.317.436.714.447,1.214,0,.138,0,.289.015.461l0,.038-.008.033c-.089.333-.423.484-.722.616-.212.1-.43.2-.493.329-.331.716.094,1.185.838,1.878.587.544,1.2,1.11,1.055,1.92a1.322,1.322,0,0,1-.58.785,1.147,1.147,0,0,0-.4.456c-.3.9.138,1.325.687,1.862a4.516,4.516,0,0,1,.714.823,5.385,5.385,0,0,1,.461.981c.07.178.14.363.228.555l.208.444-.466-.14a1.147,1.147,0,0,1-.493-.423,1.565,1.565,0,0,0-.231-.255,2.877,2.877,0,0,0,.808,2.673,4.551,4.551,0,0,1,.939,1.753l.036.154-.135.081a.631.631,0,0,1-.329.089,1.224,1.224,0,0,1-.356-.067c-.038-.011-.08-.025-.11-.033,0,.008-.006.014-.006.022A5.189,5.189,0,0,0,8.2,58.247a10.888,10.888,0,0,1,.846,1.519l.3.714-.627-.449a.983.983,0,0,0-.927-.068,16.176,16.176,0,0,0,9.623,14.507,14.714,14.714,0,0,0,4.73,1.338c.091.011.2.011.312.014.461,0,1.088.016,1.363.647l.159.355-.385-.051a6.058,6.058,0,0,0-.765-.051,3,3,0,0,0-2.857,1.55q1.184.15,3.188,4.93a10.864,10.864,0,0,1,.592,4.689q.983.712,3,0a3.946,3.946,0,0,1-4.1.161C21.121,90.033,21.051,93.387,20.979,96.635Zm8.651-.808.625,15.556L37,108.235l.623-1.38-.05-.042,0-.108c0-.16.015-.312.03-.461L34.817,107.6l-2.5-2.894v-4.159l3.221-1.2v1.765l2.155,2.453-2.782,1.261.657.818,2.307-.959c.032-.189.06-.381.079-.583-.445-.967-.35-2.828-.259-4.625.013-.27.026-.536.038-.795.032-.756.016-1.549,0-2.388-.022-.86-.041-1.746,0-2.6.016-.423.043-.846.064-1.259.008-.127.014-.255.021-.38ZM20.691,81.5c-.283.064-.439.345-.5.816A4.906,4.906,0,0,0,21,85.372c.312.347.592.5.813.442.28-.065.437-.315.466-.786a3.6,3.6,0,0,0-.092-1.609,4.639,4.639,0,0,0-.689-1.477c-.261-.317-.48-.457-.691-.457A.475.475,0,0,0,20.691,81.5Zm8.782,6.14V83.452A2.675,2.675,0,0,0,29,81.717a.336.336,0,0,1,0-.468c.124-.224.28-.285.468-.16a1.957,1.957,0,0,1,.782,1.732v4.818Zm1.562-10.991a2.14,2.14,0,0,0,.937-1.764V71.264c.094-1.543.782-2.3,2.031-2.268.937-.032,1.439.347,1.439,1.2v4.441c.093.755-.69,1.418-2.376,2.015Zm-6.782-.283a2.273,2.273,0,0,0,.5-1.825V72.333c.029-1.257.9-1.952,2.532-2.108,1.155-.189,1.813.347,1.9,1.666v3.531a1.251,1.251,0,0,1-1.185,1.165ZM21.6,66.572l-8.373-2.394-.407-2.2,8.53,1.638a7.136,7.136,0,0,0,2.815,0l14.78-3.025.347,2.55L24.316,66.51a6.235,6.235,0,0,1-1.507.185A5.994,5.994,0,0,1,21.6,66.572Zm-1.032-5.792-8.529-2.648-.312-1.761,8.842,1.384a7.743,7.743,0,0,0,3.062-.032l14.441-3.178.436,2.927L23.6,60.809a6.5,6.5,0,0,1-1.4.151A7.817,7.817,0,0,1,20.563,60.779Zm-.781-5.8L11.1,53.377l-.471-2.361,8.659.881a9.662,9.662,0,0,0,2.841-.127l15.095-3.3.44,3.178L22.754,54.827a8.734,8.734,0,0,1-1.945.242A5.911,5.911,0,0,1,19.783,54.983ZM19.285,49l-9.19-.818-.531-2.646,8.405.475a6.593,6.593,0,0,0,1.565-.064L31.1,43.9a4.457,4.457,0,0,1,3.967.664c1.253.816,1.253,1.479,0,1.921L21.033,49a4.012,4.012,0,0,1-1.747,0Zm16.593-5.416a4.358,4.358,0,0,1,0-5.481,3.172,3.172,0,0,1,2.378-1.131A3.23,3.23,0,0,1,40.661,38.1a4.358,4.358,0,0,1,0,5.481,3.233,3.233,0,0,1-2.405,1.134A3.175,3.175,0,0,1,35.878,43.582Zm.468-5.1a3.461,3.461,0,0,0-.843,2.395,3.515,3.515,0,0,0,.843,2.392,2.539,2.539,0,0,0,2.033.974,2.573,2.573,0,0,0,2.031-.974,3.662,3.662,0,0,0,.846-2.392,3.6,3.6,0,0,0-.846-2.395,2.609,2.609,0,0,0-2.031-1.01A2.573,2.573,0,0,0,36.346,38.481ZM17.5,43.206,9,42.828l-.624-3.245h8.467a12.283,12.283,0,0,0,1.846-.094l16.219-2.772A7.027,7.027,0,0,0,32.786,39.8c-.065.475-.876.945-2.408,1.417l-10.94,1.92a4.339,4.339,0,0,1-1.082.129A6.085,6.085,0,0,1,17.5,43.206Zm.061-6.141H7.908L7.189,33.6h9.437a5.6,5.6,0,0,0,1.625-.094l16.41-3.053.469,3.369L19.314,36.97a6.073,6.073,0,0,1-1.191.125A5.27,5.27,0,0,1,17.563,37.065ZM6.72,31.239,6.062,27.8,16.313,27.4a12.3,12.3,0,0,0,1.813-.218l15.6-3.278.5,3.463L18.627,30.953a10.009,10.009,0,0,1-2.375.286ZM4.937,22.17l10.471-1.165L32.845,17.7l.5,3.4-16,3.212-2.874.409-8.91.631Zm11.878-6.93c-.5-.284-.687-1.071-.468-2.333a5.782,5.782,0,0,0-1.094-3.935,6.124,6.124,0,0,0-3.625-2.708c-1.532-.44-1.878-.849-1.094-1.259a5.091,5.091,0,0,1,3.626-.064c1.657.38,3.124,1.891,4.436,4.535a9.558,9.558,0,0,1,.564,5.069,1.765,1.765,0,0,1-1.25,1.134A2.6,2.6,0,0,1,16.815,15.24Zm6.219-1.985a8.249,8.249,0,0,1-.814-3.368,6.452,6.452,0,0,0-2.157-4.315A9.2,9.2,0,0,0,15.438,3.21c3.971-.253,6.688.474,8.22,2.173a10.158,10.158,0,0,1,2.314,6.709,1.569,1.569,0,0,1-.876,2.045,1.288,1.288,0,0,1-.586.148A1.9,1.9,0,0,1,23.034,13.255Zm6.625-2.329a9.992,9.992,0,0,0-1.813-5.1A10.5,10.5,0,0,0,22.6,2.044a15.383,15.383,0,0,1,5.5.913,4.938,4.938,0,0,1,2.718,3.151,20.063,20.063,0,0,1,1.5,5.7c.094.917-.342,1.388-1.279,1.479a1.105,1.105,0,0,1-.164.012C30.135,13.3,29.747,12.481,29.659,10.926Zm5.376-.157c-.563-3.937-1.533-6.362-2.874-7.339a14.716,14.716,0,0,0-4.533-2.112c3.905.317,6.408,1.167,7.563,2.553a14.554,14.554,0,0,1,2.531,6.33c.094,1.324-.25,2.047-1.061,2.235C35.91,12.375,35.38,11.806,35.035,10.769Zm5.5.221c-.97-5.734-3.876-9.132-8.813-10.14a10.109,10.109,0,0,1,9,4.315,13.047,13.047,0,0,1,1.656,5.383c.062.378-.157.631-.593.849a1.159,1.159,0,0,1-.447.1A.963.963,0,0,1,40.535,10.99Z" transform="translate(0 0)" fill="#fff"/>
    </g>
  </g>
</svg>
