<svg transform="rotate(-30)" viewBox="20 30 400 400">
  <svg x="-10" height="400" width="200" fill="none">
  	<circle cx="205" cy="220" r="50%" stroke="#292f33" stroke-width="4"/>
  </svg>
  
<svg xmlns="http://www.w3.org/2000/svg" viewBox="-25 -16 60 60">
  <defs>
    <style>
      .cls-1{fill:#fff;opacity:0;}.cls-2{fill:#292f33; transform:rotate(30deg)}
    </style>
  </defs>
  <g id="Calque_2" data-name="Calque 2">
    <g id="Calque_1-2" data-name="Calque 1">
      <rect class="cls-1" width="24" height="24"/>
      <path class="cls-2" d="M5.64,21.56v-19h0V2.35h0A2.36,2.36,0,0,1,8,0H8a2.39,2.39,0,0,1,2.24,2.38c0,.05,0,.1,0,.14h0V21.62A2.38,2.38,0,0,1,8,24H8a2.37,2.37,0,0,1-2.31-2.38v-.06h0ZM6,9H6V21.73a2,2,0,0,0,2,1.91H8A2,2,0,0,0,9.88,21.7v-.12h0V6.28a0,0,0,0,0,0,0ZM6,8v.32h0L9.88,5.64h0V5.24h0L6,8ZM6,6.94v.41a0,0,0,0,0,0,0L9.88,4.6h0V4.26h0L6,6.94ZM6,6V6.3h0L9.88,3.62h0V3.23h0L6,6Zm0-.64L9.88,2.59h0A2,2,0,0,0,8,.41H8A2,2,0,0,0,6,2.51V5.34ZM7.16,11v2.66a.83.83,0,0,0,.8.83H8a.84.84,0,0,0,.81-.83v0h0V11A.84.84,0,0,0,8,10.18H8a.83.83,0,0,0-.8.83v0Z"/>
      <path class="cls-2" d="M13.72,21.56v-19h0V2.35h0A2.36,2.36,0,0,1,16.09,0h0a2.39,2.39,0,0,1,2.25,2.38c0,.05,0,.1,0,.14h0V21.62A2.38,2.38,0,0,1,16,24h0a2.37,2.37,0,0,1-2.31-2.38v-.06h0ZM14.12,9h0V21.73a2,2,0,0,0,2,1.91h0A2,2,0,0,0,18,21.7v-.12h0V6.28a0,0,0,0,0,0,0Zm0-.95v.32h0L18,5.64h0V5.24h0L14.12,8Zm0-1.06v.41a0,0,0,0,0,0,0L18,4.6h0V4.26h0L14.12,6.94Zm0-1V6.3h0L18,3.62h0V3.23h0L14.12,6Zm0-.64L18,2.59h0A2,2,0,0,0,16.05.41h0a2,2,0,0,0-1.93,2.1V5.34ZM15.24,11v2.66a.83.83,0,0,0,.8.83h0a.84.84,0,0,0,.81-.83v0h0V11a.84.84,0,0,0-.81-.83h0a.83.83,0,0,0-.8.83v0Z"/>
    </g>
  </g>
</svg>
  
  <svg x="210" height="400" width="200" fill="none">
  	<circle cx="-5" cy="220" r="50%" stroke="#292f33" stroke-width="30"/>
  </svg>
</svg>
