<svg xmlns="http://www.w3.org/2000/svg" viewBox="0 0 80 80">
  <defs>
    <style>
      .white{fill:#fff;}.pink{fill:#d82558;}
    </style>
  </defs>
  <g id="Calque_2" data-name="Calque 2">
    <g id="Calque_1-2" data-name="Calque 1">
      <path class="white" d="M61.39,70.27A36,36,0,0,1,38.22,78.5,36.73,36.73,0,0,1,12.33,67.7,36.27,36.27,0,0,1,9.94,18.43L8.87,17.36A37.29,37.29,0,0,0,0,42.42,38.46,38.46,0,0,0,38.23,80a37.48,37.48,0,0,0,24.23-8.66Z"/>
      <path class="pink" d="M39.39,0a41,41,0,0,0-27.8,10.21l5.93,6A32.8,32.8,0,0,1,63.61,62.63l5.93,6A41.18,41.18,0,0,0,39.39,0Z"/>
    </g>
  </g>
    <svg xmlns="http://www.w3.org/2000/svg" viewBox="-12 -15 50 50" fill="white">
    <defs>
      <style>
        .transparent{opacity:0;}
      </style>
    </defs>
    <g id="Calque_2" data-name="Calque 2">
      <g id="Calque_1-2" data-name="Calque 1">
        <rect class="transparent" width="24" height="24"/>
        <path d="M10.27,21.62A2.38,2.38,0,0,1,8,24H8a2.37,2.37,0,0,1-2.31-2.38V2.35h0A2.36,2.36,0,0,1,8,0H8a2.39,2.39,0,0,1,2.24,2.38C10.27,7.19,10.27,16.81,10.27,21.62ZM6,9H6V21.73a2,2,0,0,0,2,1.91H8A2,2,0,0,0,9.88,21.7v-.12h0V6.28a0,0,0,0,0,0,0ZM6,8v.32h0L9.88,5.64h0V5.24h0L6,8ZM6,6.94v.41a0,0,0,0,0,0,0L9.88,4.6h0V4.26h0L6,6.94ZM6,6V6.3h0L9.88,3.62h0V3.23h0L6,6Zm0-.64L9.88,2.59h0A2,2,0,0,0,8,.41H8A2,2,0,0,0,6,2.51V5.34Zm1.11,8.35a.83.83,0,0,0,.8.83H8a.84.84,0,0,0,.81-.83v0h0V11A.84.84,0,0,0,8,10.18H8a.83.83,0,0,0-.8.83Z"/>
        <path d="M18.27,21.62A2.38,2.38,0,0,1,16,24h0a2.37,2.37,0,0,1-2.31-2.38V2.35h0A2.36,2.36,0,0,1,16,0h0a2.39,2.39,0,0,1,2.24,2.38C18.27,7.19,18.27,16.81,18.27,21.62ZM14,9h0V21.73a2,2,0,0,0,2,1.91h0a2,2,0,0,0,1.85-1.94v-.12h0V6.28a0,0,0,0,0,0,0ZM14,8v.32h0l3.83-2.68h0V5.24h0L14,8Zm0-1.06v.41a0,0,0,0,0,0,0L17.88,4.6h0V4.26h0L14,6.94Zm0-1V6.3h0l3.83-2.68h0V3.23h0L14,6Zm0-.64,3.83-2.75h0A2,2,0,0,0,16,.41h0A2,2,0,0,0,14,2.51V5.34Zm1.11,8.35a.83.83,0,0,0,.8.83h0a.84.84,0,0,0,.81-.83v0h0V11a.84.84,0,0,0-.81-.83h0a.83.83,0,0,0-.8.83Z"/>
      </g>
    </g>
  </svg>
</svg>
