<svg xmlns="http://www.w3.org/2000/svg" viewBox="0 0 24 24"><defs><style>.transparent{opacity:0;}</style></defs><g id="Calque_2" data-name="Calque 2"><g id="Calque_1-2" data-name="Calque 1"><rect class="transparent" width="24" height="24"/><path d="M22.76,16.43c-.77-2.56-3.3-3.73-5.54-4.77l-.83-.39L16.7,11a.28.28,0,0,0,0-.38.26.26,0,0,0-.36,0l-6.13,5.57a.27.27,0,0,0,0,.38.28.28,0,0,0,.39,0l.5-.46c.15,1,1,5.4,4.85,7.13a3.76,3.76,0,0,0,1.62.33,5.69,5.69,0,0,0,3.7-1.46A5.23,5.23,0,0,0,22.76,16.43Zm-8.83-2.86a23.27,23.27,0,0,1,5.26,2.48,2.17,2.17,0,0,1,.95,1.79,2.69,2.69,0,0,1-1,2.06c-1.46,1.09-2.67,1-3.7-.24C14.31,18.25,13.6,14,13.6,13.91l0-.07.3-.29Zm7,8.13a4.69,4.69,0,0,1-4.74,1c-4-1.79-4.55-6.85-4.56-6.91a.25.25,0,0,0-.06-.14l1.59-1.43c.17,1,.85,4.44,2,5.77a2.92,2.92,0,0,0,2.22,1.19,3.78,3.78,0,0,0,2.22-.87,3.23,3.23,0,0,0,1.19-2.5,2.69,2.69,0,0,0-1.19-2.22,24.33,24.33,0,0,0-5.17-2.47L16,11.64l.08.06,1,.45c2.23,1,4.54,2.11,5.24,4.43A4.72,4.72,0,0,1,20.88,21.7Z"/><path d="M19.21,9a.27.27,0,1,0,.07-.53,5.56,5.56,0,0,0-3.68,1.3L9.48,15.36a.27.27,0,0,0,0,.38h0a.31.31,0,0,0,.2.09.29.29,0,0,0,.18-.07L16,10.21A5.15,5.15,0,0,1,19.21,9Z"/><path d="M15.27,9a.27.27,0,0,0-.38,0L8.77,14.58a.27.27,0,0,0,.36.4l6.12-5.57A.27.27,0,0,0,15.27,9Z"/><path d="M14.55,8.25a.26.26,0,0,0-.37,0h0L8.05,13.79a.28.28,0,0,0,0,.38.26.26,0,0,0,.37,0h0l6.12-5.56a.27.27,0,0,0,0-.38Z"/><path d="M13.81,7.43a.28.28,0,0,0-.38,0h0l-.31.28-.31-.87C12,4.51,11,1.89,8.55.89a5.24,5.24,0,0,0-5.79,1A5.19,5.19,0,0,0,1.17,7.09c1.38,4,5.67,5.23,6.67,5.47l-.5.46a.26.26,0,0,0,0,.37h0a.32.32,0,0,0,.2.08.24.24,0,0,0,.18-.07l6.09-5.58a.29.29,0,0,0,0-.39ZM8.14,12.08c-.05,0-5-1-6.46-5.16A4.7,4.7,0,0,1,3.13,2.29a4.73,4.73,0,0,1,5.22-.9c2.26.91,3.12,3.31,4,5.63l.36,1,.05.07-1.63,1.5a23.71,23.71,0,0,0-2-5.38A2.69,2.69,0,0,0,7,2.82a3.26,3.26,0,0,0-2.59,1C3,5.34,3,6.87,4.29,8.22s4.6,2.23,5.57,2.48L8.28,12.15A.27.27,0,0,0,8.14,12.08Zm2.17-1.8-.06,0c-.05,0-4.27-1.1-5.58-2.41-1.14-1.13-1.1-2.35.11-3.7a2.7,2.7,0,0,1,2.14-.78A2.16,2.16,0,0,1,8.61,4.49a23.44,23.44,0,0,1,2,5.47v0Z"/></g></g></svg>