<svg xmlns="http://www.w3.org/2000/svg" viewBox="0 0 24 24"><defs><style>.transparent{opacity:0;}</style></defs><g id="Calque_2" data-name="Calque 2"><g id="Calque_1-2" data-name="Calque 1"><rect class="transparent" width="24" height="24"/><g id="Groupe_16875" data-name="Groupe 16875"><path id="PICTO_LOCATION-2" data-name="PICTO LOCATION-2" d="M12,1.34a7.05,7.05,0,0,1,7,7.06c0,4.15-4.45,10.39-7.06,13.55C9.39,18.79,4.94,12.54,4.94,8.39a7.06,7.06,0,0,1,7.06-7h0m0,11.74A4.68,4.68,0,1,0,7.32,8.4,4.69,4.69,0,0,0,12,13.08M12,0A8.39,8.39,0,0,0,3.6,8.39h0C3.6,14.7,12,24,12,24s8.4-9.3,8.4-15.6A8.39,8.39,0,0,0,12,0h0Zm0,11.75A3.35,3.35,0,1,1,15.35,8.4,3.35,3.35,0,0,1,12,11.75Z"/></g></g></g></svg>