<svg xmlns="http://www.w3.org/2000/svg" viewBox="0 0 24 24"><defs><style>.transparent{opacity:0;}</style></defs><g id="Calque_2" data-name="Calque 2"><g id="Calque_1-2" data-name="Calque 1"><rect class="transparent" width="24" height="24"/><path d="M16.59.06l.11,0Z"/><path d="M6.3.07l.14,0Z"/><path d="M22,14.26h0V4a2,2,0,0,0-2-2H17.3V4.34a1,1,0,0,1-.88,1.08h0a1,1,0,0,1-.89-1.08V2H7.42V4.35a1,1,0,0,1-.88,1.08h0a1,1,0,0,1-.88-1.08V2H2A2,2,0,0,0,0,4V20a2,2,0,0,0,2,2H14.26a5.52,5.52,0,0,0,8.85-.49A5.12,5.12,0,0,0,24,19.16,5.59,5.59,0,0,0,22,14.26ZM13.61,21H2a1,1,0,0,1-1-1V8H21v5.6A5.48,5.48,0,0,0,13.61,21Zm9.07-1.83a4.23,4.23,0,1,1-4.85-4.84A4.25,4.25,0,0,1,22.68,19.16Z"/></g></g></svg>