<svg xmlns="http://www.w3.org/2000/svg" viewBox="0 0 14 14.433">
  <g id="Groupe_16234" data-name="Groupe 16234" transform="translate(0 14.433) rotate(-90)">
    <path id="Tracé_5546" data-name="Tracé 5546" d="M-166.617-57.814a5.937,5.937,0,0,1-8.386,0,5.937,5.937,0,0,1,0-8.386,5.937,5.937,0,0,1,8.386,0,.537.537,0,0,0,.759,0,.537.537,0,0,0,0-.759,7.011,7.011,0,0,0-9.9,0,7.011,7.011,0,0,0,0,9.9,6.98,6.98,0,0,0,4.952,2.048,6.983,6.983,0,0,0,4.952-2.048.537.537,0,0,0,0-.759A.537.537,0,0,0-166.617-57.814Z" transform="translate(177.81 69.007)"/>
    <path id="Tracé_5547" data-name="Tracé 5547" d="M-150.3-48.609l.286-.286-.285-.285-.008-.01-.009-.007-1.765-1.766a.417.417,0,0,0-.589,0,.417.417,0,0,0,0,.589l1.062,1.063h-3.631a2.5,2.5,0,0,0-2.459-2.08,2.5,2.5,0,0,0-2.5,2.5,2.5,2.5,0,0,0,2.5,2.5,2.5,2.5,0,0,0,2.459-2.08h3.631l-1.062,1.063a.417.417,0,0,0,0,.589.416.416,0,0,0,.295.122.415.415,0,0,0,.295-.122l1.766-1.767.009-.007Z" transform="translate(164.448 55.895)"/>
  </g>
</svg>
