<svg xmlns="http://www.w3.org/2000/svg" viewBox="0 0 46 46"><g id="Calque_2" data-name="Calque 2"><g id="Calque_1-2" data-name="Calque 1"><g id="Ellipse_185" data-name="Ellipse 185" opacity="0.85"><circle cx="23" cy="23" r="23" fill="#fff"/></g><g id="noun_edit_2341562" data-name="noun edit 2341562"><g id="Groupe_16270" data-name="Groupe 16270"><path id="Tracé_5553" data-name="Tracé 5553" d="M28.13,24.66a.708.708,0,0,1,1.416,0v3.645a1.865,1.865,0,0,1-1.859,1.859H18.659A1.865,1.865,0,0,1,16.8,28.305V19.216a1.865,1.865,0,0,1,1.859-1.859h3.884a.708.708,0,0,1,0,1.416H18.659a.444.444,0,0,0-.443.443v9.088a.444.444,0,0,0,.443.443h9.028a.444.444,0,0,0,.443-.443Zm.711-8,1.751,1.751a.577.577,0,0,1,0,.814l-.236.236L27.79,16.896l.236-.236a.577.577,0,0,1,.814,0Zm1.111,3.2-4.811,4.815L22.576,22.11l4.812-4.811,2.565,2.565Zm-5.279,5.152-2.809.4.369-2.837Z" fill="#292f33"/></g></g></g></g></svg>