<svg xmlns="http://www.w3.org/2000/svg" viewBox="0 0 24 24"><defs><style>.transparent{opacity:0;}.white{fill:#fff;}</style></defs><g id="Calque_2" data-name="Calque 2"><g id="Calque_1-2" data-name="Calque 1"><rect class="transparent" width="24" height="24"/><path class="white" d="M12,24A12,12,0,0,1,7.26,1l.08,0A11.77,11.77,0,0,1,12,0a12,12,0,0,1,4.8,23l-.07,0A11.92,11.92,0,0,1,12,24ZM8.88,10.26a.24.24,0,0,0-.24.24h0v2h0a.24.24,0,0,0,.24.24h1.57V17.8h0a.24.24,0,0,0,.24.24h2.05A.24.24,0,0,0,13,17.8h0V12.75h1.84a.24.24,0,0,0,.24-.24h0v-2h0a.24.24,0,0,0-.24-.24H13V9.08c0-.56.13-.84.86-.84h1.05A.25.25,0,0,0,15.13,8h0V6.13h0A.24.24,0,0,0,15.06,6h0a.24.24,0,0,0-.17-.07H13.17a2.73,2.73,0,0,0-2,.83h0a2.8,2.8,0,0,0-.77,1.94,1.93,1.93,0,0,0,0,.24h0v1.38Z"/></g></g></svg>