<svg xmlns="http://www.w3.org/2000/svg" width="60.548" height="68" viewBox="0 0 60.548 68">
  <path id="PICTO_EMPREINTE" d="M52.835,10.4a1.55,1.55,0,0,1-.774-.2A38.177,38.177,0,0,0,33.321,5.4a38.174,38.174,0,0,0-18.74,4.794,1.7,1.7,0,0,1-2.288-.68A1.731,1.731,0,0,1,12.966,7.2a42.415,42.415,0,0,1,40.643-.034,1.673,1.673,0,0,1,.707,2.278,1.648,1.648,0,0,1-1.48.952ZM4.69,28.248a1.74,1.74,0,0,1-.976-.306,1.707,1.707,0,0,1-.4-2.38A34.9,34.9,0,0,1,15.927,14.444a38.474,38.474,0,0,1,34.688-.034A35.027,35.027,0,0,1,63.231,25.46a1.712,1.712,0,0,1-.4,2.38,1.667,1.667,0,0,1-2.355-.408,31.684,31.684,0,0,0-11.406-10,35.121,35.121,0,0,0-31.626.034A32.02,32.02,0,0,0,6,27.534a1.463,1.463,0,0,1-1.312.714ZM25.718,69.286a1.57,1.57,0,0,1-1.178-.51A34.335,34.335,0,0,1,17.777,59.8a30.437,30.437,0,0,1-3.533-14.756c0-10.1,8.546-18.326,19.043-18.326S52.33,34.946,52.33,45.044a1.682,1.682,0,1,1-3.364,0c0-8.228-7.032-14.926-15.678-14.926s-15.678,6.7-15.678,14.926a26.862,26.862,0,0,0,3.129,13.09,32.145,32.145,0,0,0,6.224,8.228,1.759,1.759,0,0,1,0,2.414A1.835,1.835,0,0,1,25.718,69.286ZM49.841,63A18.006,18.006,0,0,1,31.4,45.044a1.682,1.682,0,1,1,3.364,0A14.573,14.573,0,0,0,49.841,59.562a22.01,22.01,0,0,0,3.5-.34,1.707,1.707,0,0,1,.572,3.366A22.741,22.741,0,0,1,49.841,63Zm-6.763,7a1.949,1.949,0,0,1-.437-.068,26.183,26.183,0,0,1-12.516-7.14,24.941,24.941,0,0,1-7.3-17.748,10.2,10.2,0,0,1,10.363-10,10.2,10.2,0,0,1,10.363,10,7.01,7.01,0,0,0,14,0c0-12.818-10.934-23.222-24.392-23.222a24.535,24.535,0,0,0-22.239,13.7,22.068,22.068,0,0,0-1.985,9.52,34.107,34.107,0,0,0,2.254,12.274,1.674,1.674,0,1,1-3.129,1.19A38.233,38.233,0,0,1,5.6,45.044,25.772,25.772,0,0,1,7.886,34.028a27.892,27.892,0,0,1,25.267-15.64c15.308,0,27.757,11.934,27.757,26.622a10.369,10.369,0,0,1-20.725,0,6.806,6.806,0,0,0-7-6.6,6.806,6.806,0,0,0-7,6.6A21.526,21.526,0,0,0,32.48,60.344a22.82,22.82,0,0,0,11,6.29,1.69,1.69,0,0,1,1.178,2.074A1.645,1.645,0,0,1,43.078,70Z" transform="translate(-2.997 -2)" fill="#fff"/>
</svg>
