 <svg xmlns="http://www.w3.org/2000/svg" width="36.267" height="68" viewBox="0 0 36.267 68">
  <path id="PICTO_CREATION_STAGE" d="M50.329,37.747V13.676a2.027,2.027,0,0,0,2.04-2.031,2.06,2.06,0,0,0-2.04-2.031H48.667V4.8H39.373V9.614H37.938a2.031,2.031,0,1,0,0,4.062V37.747a18.057,18.057,0,0,0,6.2,35.053h0a18.062,18.062,0,0,0,6.2-35.053ZM46.173,64.3A1.806,1.806,0,1,1,47,66.707,1.792,1.792,0,0,1,46.173,64.3Zm8.538-11.509a.726.726,0,1,1,.3.978A.791.791,0,0,1,54.711,52.791ZM38.467,38.349l.227-.075V12.924h-.756a1.337,1.337,0,0,1-1.284-1.354,1.321,1.321,0,0,1,1.284-1.279H50.329a1.254,1.254,0,0,1,.907.376,1.426,1.426,0,0,1,.378.978,1.321,1.321,0,0,1-1.284,1.279h-.756v25.35l.227.075a17.186,17.186,0,0,1,9.9,8.726,2.949,2.949,0,0,1-2.191.9c-2.72,0-2.8-2.858-5.516-2.858s-2.72,2.858-5.516,2.934c-2.72,0-2.8-2.858-5.516-2.858s-2.72,2.858-5.516,2.934c-2.72,0-2.8-2.858-5.516-2.858a1.291,1.291,0,0,0-.529.075A18.673,18.673,0,0,1,38.467,38.349Zm3.1,14.969a2.98,2.98,0,1,1-4,1.354A2.928,2.928,0,0,1,41.564,53.318Zm-2.342-4.363a1.806,1.806,0,0,1,3.249,1.58,1.806,1.806,0,0,1-3.249-1.58Zm-6.649.376a.726.726,0,0,1-1.284-.677.684.684,0,0,1,.982-.3A.791.791,0,0,1,32.573,49.331Zm11.56,23.093Z" transform="translate(-26 -4.8)" fill="#fff"/>
</svg>
