<svg xmlns="http://www.w3.org/2000/svg" width="28" height="22" viewBox="0 0 28 22">

  <path id="Tracé_5265" data-name="Tracé 5265" d="M14.362,16.808a2.026,2.026,0,1,1,2.026,2.07,2.049,2.049,0,0,1-2.026-2.07Zm21.745-4.74a2.96,2.96,0,0,1,.655,1.866V30.067A2.9,2.9,0,0,1,33.892,33H11.632a2.9,2.9,0,0,1-2.87-2.933V13.934A2.9,2.9,0,0,1,11.632,11h22.26a2.821,2.821,0,0,1,1.826.669,2.919,2.919,0,0,1,.389.4Zm-25.79,1.866v15.5l5.1-5.212a.806.806,0,0,1,1.157,0L22.517,30.3a.613.613,0,0,0,.88,0,.646.646,0,0,0,0-.9l-2.676-2.735,8.017-8.192a.806.806,0,0,1,1.157,0L35.21,23.9v-9.97a1.35,1.35,0,0,0-.357-.92c-.01-.011-.018-.025-.028-.035s-.023-.018-.034-.029a1.291,1.291,0,0,0-.9-.365H11.632a1.3,1.3,0,0,0-.931.4,1.36,1.36,0,0,0-.384.953Z" transform="translate(-8.762 -11)" fill="#292f33"/>

</svg>