<svg xmlns="http://www.w3.org/2000/svg" viewBox="0 0 24 24" height="20" ><g id="Calque_2" data-name="Calque 2"><g id="Calque_1-2" data-name="Calque 1"><path d="M12,0A12,12,0,0,0,.4,9,18.51,18.51,0,0,1,2.05,5.81C2.77,4.57,3,4.69,4,4.29a8.22,8.22,0,0,0,1.73-1,4,4,0,0,1,1.58-.43,20.36,20.36,0,0,0,2.33-.44,4.19,4.19,0,0,1,1-.09c.56,0,1,.07.86.19s-.8.77-1.27,1.15a3.86,3.86,0,0,1-1.58.52c-.28.07-1.27.66-1.68.5S6.86,4,6.86,3.57s-.74-.27-1.11.1.3.62.21,1-.62.43-1.11.12-1.21.44-1.56.59l-.11.09a.74.74,0,0,0,0,1h0c.34.37.5-.25.77-1s.78-.46,1.31.12.59.46.49,1-.4.1-.87,0,.22.68-.46.8-.71.5-1.33.87A3.54,3.54,0,0,0,1.93,9.81C1.65,10.27,2,11,1.74,11s-.15-.69-.24-.75-.69.65-.66,1.12.28.31.62.87.19.65.56.9a.67.67,0,0,0,.5.07,1,1,0,0,1,.68.11,2.81,2.81,0,0,1,1.09,1A3.92,3.92,0,0,0,6,15.58c.84.34.81.81.59,1.46s0,1.24-.15,1.7c-.09.21-.27.2-.43.18s-.38,0-.38.32c0,.65-.43.65-.34,1.49s2.05,2.51.77,1.61a9.09,9.09,0,0,1-2.66-4.22A8.4,8.4,0,0,0,2.52,16c-.34-.56.06-.87-.34-.87s-.47,0-.47-.49.25-.68.13-1a4.59,4.59,0,0,0-1-1.43C.22,11.7.47,11.08.29,10a2,2,0,0,1,.07-.83A11.81,11.81,0,0,0,0,12,12,12,0,1,0,12,0Zm6.9,18.8h0c-.31.4-.49.12-.37-.18a4.61,4.61,0,0,1,.34-.93,1,1,0,0,1,.65-.5h0C19.84,17.18,19.19,18.41,18.9,18.8Zm1.58-6.58h0c-.49.35-1,1.34-1.3.75s-.74-1.49-1-2-.56-1.09-.46-.56S18.21,13,19,13.16s1.14.09,1,.46-1.31,1.33-1.4,2.17.42,1.34-.1,1.8a5,5,0,0,0-1.17,1.74c-.18.5-1.89,1.71-2.29,1.46s-.72-1.46-.84-2,.43-1.27.31-1.83a6.89,6.89,0,0,0-.81-2.42,1.17,1.17,0,0,0-.71-.17l-.81,0A2.5,2.5,0,0,1,10,13.47a6.82,6.82,0,0,1-.34-2.08A1.71,1.71,0,0,1,10.27,10c.41-.37.62-.93.88-1.11s1.23-.29,1.57-.47,1-.62,1.21-.06a1.53,1.53,0,0,0,1,1c.31.06,1.62,0,1.93.09s1-.06.8-.4-1.08-.4-1.3-.71a.73.73,0,0,0-.14-.16,2.36,2.36,0,0,1,.87.13,2.13,2.13,0,0,0,1,.12.6.6,0,0,0,.34-.16c.79.88.45,2,1.13,1.93l.14,0c0,.06,0,.18.1.31.25.31.84.34,1,.65A.84.84,0,0,1,20.48,12.22Zm2.45.07h0c-.07.46-.1,1.58-.1,1.58a8.55,8.55,0,0,1-.8-1.8c-.09-.54-.42-1.18-.75-1.18h0A1.24,1.24,0,0,1,20,10.4c-.11-.18-.21-.27-.27-.28.5-.27.43-1.32-.21-1.93s-.27-1.89-.86-1.65-1,.46-.92.83l-.24-.13c-.9-.41-1.31-.89-1.72-.14s-.48,1.3.19,1.11a.92.92,0,0,0-.09.23c-.1.34-.65-.27-.84-.34s-.17.1-.26.23-.24.34-.33.14.22-.27-.12-.71-.5-.62-1-.44a1.37,1.37,0,0,0-.9.75c-.12.34-.8.56-1,.53a1.18,1.18,0,0,1-.59-.9c0-.34.59-.62,1-.56s-.06-.25-.13-.56.78-.59,1-.68.09-.9.68-.65a2.17,2.17,0,0,0,1.15.28c.37,0,1,0,.8-.41S15.7,4,15.3,4.19s-.25.47-.53.68a1.12,1.12,0,0,1-1,.07c-.31-.13-.84-.19-.47-.44a8.44,8.44,0,0,1,1.18-.8c.47-.22,1.06-.59,1.58-.1a1.56,1.56,0,0,0,1.12.59c.2,0,.36-.13.52-.29s.35-.38.53-.27c.34.22-.31.66.5.59a11.36,11.36,0,0,0,1.74-.15C21.28,3.91,23.21,8,23.21,8l.46,3.25A1.16,1.16,0,0,0,22.93,12.29Z"/><path d="M.36,9.13c0-.05,0-.11,0-.17S.37,9.08.36,9.13Z"/></g></g></svg>