<svg xmlns="http://www.w3.org/2000/svg" width="20" height="20" viewBox="0 0 20 20" fill="#ffffff">
  <g id="Groupe_131" data-name="Groupe 131" transform="translate(0 0)">
    <path id="Tracé_2562" data-name="Tracé 2562" d="M421.171,397.561c-1.215-.561-1.777-1.215-2.338-.187-.6,1.1-.654,1.777.28,1.5s1.777.467,2.806.281S422.386,398.123,421.171,397.561Z" transform="translate(-406.641 -391.518)" fill="#292f33"/>
    <path id="Tracé_2563" data-name="Tracé 2563" d="M383.318,436.489c-1.218-.051-2.525,1.309-2.15,2.244s1.5-.374,2.525-.28S385.563,436.582,383.318,436.489Z" transform="translate(-372.896 -427.006)" fill="#292f33"/>
    <path id="Tracé_2564" data-name="Tracé 2564" d="M434.624,398.042c-1.172.492-1.849.935-.55,2.151s.735,2.9,1.719,2.806.981-1.777,0-2.712S435.429,397.7,434.624,398.042Z" transform="translate(-419.657 -393.193)" fill="#292f33"/>
    <path id="Tracé_2565" data-name="Tracé 2565" d="M310.259,347.381a10,10,0,1,0,10,10A10.011,10.011,0,0,0,310.259,347.381Zm-4.2,3.883c-.336-.129-.078-.543-.078-.9s-.62-.233-.93.078.259.517.181.8-.517.362-.931.1-1.008.362-1.292.491a.608.608,0,0,0-.129.93c.284.31.414-.207.646-.8s.646-.388,1.086.1.491.388.414.827-.336.078-.724.026.181.569-.387.672-.595.414-1.112.724a2.971,2.971,0,0,0-.931,1.241c-.233.388.052.982-.155.956s-.129-.569-.207-.62-.569.543-.543.93.233.259.517.724.155.543.465.75.517-.1.982.155a2.319,2.319,0,0,1,.9.8,3.315,3.315,0,0,0,1.422,1.112c.7.284.672.672.491,1.215s.026,1.034-.129,1.421-.672-.129-.672.413-.362.543-.284,1.241,1.706,2.093.646,1.344a7.585,7.585,0,0,1-2.223-3.515,6.7,6.7,0,0,0-.724-1.732c-.284-.465.052-.724-.284-.724s-.388-.026-.388-.414.207-.569.1-.8a3.77,3.77,0,0,0-.853-1.189c-.491-.491-.284-1.008-.439-1.938s.879-2.43,1.473-3.464.775-.93,1.6-1.267a6.831,6.831,0,0,0,1.447-.853,3.376,3.376,0,0,1,1.318-.362,16.953,16.953,0,0,0,1.939-.362c.595-.155,1.784-.078,1.551.078s-.672.646-1.06.956a3.271,3.271,0,0,1-1.318.44C307.218,350.9,306.391,351.393,306.055,351.264Zm9.951,11.786c-.259.336-.414.1-.31-.155a3.435,3.435,0,0,1,.284-.775.835.835,0,0,1,.543-.414C316.833,361.628,316.264,362.714,316.006,363.05Zm3.36-5.428c-.052.388-.078,1.318-.078,1.318a7.22,7.22,0,0,1-.672-1.5c-.077-.465-.362-1.008-.646-.982a1.021,1.021,0,0,1-1.008-.414c-.258-.414-.413-.207-.207.051s.7.284.8.543a.7.7,0,0,1-.233.927c-.414.288-.827,1.115-1.086.624s-.62-1.241-.827-1.628-.465-.9-.388-.465.414,2.119,1.034,2.249.956.078.853.388-1.086,1.111-1.163,1.809.349,1.111-.084,1.5a4.181,4.181,0,0,0-.975,1.447c-.155.413-1.577,1.421-1.913,1.215s-.594-1.215-.7-1.654.362-1.06.258-1.525a5.957,5.957,0,0,0-.672-2.016c-.284-.207-.646-.129-1.266-.129a2.074,2.074,0,0,1-1.783-.775,5.418,5.418,0,0,1-.284-1.732,1.406,1.406,0,0,1,.491-1.137c.336-.31.514-.775.735-.93s1.022-.233,1.307-.388.853-.517,1.008-.052a1.247,1.247,0,0,0,.827.8c.259.052,1.344.026,1.6.077s.853-.052.672-.336-.9-.336-1.085-.594-.284-.181-.362.1-.543-.226-.7-.281-.362.591-.491.307.181-.233-.1-.594-.414-.517-.827-.362a1.1,1.1,0,0,0-.75.62c-.1.284-.672.466-.827.44a.96.96,0,0,1-.491-.75c.026-.284.491-.517.853-.465s-.052-.207-.1-.465.646-.491.827-.569.078-.75.569-.543a1.744,1.744,0,0,0,.956.233c.31-.026.8-.026.672-.336s.233-.9-.1-.775-.207.388-.439.568a.958.958,0,0,1-.879.052c-.258-.1-.7-.155-.388-.362a7.288,7.288,0,0,1,.982-.672c.388-.181.879-.491,1.318-.077a1.32,1.32,0,0,0,.93.491c.362.052.595-.646.879-.465s-.258.543.414.491a9.678,9.678,0,0,0,1.447-.129c.724-.129,2.326,3.283,2.326,3.283l.388,2.714A.964.964,0,0,0,319.366,357.622Z" transform="translate(-300.259 -347.381)" fill="#292f33"/>
  </g>
</svg>
