<svg xmlns="http://www.w3.org/2000/svg" viewBox="0 0 24 24"><g id="Calque_" data-name="Calque 2"><g id="Calque_1-2" data-name="Calque 1"><rect width="24" height="24" opacity="0"/><path id="PICTO_INFOS_SANITAIRE" data-name="PICTO INFOS SANITAIRE" d="M2.91021,23.99915A.89406.89406,0,0,1,2,23.1265V1.7453A.89405.89405,0,0,1,2.91021.87182H8.36383V0h7.27488V.87182h5.45447A.894.894,0,0,1,22,1.7453v21.382A.894.894,0,0,1,21.09064,24ZM3.81872,3.48978V21.3812a.89246.89246,0,0,0,.90936.86934H19.27277a.894.894,0,0,0,.90936-.87348V3.48978a.89405.89405,0,0,0-.90936-.87265H15.63533v.87265H8.36044V2.61713H4.723A.89391.89391,0,0,0,3.81872,3.48978ZM10.29,16.71355V14.5282H8.01785V11.24934H10.29V9.06565h3.4175v2.18369H15.983v3.278H13.70748v2.18535Z"/></g></g></svg>