<svg xmlns="http://www.w3.org/2000/svg" viewBox="0 0 40 40">
  <defs>
    <style>
      .white {
        fill: #fff;
      }

      .grey {
        fill: #292f33;
        fill-rule: evenodd;
      }
    </style>
  </defs>
  <g id="Calque_2" data-name="Calque 2">
    <g id="Calque_1-2" data-name="Calque 1">
      <g id="Composant_99_24" data-name="Composant 99 24">
        <path id="Soustraction_21-2" data-name="Soustraction 21-2" class="grey"
          d="M20,40a20,20,0,1,1,14.14-5.86h0A19.89,19.89,0,0,1,20,40Z" />
      </g>
      <path id="path" class="white"
        d="M20,15.49a5.26,5.26,0,0,0-4.78-3.19,4.69,4.69,0,0,0-4.78,4.59v.19c0,3.75,4,6.65,9.56,12.22,5.53-5.57,9.56-8.47,9.56-12.22A4.68,4.68,0,0,0,25,12.3h-.19A5.25,5.25,0,0,0,20,15.49Z" />
    </g>
  </g>
</svg>