<svg xmlns="http://www.w3.org/2000/svg" viewBox="0 0 24 24"><defs><style>.transparent{opacity:0;}</style></defs><g id="Calque_2" data-name="Calque 2"><g id="Calque_1-2" data-name="Calque 1"><rect class="transparent" width="24" height="24"/><path d="M22.23,3.53a6.39,6.39,0,0,0-4.46-1.95h-.25A7,7,0,0,0,12,4.35,7,7,0,0,0,6.49,1.58,6.37,6.37,0,0,0,0,7.83v.22c0,3.84,3,6.76,7.64,11.18,1.14,1.1,2.38,2.29,3.69,3.61a.94.94,0,0,0,1.34,0c1.29-1.3,2.52-2.48,3.69-3.61C21,14.81,24,11.89,24,8.07A6.38,6.38,0,0,0,22.23,3.53ZM15.06,17.87,15,18c-.93.9-1.93,1.85-3,2.89-1.08-1.07-2.1-2.05-3.06-3C4.69,13.79,1.88,11.09,1.88,8V7.85A4.51,4.51,0,0,1,6.37,3.46h.09a5.11,5.11,0,0,1,4.67,3.12.94.94,0,0,0,.87.54.9.9,0,0,0,.86-.54,5.14,5.14,0,0,1,4.68-3.12h.19a4.49,4.49,0,0,1,4.39,4.59C22.12,11.09,19.31,13.79,15.06,17.87Z"/></g></g></svg>