<svg xmlns="http://www.w3.org/2000/svg" viewBox="0 0 24 24"><defs><style>.cls-1{opacity:0;}</style></defs><g id="Calque_2" data-name="Calque 2"><g id="Calque_1-2" data-name="Calque 1"><rect class="cls-1" width="24" height="24"/><path id="PICTO_ACTIVITE-2" data-name="PICTO ACTIVITE-2" d="M0,12.845a.42315.42315,0,0,0,.41685.427H2.9c2.75361,5.103,8.55293,9.03156,8.866,9.24508a.44353.44353,0,0,0,.45914,0c.31307-.21352,6.11239-4.14211,8.86662-9.24508H23.574a.427.427,0,0,0,0-.85409H21.52929a10.2402,10.2402,0,0,0,1.02265-4.25128,6.08153,6.08153,0,0,0-6.00773-6.14779,5.98913,5.98913,0,0,0-4.52837,2.114A5.91986,5.91986,0,0,0,7.48748,2.01886,6.08151,6.08151,0,0,0,1.47942,8.16665a10.243,10.243,0,0,0,1.022,4.24888H.45678a.43367.43367,0,0,0-.45618.4099ZM11.99571,21.6618c-1.064-.76862-5.65388-4.1634-8.13608-8.36969H5.40346a.40689.40689,0,0,0,.29209-.128l2.08636-2.13523,2.12773,2.17781a.392.392,0,0,0,.39646.10676.41716.41716,0,0,0,.29181-.29989l.87657-3.39478,1.27275,6.23446a.42406.42406,0,0,0,.39647.34158h0a.40427.40427,0,0,0,.39646-.32029l.79293-3.11737h1.52285a.427.427,0,0,0,.41715-.36287l.33408-2.07106.709,4.1634a.41325.41325,0,0,0,.75123.17094l1.00134-1.36661h1.064C17.6487,17.4987,13.08014,20.89349,11.99571,21.6618ZM2.29449,8.16665a5.14915,5.14915,0,0,1,9.36743-3.09578.41173.41173,0,0,0,.66754,0,5.1437,5.1437,0,0,1,4.19311-2.19911A5.23433,5.23433,0,0,1,21.696,8.16625v.0004a9.498,9.498,0,0,1-1.1261,4.24888H18.83773a.43241.43241,0,0,0-.33379.17094l-.5422.74733L17.0021,7.65444a.42674.42674,0,0,0-.41686-.36286h0a.42825.42825,0,0,0-.41744.36286l-.667,4.20629H14.01969a.40487.40487,0,0,0-.39676.32029l-.41685,1.6653L11.95434,7.63316a.424.424,0,0,0-.39676-.34158.44532.44532,0,0,0-.41685.32028L9.993,12.03167l-1.89863-1.943a.39738.39738,0,0,0-.56149-.023l-.023.023L5.25743,12.39454H3.42151A9.3366,9.3366,0,0,1,2.29449,8.16665Z"/></g></g></svg>