<svg xmlns="http://www.w3.org/2000/svg" viewBox="0 0 24 24"><g id="Calque_2" data-name="Calque 2"><g id="Calque_1-2" data-name="Calque 1"><path d="M22.29,1.88A6.07,6.07,0,0,0,18,0h-.25A6.8,6.8,0,0,0,12,3.27,6.81,6.81,0,0,0,6.25,0,6.15,6.15,0,0,0,0,6v.23C0,10,3.1,13,7.8,17.53c1.2,1.14,2.49,2.39,3.86,3.77a.48.48,0,0,0,.68,0c1.37-1.38,2.67-2.63,3.86-3.77C20.9,13,24,10,24,6.25A6.12,6.12,0,0,0,22.29,1.88Zm-6.76,15C14.44,17.89,13.25,19,12,20.28,10.75,19,9.57,17.89,8.47,16.84,4,12.49,1,9.62,1,6.23V6A5.18,5.18,0,0,1,6.13,1h.1a5.84,5.84,0,0,1,5.33,3.55.5.5,0,0,0,.88,0A5.84,5.84,0,0,1,17.77,1H18A5.17,5.17,0,0,1,23,6.24C23,9.62,20.05,12.49,15.53,16.83Z"/></g></g></svg>