<svg xmlns="http://www.w3.org/2000/svg" xmlns:xlink="http://www.w3.org/1999/xlink" width="106.176" height="106.178" viewBox="0 0 106.176 106.178"><defs><filter id="a" x="0" y="0" width="106.176" height="106.178" filterUnits="userSpaceOnUse"><feOffset dx="-1" input="SourceAlpha"/><feGaussianBlur stdDeviation="0.5" result="b"/><feFlood flood-opacity="0.153"/><feComposite operator="in" in2="b"/><feComposite in="SourceGraphic"/></filter></defs><g transform="matrix(1, 0, 0, 1, 0, 0)" filter="url(#a)"><path d="M51.587,103.178a51.592,51.592,0,0,1-36.479-88.07A51.591,51.591,0,0,1,88.069,88.07,51.252,51.252,0,0,1,51.587,103.178ZM39.222,33.21a11.766,11.766,0,0,0-12,12c0,7.469,6.343,13.565,15.945,22.792,2.432,2.337,5.188,4.986,8.049,7.866,2.862-2.882,5.619-5.531,8.051-7.868,9.6-9.226,15.942-15.322,15.942-22.79a11.765,11.765,0,0,0-12-12,13.176,13.176,0,0,0-12,8A13.178,13.178,0,0,0,39.222,33.21Z" transform="translate(2.5 1.5)" fill="#292f33"/></g></svg>