<svg xmlns="http://www.w3.org/2000/svg" viewBox="0 0 24 24"><defs><style>.transparent{opacity:0;}</style></defs><g id="Calque_2" data-name="Calque 2"><g id="Calque_1-2" data-name="Calque 1"><rect class="transparent" width="24" height="24"/><path d="M16.6,5.1l-4.2-3a.59.59,0,0,0-.75,0L.27,10.26a.68.68,0,0,0-.15.93l1,1.42a.65.65,0,0,0,.91.15L12,5.58l9.93,7.18a.65.65,0,0,0,.91-.15l1-1.42a.68.68,0,0,0-.15-.93L19.41,7.15Z"/><path d="M3.71,14.52v8a.65.65,0,0,0,.66.65H9.73V16.72a.66.66,0,0,1,.65-.66h3.26a.67.67,0,0,1,.66.66v6.42h5.36a.66.66,0,0,0,.66-.66v-8L12,8.5Z"/></g></g></svg>