<svg xmlns="http://www.w3.org/2000/svg" viewBox="0 0 24 24"><defs><style>.transparent{opacity:0;}</style></defs><g id="Calque_2" data-name="Calque 2"><g id="Calque_1-2" data-name="Calque 1"><rect class="transparent" width="24" height="24"/><path d="M5.415,22.681H5.3a2.326,2.326,0,0,1-1.458-.752.817.817,0,0,1-.071-.918l4.045-7.454a26.25,26.25,0,0,1,3.763-5.292,17.726,17.726,0,0,1,4.468-3.739c.259-.282-.117-.941-.564-1.458a.51.51,0,0,1-.118-.4.466.466,0,0,1,.235-.353L16.938,1.4a.408.408,0,0,1,.329-.07.338.338,0,0,1,.259.211,2.132,2.132,0,0,0,.141.236,4.344,4.344,0,0,0,2.281,1.763A5,5,0,0,1,22.864,6.29a6.8,6.8,0,0,1,.588,2.869,18.223,18.223,0,0,0,.494,4.891,1.263,1.263,0,0,1-.353,1.294l-.729.729-1.858-.988.659-1.27-1.458-.8.729-1.435-1.482-.752L20,9.794a1.614,1.614,0,0,0-.023-1.6c-.024-.024-.047-.071-.071-.094A1.811,1.811,0,0,0,17.432,7.4a17.866,17.866,0,0,0-4.374,3.622A24.412,24.412,0,0,0,9.389,16.19L6.144,22.234A.853.853,0,0,1,5.415,22.681ZM15.9,2.739c.823.987.988,1.764.47,2.21L16.326,5a17.909,17.909,0,0,0-4.374,3.622,24.354,24.354,0,0,0-3.668,5.174L4.215,21.247a.33.33,0,0,0,.024.329,1.737,1.737,0,0,0,1.129.564.3.3,0,0,0,.3-.164L8.9,16a26.164,26.164,0,0,1,3.763-5.291A19.386,19.386,0,0,1,17.173,7a2.318,2.318,0,0,1,3.128.847c.023.047.07.094.094.141a2.165,2.165,0,0,1,.047,2.14l-.282.541,1.481.752-.752,1.459,1.458.8-.635,1.246,1.035.541.446-.446a.8.8,0,0,0,.212-.776,18.113,18.113,0,0,1-.517-5.057,6.181,6.181,0,0,0-.541-2.657,4.241,4.241,0,0,0-2.564-2.446,4.778,4.778,0,0,1-2.563-2,1.121,1.121,0,0,1-.094-.164Z"/><path d="M18.161,6.2a1.106,1.106,0,1,1,1.1-1.106A1.089,1.089,0,0,1,18.161,6.2Zm0-1.693a.564.564,0,1,0,.564.564A.542.542,0,0,0,18.161,4.5Z"/><path d="M.98,15.7l-.662-.789a1.342,1.342,0,0,1-.239-1.32A18.4,18.4,0,0,0,1,8.761a6.811,6.811,0,0,1,.835-2.807A5,5,0,0,1,4.976,3.467,4.346,4.346,0,0,0,7.4,1.908c.053-.066.108-.156.161-.222A.575.575,0,0,1,7.839,1.5a.4.4,0,0,1,.321.1L9.418,2.6a.534.534,0,0,1,.2.371.482.482,0,0,1-.152.388c-.492.5-.922,1.1-.689,1.4a16.858,16.858,0,0,1,3,2.693.267.267,0,0,1-.387.368A17.588,17.588,0,0,0,8.484,5.19l-.066-.053c-.477-.491-.243-1.273.661-2.162l-1.149-.9a1.044,1.044,0,0,0-.108.156A4.9,4.9,0,0,1,5.1,4,4.3,4.3,0,0,0,2.281,6.206a6.054,6.054,0,0,0-.744,2.579,18.29,18.29,0,0,1-.955,4.992.8.8,0,0,0,.143.792l.406.483L2.209,14.6l-.524-1.3,1.522-.67-.623-1.518L4.126,10.5l-.234-.563a2.225,2.225,0,0,1,.233-2.128c.027-.045.078-.088.106-.132a2.322,2.322,0,0,1,3.212-.57A14.164,14.164,0,0,1,9.9,9.232a.266.266,0,1,1-.386.367A13.268,13.268,0,0,0,7.145,7.551a1.816,1.816,0,0,0-2.521.488c-.026.022-.053.067-.079.088a1.615,1.615,0,0,0-.162,1.591L4.832,10.8l-1.542.621.6,1.492-1.522.67L2.915,14.9Z"/><path d="M14.637,10.923a.251.251,0,0,1,.056-.378.249.249,0,0,1,.379.056c1.67,2.494,4.767,7.639,6.318,10.209a.81.81,0,0,1-.035.919,2.113,2.113,0,0,1-1.429.807.579.579,0,0,1-.163.054.808.808,0,0,1-.745-.419l-5.958-9.4a.268.268,0,1,1,.411-.345L19.478,21.9a.342.342,0,0,0,.312.152,1.737,1.737,0,0,0,1.107-.606.331.331,0,0,0,.011-.33Z"/></g></g></svg>