<svg xmlns="http://www.w3.org/2000/svg" viewBox="0 0 24 24"><defs><style>.white{fill:#fff;}</style></defs><g id="Calque_2" data-name="Calque 2"><g id="Calque_1-2" data-name="Calque 1"><path class="white" d="M12,24A12,12,0,1,1,24,12,12,12,0,0,1,12,24h0ZM6.31,7.26V16.8h0a.89.89,0,0,0,.89.9h9.57a.9.9,0,0,0,.9-.9h0V7.26a.9.9,0,0,0-.9-.9H7.2a.89.89,0,0,0-.89.9Zm2.35,4.81A3.31,3.31,0,1,1,12,15.38h0a3.29,3.29,0,0,1-3.29-3.29v0Zm1.83-1.48a2.06,2.06,0,0,0-.62,1.47h0a2.1,2.1,0,0,0,2.1,2.1h0a2.1,2.1,0,0,0,2.1-2.1h0a2.1,2.1,0,0,0-3.59-1.48h0Zm4.59-1.94a.55.55,0,0,1,.55-.55.55.55,0,0,1,.55.55h0a.55.55,0,0,1-.55.55.55.55,0,0,1-.55-.55Z"/></g></g></svg>