<svg xmlns="http://www.w3.org/2000/svg" viewBox="0 0 133.57 133.69"><defs><style>.cls-143323,.transparent{fill:none;}.cls-143323{stroke:#ebebeb;stroke-miterlimit:10;stroke-width:7px;}.pink{fill:#d82558;}.white{fill:#fff;}</style></defs><g id="Calque_2" data-name="Calque 2"><g id="Calque_1-2" data-name="Calque 1"><circle id="Ellipse_100" data-name="Ellipse 100" class="cls-143323" cx="64.35" cy="69.34" r="60.84"/><path class="pink" d="M64.39,0a8.5,8.5,0,0,0,0,17,52.24,52.24,0,0,1,52.18,52.18,8.5,8.5,0,0,0,17,0A69.26,69.26,0,0,0,64.39,0Z"/><g id="Ellipse_101" data-name="Ellipse 101"><circle class="transparent" cx="125.07" cy="68.36" r="2.8"/><path class="white" d="M125.07,71.16a2.81,2.81,0,0,1-2.76-2.32,2.81,2.81,0,0,1,2.27-3.25,2.81,2.81,0,0,1,1,5.53h0A2.77,2.77,0,0,1,125.07,71.16Zm0-4.11-.23,0a1.3,1.3,0,0,0-1,1.51,1.31,1.31,0,0,0,1.51,1.06h0a1.3,1.3,0,0,0,1-1.51,1.31,1.31,0,0,0-.53-.84A1.26,1.26,0,0,0,125.07,67.05Z"/></g></g></g></svg>