<svg xmlns="http://www.w3.org/2000/svg" viewBox="0 0 24.0004 24.0002"><defs><style>.cls-1{opacity:0;}.cls-2,.cls-3{fill:#1d1d1b;}.cls-2{isolation:isolate;opacity:0.303;}</style></defs><g id="Calque_2" data-name="Calque 2"><g id="Calque_1-2" data-name="Calque 1"><rect class="cls-1" x="0.0004" width="24" height="24"/><path id="Tracé_5394" data-name="Tracé 5394" class="cls-2" d="M12.0079.0005a12,12,0,1,0,8.75,3.7966A11.9,11.9,0,0,0,12.0079.0005ZM12,20A8,8,0,0,1,6.5369,6.1561,7.87,7.87,0,0,1,11.9668,4H12a8,8,0,0,1,0,15.9994Z"/><path id="Tracé_5395" data-name="Tracé 5395" class="cls-3" d="M12,.0005a2,2,0,0,0,0,4A8,8,0,1,1,4,12v0a2,2,0,0,0-4,0A12.0132,12.0132,0,0,0,12,24h0A12,12,0,0,0,12,0Z"/></g></g></svg>