<svg xmlns="http://www.w3.org/2000/svg" viewBox="0 0 133.25 138.69"><defs><style>.cls-1,.cls-3{fill:none;}.cls-1{stroke:#ebebeb;stroke-miterlimit:10;stroke-width:7px;}.cls-2{fill:#d82558;}.cls-4{fill:#fff;}</style></defs><g id="Calque_2" data-name="Calque 2"><g id="Calque_1-2" data-name="Calque 1"><circle id="Ellipse_100" data-name="Ellipse 100" class="cls-1" cx="64.35" cy="69.34" r="60.84"/><path class="cls-2" d="M63.9,17a52.35,52.35,0,1,1,0,104.69,8.5,8.5,0,0,0,0,17A69.35,69.35,0,1,0,63.9,0a8.5,8.5,0,0,0,0,17Z"/><g id="Ellipse_101" data-name="Ellipse 101"><circle class="cls-3" cx="66.42" cy="130.33" r="2.8"/><path class="cls-4" d="M66.43,127.53A2.74,2.74,0,0,1,68,128a2.79,2.79,0,1,1-2.1-.47h0A2.81,2.81,0,0,1,66.43,127.53Zm0,4.11.23,0a1.31,1.31,0,0,0,.52-2.35,1.32,1.32,0,0,0-1-.22h0a1.29,1.29,0,0,0-.84.54,1.24,1.24,0,0,0-.21,1A1.31,1.31,0,0,0,66.42,131.64Z"/></g></g></g></svg>