<svg xmlns="http://www.w3.org/2000/svg" viewBox="0 0 24 24.0001"><defs><style>.cls-1{opacity:0;}.cls-2,.cls-3{fill:#1d1d1b;}.cls-2{isolation:isolate;opacity:0.303;}</style></defs><g id="Calque_2" data-name="Calque 2"><g id="Calque_1-2" data-name="Calque 1"><rect class="cls-1" width="24" height="24"/><path id="Tracé_5405" data-name="Tracé 5405" class="cls-2" d="M12.008,0a12,12,0,1,0,8.75,3.7967A11.9007,11.9007,0,0,0,12.008,0ZM12,19.9994A8,8,0,0,1,6.537,6.1558,7.87,7.87,0,0,1,11.9669,4H12a8,8,0,1,1,0,15.9993Z"/><path id="Tracé_5406" data-name="Tracé 5406" class="cls-3" d="M11.9992.0008a2,2,0,0,0,0,4,8,8,0,1,1,0,16,2,2,0,0,0,0,4,12,12,0,1,0,0-24Z"/></g></g></svg>