<svg xmlns="http://www.w3.org/2000/svg" viewBox="0 0 138.7 138.69"><defs><style>.cls-1{fill:#d82558;}.cls-2{fill:none;}.cls-3{fill:#fff;}</style></defs><g id="Calque_2" data-name="Calque 2"><g id="Calque_1-2" data-name="Calque 1"><path class="cls-1" d="M69.35,0h0A69.35,69.35,0,1,0,138.7,69.34,69.42,69.42,0,0,0,69.34,0Zm0,121.69A52.35,52.35,0,0,1,69.34,17h0a52.35,52.35,0,1,1,0,104.69Z"/><g id="Ellipse_101" data-name="Ellipse 101"><circle class="cls-2" cx="69.35" cy="8.52" r="2.8"/><path class="cls-3" d="M69.34,11.32A2.8,2.8,0,1,1,72.11,8a2.81,2.81,0,0,1-2.27,3.25h0A2.81,2.81,0,0,1,69.34,11.32Zm0-4.11-.23,0a1.32,1.32,0,0,0-1.06,1.51,1.36,1.36,0,0,0,.54.85,1.31,1.31,0,0,0,1,.21h0a1.3,1.3,0,0,0,1-1.51A1.31,1.31,0,0,0,69.35,7.21Z"/></g></g></g></svg>