<svg xmlns="http://www.w3.org/2000/svg" viewBox="0 0 24.0012 24"><g id="Calque_2" data-name="Calque 2"><g id="Calque_1-2" data-name="Calque 1"><rect width="24" height="24"/><path id="Tracé_5394-2" data-name="Tracé 5394-2" d="M12.008,0a12,12,0,1,0,8.75,3.7967A11.9008,11.9008,0,0,0,12.008,0ZM12,20A8,8,0,0,1,6.5369,6.1558,7.87,7.87,0,0,1,11.9669,4H12a8,8,0,0,1,0,15.9995Z"/><path id="Tracé_5398" data-name="Tracé 5398" d="M12.0014,0a2,2,0,0,0,0,4,8.01,8.01,0,0,1,8,8,2,2,0,1,0,4,.0488c0-.0162,0-.0325,0-.0488A12.0131,12.0131,0,0,0,12.0014,0Z"/></g></g></svg>