<svg xmlns="http://www.w3.org/2000/svg" viewBox="0 0 24.00002 24.00003"><defs><style>.cls-1{opacity:0;}.cls-2,.cls-3{fill:#fff;}.cls-2{isolation:isolate;opacity:0.3;}</style></defs><g id="Calque_2" data-name="Calque 2"><g id="Calque_1-2" data-name="Calque 1"><rect class="cls-1" x="0.00002" width="24" height="24"/><path id="Tracé_5394" data-name="Tracé 5394" class="cls-2" d="M12.00778.00032a11.99984,11.99984,0,1,0,8.75,3.79666A11.90037,11.90037,0,0,0,12.00778.00032Zm-.00841,19.99923A7.9997,7.9997,0,0,1,6.5368,6.15594a7.87028,7.87028,0,0,1,5.42987-2.15607h.0327a7.99969,7.99969,0,0,1,0,15.99938Z"/><path id="Tracé_5395" data-name="Tracé 5395" class="cls-3" d="M11.99917.00059a2.00007,2.00007,0,0,0,0,3.99984,7.99969,7.99969,0,1,1-7.99931,8v-.0003a2.00006,2.00006,0,0,0-3.99982,0A12.01328,12.01328,0,0,0,11.99978,24h0a11.99984,11.99984,0,0,0,0-23.99967Z"/></g></g></svg>