<svg xmlns="http://www.w3.org/2000/svg" viewBox="0 0 138.7 138.69"><defs><style>.cls-1,.cls-3{fill:none;}.cls-1{stroke:#ebebeb;stroke-miterlimit:10;stroke-width:7px;}.cls-2{fill:#d82558;}.cls-4{fill:#fff;}</style></defs><g id="Calque_2" data-name="Calque 2"><g id="Calque_1-2" data-name="Calque 1"><circle id="Ellipse_100" data-name="Ellipse 100" class="cls-1" cx="69.35" cy="69.34" r="60.84"/><path class="cls-2" d="M69.35,0h0a8.5,8.5,0,0,0,0,17A52.35,52.35,0,1,1,17,69.34a8.5,8.5,0,0,0-17,0A69.35,69.35,0,1,0,69.35,0Z"/><g id="Ellipse_101" data-name="Ellipse 101"><circle class="cls-3" cx="8.44" cy="71.12" r="2.8"/><path class="cls-4" d="M8.44,73.92a2.81,2.81,0,0,1-2.3-4.41A2.87,2.87,0,0,1,8,68.35a2.81,2.81,0,0,1,1,5.53h0A2.7,2.7,0,0,1,8.44,73.92Zm0-4.11-.23,0a1.3,1.3,0,0,0-1.05,1.51A1.31,1.31,0,0,0,8.67,72.4h0a1.31,1.31,0,0,0,1.06-1.51,1.29,1.29,0,0,0-.54-.84A1.26,1.26,0,0,0,8.44,69.81Z"/></g></g></g></svg>