<svg xmlns="http://www.w3.org/2000/svg" viewBox="0 0 24 24" height="20"><defs><style>.cls-3231021{opacity:0;}.cls-3782972{isolation:isolate;opacity:0.3;}</style></defs><g id="Calque_2" data-name="Calque 2"><g id="Calque_1-2" data-name="Calque 1"><rect class="cls-3231021" width="24" height="24"/><path id="Tracé_5405" data-name="Tracé 5405" class="cls-3782972" d="M12.008.00009a11.99981,11.99981,0,1,0,8.75016,3.79665A11.90076,11.90076,0,0,0,12.008.00009Zm-.0084,19.99918A7.99964,7.99964,0,0,1,6.53692,6.1557a7.87051,7.87051,0,0,1,5.43-2.15607h.03271a7.99967,7.99967,0,1,1,0,15.99934Z"/><path id="Tracé_5406" data-name="Tracé 5406" d="M11.99925.00068a2.00007,2.00007,0,0,0,0,3.99984,7.99982,7.99982,0,1,1,0,15.99964,2.00007,2.00007,0,0,0,0,3.99984,11.99981,11.99981,0,1,0,0-23.99961Z"/></g></g></svg>