<svg xmlns="http://www.w3.org/2000/svg" viewBox="0 0 24 24"><defs><style>.cls-1{opacity:0;}.cls-2,.cls-3{fill:#fff;}.cls-2{isolation:isolate;opacity:0.3;}</style></defs><g id="Calque_2" data-name="Calque 2"><g id="Calque_1-2" data-name="Calque 1"><rect class="cls-1" width="24" height="24"/><path id="Tracé_5394-2" data-name="Tracé 5394-2" class="cls-2" d="M12.00741.00009a12,12,0,1,0,8.74972,3.79669A11.89981,11.89981,0,0,0,12.00741.00009ZM11.999,19.99949A7.99983,7.99983,0,0,1,6.5366,6.15576a7.86993,7.86993,0,0,1,5.4297-2.15609h.0327a7.99976,7.99976,0,0,1,0,15.99951Z"/><path id="Tracé_5398" data-name="Tracé 5398" class="cls-3" d="M12.00078.00009a2.00009,2.00009,0,0,0,0,3.99988,8.00977,8.00977,0,0,1,7.99938,7.99977,2,2,0,1,0,3.99969.04878q.0003-.02439,0-.04878A12.01285,12.01285,0,0,0,12.00078.00009Z"/></g></g></svg>