<svg xmlns="http://www.w3.org/2000/svg" viewBox="0 0 24 24"><defs><style>.transparent{opacity:0;}</style></defs><g id="Calque_2" data-name="Calque 2"><g id="Calque_1-2" data-name="Calque 1"><rect class="transparent" width="24" height="24"/><path d="M4,19.58l-.22.22a.36.36,0,0,0,0,.51.36.36,0,0,0,.52,0l.22-.21A.37.37,0,1,0,4,19.58Z"/><path d="M23,3.44A1.86,1.86,0,0,0,20.56,1L15.91,3.19A27.74,27.74,0,0,0,8.58,8.32l-.52.52a27.9,27.9,0,0,0-5.13,7.33L.7,20.82A1.86,1.86,0,0,0,3.18,23.3l4.65-2.23a27.67,27.67,0,0,0,7.33-5.13l.52-.52a27.74,27.74,0,0,0,5.13-7.33Zm-15.53,17L2.86,22.64a1.16,1.16,0,0,1-.48.11,1,1,0,0,1-.49-.12l1.36-1.36a.36.36,0,0,0,0-.51.36.36,0,0,0-.52,0L1.37,22.11a1.11,1.11,0,0,1-.12-.49,1.16,1.16,0,0,1,.11-.48l2.23-4.65a27,27,0,0,1,5-7.13l.76.76L8.27,11.19A2.6,2.6,0,0,0,7.48,13a2.52,2.52,0,0,0,.75,1.87l.9.9a2.6,2.6,0,0,0,3.65,0l1.1-1.11.76.76A26.86,26.86,0,0,1,7.51,20.41Zm7.65-5.51-.76-.75L15.51,13a2.6,2.6,0,0,0,0-3.65l-.9-.9a2.6,2.6,0,0,0-3.65,0L9.86,9.6,9.1,8.84a26.86,26.86,0,0,1,7.13-5l4.65-2.23h0a1.12,1.12,0,0,1,1.61,1,1.21,1.21,0,0,1-.11.49L20.15,7.77A26.86,26.86,0,0,1,15.16,14.9Z"/><path d="M4,5.92A1.69,1.69,0,0,0,5,5.6l2.2,2.21a.26.26,0,0,0,.18.09h0a.27.27,0,0,0,.19-.08.28.28,0,0,0,0-.38L5.41,5.23A1.73,1.73,0,0,0,5.28,3L2.79.42A1.07,1.07,0,0,0,1.31.4l-1,1a1.07,1.07,0,0,0,0,1.49L2.77,5.39A1.72,1.72,0,0,0,4,5.92ZM.68,1.76l1-1A.56.56,0,0,1,2.05.62a.58.58,0,0,1,.37.17L4.89,3.32A1.22,1.22,0,0,1,4.87,5h0A1.23,1.23,0,0,1,3.14,5L.67,2.5A.54.54,0,0,1,.68,1.76Z"/><path d="M23.7,21.1l-2.53-2.49a1.76,1.76,0,0,0-2.29-.13l-2.21-2.21a.27.27,0,0,0-.38,0,.25.25,0,0,0-.07.19h0a.27.27,0,0,0,.08.19l2.21,2.19a1.76,1.76,0,0,0-.32,1,1.8,1.8,0,0,0,.53,1.24l2.53,2.48a1.05,1.05,0,0,0,1.48,0l1-1A1.07,1.07,0,0,0,23.7,21.1Zm-.36,1.11-1,1a.53.53,0,0,1-.73,0l-2.53-2.47a1.23,1.23,0,0,1,0-1.72h0a1.23,1.23,0,0,1,1.73,0l2.53,2.47a.48.48,0,0,1,.16.36A.51.51,0,0,1,23.34,22.21Z"/></g></g></svg>