<svg xmlns="http://www.w3.org/2000/svg" viewBox="0 0 24 24"><defs><style>.cls-1{opacity:0;}</style></defs><g id="Calque_2" data-name="Calque 2"><g id="Calque_1-2" data-name="Calque 1"><rect class="cls-1" width="24" height="24"/><path id="Tracé_5153" data-name="Tracé 5153" d="M13.41777,5.48449c.02988.01853.05587.03526.07739.049C13.47424,5.51945,13.44765,5.50332,13.41777,5.48449Z"/><path id="Tracé_5154" data-name="Tracé 5154" d="M13.56,5.57085l.01733.01165Z"/><path id="Tracé_5156" data-name="Tracé 5156" d="M13.50711,5.53678l.049.032Z"/><path d="M22.82917,6.22124a4.53737,4.53737,0,0,0-5.28863-1.36881C15.172,2.65331,11.97937,3.87212,10.904,4.38422A6.21814,6.21814,0,0,0,3.955,5.88838a4.98119,4.98119,0,0,0-2.25051.60356,3.52193,3.52193,0,0,0-1.0458.86293,2.62975,2.62975,0,0,0-.3914.64418l-.05558.14489-.0269.0714-.00418.0096-.01108.03527-.00535.02148-.01047.043L.07245,8.6713a2.044,2.044,0,0,0-.04814.35262c-.00806.11947-.026.239-.02419.35675a4.44969,4.44969,0,0,0,.05977.71533,4.21039,4.21039,0,0,0,.47178,1.3834,4.32556,4.32556,0,0,0,2.31656,1.96548,4.77435,4.77435,0,0,0,1.69084.21272c1.035,1.75688.66905,6.09062.66905,6.09062s6.28,4.429,15.33348,0c-.21844-2.49524.42519-4.98986,1.61348-6.13845C23.34342,12.46125,25.25659,9.16672,22.82917,6.22124ZM13.0885,21.00736a16.72755,16.72755,0,0,1-7.252-1.62548,20.08711,20.08711,0,0,1,6.03769-1.182,15.38365,15.38365,0,0,1,8.00441,1.182A13.57708,13.57708,0,0,1,13.0885,21.00736Zm6.48381-2.55772c-6.45845-2.69509-13.48519-.04985-13.48519-.04985a11.80432,11.80432,0,0,0-.74365-4.83661c.1897-.035.378-.07589.56263-.127l.62984-.20914.61907-.22349a4.89151,4.89151,0,0,1,.58744-.18527c.199-.0517.39232-.116.59223-.15744a22.01883,22.01883,0,0,1,2.344-.39054c.75836-.07891,1.48324-.13239,2.15524-.15984.6717-.02186,1.29108-.03977,1.84084-.03681s1.03053.00751,1.427.018c.793.02062,1.24836.04542,1.24836.04542s-.28744-.08278-.80674-.19511a1.70754,1.70754,0,0,0,.61255-1.41424,2.22993,2.22993,0,0,1-1.16348,1.30277c-.36518-.0693-.793-.14938-1.28486-.21154-.22257-.03226-.4607-.06217-.7069-.08962a1.5485,1.5485,0,0,0,.1628-1.75516,1.73275,1.73275,0,0,1-.741,1.69626c-.18853-.01644-.38069-.032-.57993-.0445-.34333-.02721-.70278-.03435-1.07571-.05349-.37287-.00271-.75861-.0069-1.15628.00923-.11479.00363-.23217.01046-.34874.01557A4.549,4.549,0,0,1,9.05654,9.32958,2.77786,2.77786,0,0,0,9.4749,11.451c-.44821.04-.90534.09737-1.3706.18256-.21721.035-.43411.09441-.654.14131a5.75125,5.75125,0,0,0-.66037.17481l-.08962.02745a1.98872,1.98872,0,0,1-1.13215-1.63588,1.70675,1.70675,0,0,0,.42851,1.854l-.46913.14551a4.08742,4.08742,0,0,1-2.27083-.02506,3.13181,3.13181,0,0,1-1.67324-1.387,3.42306,3.42306,0,0,1-.43473-2.08765l.04776-.25519.00542-.03194.00265-.01588c.00541-.01761,0,0-.0045.01169V8.54586l.02364-.07263L1.27,8.33161a2.29079,2.29079,0,0,1,.21364-.39712,2.53733,2.53733,0,0,1,.71294-.68721,4.61963,4.61963,0,0,1,1.8558-.67767A5.36543,5.36543,0,0,1,5.794,6.60784a4.69969,4.69969,0,0,1,1.28479.45836,4.509,4.509,0,0,1,.73534.508l.23519.21838-.18225-.26442a3.86416,3.86416,0,0,0-.64843-.65735,4.40955,4.40955,0,0,0-1.29613-.703,5.36887,5.36887,0,0,0-.75749-.1972c3.46607-2.58548,7.4334-.40488,8.29246.1255l.00837.005c.03317.02032.05976.03823.08426.05318l.006.00357.05318.03472.01883.0128a10.843,10.843,0,0,0-1.73719-1.31465,5.407,5.407,0,0,1,7.16566,2.17937,7.04443,7.04443,0,0,0-1.1913-1.8875c3.06772-.82372,4.381.89494,5.11808,2.73609.74937,1.87137-.05171,3.26911-1.80859,5.68932A8.1162,8.1162,0,0,0,19.57231,18.44964Z"/><path id="Tracé_5160" data-name="Tracé 5160" d="M6.53983,14.84236l.17927.68962c1.95352-1.2403,7.60431-1.89525,7.60431-1.89525A20.3457,20.3457,0,0,0,6.53983,14.84236Z"/><path id="Tracé_5161" data-name="Tracé 5161" d="M6.8201,16.21771v.48255a57.51419,57.51419,0,0,1,6.22-2.01925C10.58789,14.62633,6.8201,16.21771,6.8201,16.21771Z"/><path id="Tracé_5162" data-name="Tracé 5162" d="M13.56717,5.5813l-.01733-.01165h0l-.049-.032-.00538-.00329-.07738-.049-.00747-.00478-.11325-.06842Z"/></g></g></svg>