<svg id="PICTO_TOQUE" xmlns="http://www.w3.org/2000/svg" width="90.001" height="68" viewBox="0 0 90.001 68">
  <path id="Tracé_5153" data-name="Tracé 5153" d="M55.5,25.348c.113.07.21.132.29.183C55.712,25.479,55.615,25.419,55.5,25.348Z" transform="translate(-4.985 -16.649)" fill="none"/>
  <path id="Tracé_5154" data-name="Tracé 5154" d="M56.044,25.7l.065.044Z" transform="translate(-4.996 -16.678)" fill="none"/>
  <path id="Tracé_5155" data-name="Tracé 5155" d="M47.653,70.874c-12.135,1.07-18.036,2.87-20.768,4.082a57.361,57.361,0,0,0,24.946,5.614c14.516,0,23.339-5.6,23.355-5.614C71.161,73.01,61.862,69.622,47.653,70.874Z" transform="translate(-2.446 -15.015)" fill="none"/>
  <path id="Tracé_5156" data-name="Tracé 5156" d="M55.84,25.562c.079.05.141.093.183.12Z" transform="translate(-4.99 -16.667)" fill="none"/>
  <path id="Tracé_5157" data-name="Tracé 5157" d="M91.755,31.059C88.971,24.7,84.012,18.766,72.429,21.61a24.131,24.131,0,0,1,4.5,6.519s-8.959-15-27.046-7.523a40.95,40.95,0,0,1,6.56,4.54l-1.116-.638c.175.094.33.181.466.257-3.243-1.832-18.224-9.363-31.314-.434a21.893,21.893,0,0,1,2.861.682,17.188,17.188,0,0,1,4.895,2.428,13.986,13.986,0,0,1,2.448,2.274l.689.914-.888-.754A17.077,17.077,0,0,0,31.7,28.118a18.83,18.83,0,0,0-4.854-1.583,22.12,22.12,0,0,0-6.576-.132,18.516,18.516,0,0,0-7.008,2.34,9.257,9.257,0,0,0-2.693,2.37,7.729,7.729,0,0,0-.807,1.371l-.175.489-.089.25-.005.014c.013-.036.037-.1.017-.04l-.01.055-.02.11-.172.877a10.99,10.99,0,0,0,1.641,7.21,11.645,11.645,0,0,0,6.324,4.79,16.831,16.831,0,0,0,8.572.087l1.771-.5A5.52,5.52,0,0,1,26,39.419a6.951,6.951,0,0,0,4.275,5.649l.334-.094a23.274,23.274,0,0,1,2.493-.6c.831-.162,1.649-.367,2.47-.488,1.757-.294,3.485-.493,5.176-.63-.973-1.025-1.991-3.115-1.58-7.321,0,0,1.331,4.716,4.551,7.141.44-.019.885-.042,1.317-.054,1.5-.055,2.958-.04,4.367-.032,1.406.065,2.763.091,4.06.184.752.043,1.478.1,2.19.154,1.462-1.072,3.446-3.088,2.8-5.858,0,0,2.117,3.4-.615,6.061.929.1,1.829.2,2.669.311,1.856.218,3.472.491,4.85.73a8,8,0,0,0,4.393-4.5s.22,3.365-2.313,4.884c1.958.388,3.044.674,3.044.674s-1.721-.085-4.714-.157c-1.5-.037-3.313-.056-5.389-.061s-4.414.051-6.952.127c-2.537.1-5.274.28-8.138.552s-5.842.749-8.852,1.348c-.755.143-1.485.365-2.236.544a19.825,19.825,0,0,0-2.218.639l-2.338.771-2.378.725c-.7.175-1.408.316-2.125.438,1.221,3.084,3.536,10.013,2.808,16.7,0,0,26.535-9.135,50.923.172,0,0-.585-8.359,6.049-16.719S94.584,37.522,91.755,31.059ZM30.1,59.583v-1.81s15.511-5.968,25.607-5.763C55.709,52.01,36.54,56.74,30.1,59.583Zm-.586-4.007-.732-2.586s12.585-4.912,32.046-4.524C60.831,48.466,37.564,50.922,29.516,55.576Z" transform="translate(-5.347 -16.084)" fill="none"/>
  <path id="Tracé_5158" data-name="Tracé 5158" d="M81.83,76.61a19.235,19.235,0,0,0-2.272-1.255Z" transform="translate(-3.722 -15.408)" fill="#fff"/>
  <path id="Tracé_5159" data-name="Tracé 5159" d="M90.605,25.758c-7.065-8.571-16.126-6.5-19.835-5.134-8.882-8.247-20.855-3.676-24.888-1.756-13.134-5.577-22.891,2.462-26.06,5.641a18.684,18.684,0,0,0-8.43,2.261,13.211,13.211,0,0,0-3.926,3.236A9.869,9.869,0,0,0,6,32.422l-.208.544-.1.268-.013.034-.041.132-.02.081-.039.161-.305,1.3a7.668,7.668,0,0,0-.18,1.322c-.03.443-.1.892-.091,1.338a16.694,16.694,0,0,0,.225,2.682,15.791,15.791,0,0,0,1.769,5.188,16.221,16.221,0,0,0,8.688,7.371,17.9,17.9,0,0,0,6.341.8c3.881,6.589,2.509,22.841,2.509,22.841s23.551,16.61,57.5,0L79.558,75.12a20.992,20.992,0,0,1,2.477,1.363c-.819-9.358,1.594-18.716,6.051-23.021S99.712,36.8,90.605,25.758ZM54.081,81.209a62.732,62.732,0,0,1-27.2-6.1c2.979-1.316,9.412-3.27,22.642-4.432C65.016,69.32,75.155,73,79.543,75.113,79.526,75.124,69.907,81.209,54.081,81.209ZM78.4,71.617c-24.22-10.107-50.572-.187-50.572-.187.723-7.265-1.576-14.789-2.789-18.138.711-.131,1.417-.285,2.11-.476l2.362-.787,2.322-.838a18.36,18.36,0,0,1,2.2-.694c.746-.194,1.471-.435,2.221-.591a82.632,82.632,0,0,1,8.791-1.464c2.844-.3,5.562-.5,8.082-.6,2.519-.082,4.842-.149,6.9-.137s3.865.028,5.352.067c2.974.078,4.682.17,4.682.17s-1.078-.311-3.023-.732c2.515-1.649,2.3-5.3,2.3-5.3a8.362,8.362,0,0,1-4.363,4.886C63.608,46.531,62,46.235,60.16,46c-.835-.121-1.728-.233-2.651-.338,2.713-2.887.611-6.582.611-6.582.643,3.008-1.327,5.2-2.779,6.362-.707-.062-1.428-.12-2.175-.167-1.288-.1-2.636-.128-4.032-.2-1.4-.01-2.845-.026-4.337.035-.43.013-.871.039-1.308.059-3.2-2.635-4.52-7.754-4.52-7.754-.408,4.569.6,6.838,1.569,7.95-1.679.15-3.395.366-5.14.684-.815.131-1.628.354-2.453.53a21.58,21.58,0,0,0-2.476.655l-.332.1A7.458,7.458,0,0,1,25.891,41.2,6.4,6.4,0,0,0,27.5,48.154l-1.759.546a15.328,15.328,0,0,1-8.513-.095,11.744,11.744,0,0,1-6.28-5.2,12.838,12.838,0,0,1-1.63-7.829l.167-.949.02-.12.01-.06c.02-.066,0,0-.017.044l.005-.015.088-.272.174-.531a8.575,8.575,0,0,1,.8-1.489,9.512,9.512,0,0,1,2.674-2.574,17.324,17.324,0,0,1,6.96-2.541,20.115,20.115,0,0,1,6.531.143,17.622,17.622,0,0,1,4.821,1.719,16.912,16.912,0,0,1,2.758,1.906l.882.819-.684-.992A14.492,14.492,0,0,0,32.075,28.2a16.54,16.54,0,0,0-4.861-2.637,20.167,20.167,0,0,0-2.841-.74c13-9.7,27.877-1.518,31.1.471l.031.019c.124.077.229.143.316.2l.022.014.2.13.005,0,.071.048a40.652,40.652,0,0,0-6.515-4.93c17.963-8.12,26.86,8.17,26.86,8.17a26.421,26.421,0,0,0-4.467-7.079c11.5-3.089,16.429,3.356,19.193,10.26C94,39.142,90.993,44.383,84.4,53.46A30.437,30.437,0,0,0,78.4,71.617Z" transform="translate(-5 -15.865)" fill="#fff"/>
  <path id="Tracé_5160" data-name="Tracé 5160" d="M28.65,55.691l.667,2.586c7.332-4.653,28.526-7.11,28.526-7.11C40.113,50.779,28.65,55.691,28.65,55.691Z" transform="translate(-3.929 -15.647)" fill="#fff"/>
  <path id="Tracé_5161" data-name="Tracé 5161" d="M29.958,60.795V62.6c5.865-2.843,23.327-7.573,23.327-7.573C44.087,54.827,29.958,60.795,29.958,60.795Z" transform="translate(-4.186 -15.595)" fill="#fff"/>
  <path id="Tracé_5162" data-name="Tracé 5162" d="M56.023,25.686l-.065-.044,0,0c-.042-.028-.1-.07-.183-.12l-.02-.013c-.08-.051-.178-.114-.29-.183l-.028-.017q-.186-.116-.425-.257Z" transform="translate(-4.948 -16.625)" fill="#fff"/>
</svg>
