<svg xmlns="http://www.w3.org/2000/svg" viewBox="0 0 24 24"><defs><style>.transparent{opacity:0;}</style></defs><g xmlns="http://www.w3.org/2000/svg" id="Calque_2" data-name="Calque 2"><g id="Calque_1-2" data-name="Calque 1"><path d="M10.05219,19.186a.33007.33007,0,0,0-.46668-.00506l-4.42139,3.915-1.91-2.03278,2.90485-2.99579a.3795.3795,0,0,0,0-.52679.33186.33186,0,0,0-.03333-.03333.32733.32733,0,0,0-.46167.03333L2.70776,20.50574,1.344,19.06842l-.5307-.60236,3.67829-4.66888a.37949.37949,0,0,0-.03516-.5271.32821.32821,0,0,0-.495.03723L.0708,18.23987v.00091a.036.036,0,0,1-.0357.03626c0,.03808-.0351.03808-.0351.07562v.22589c0,.03748,0,.03748.0351.07556,0,.03724.0357.03724.0357.07532,0,0,0,.03723.0351.03723l.74249.79047L2.76,21.59082l2.15637,2.29651c.0351.03717.0351.03717.0708.03717l.0351.03809a.204.204,0,0,0,.1416.036.25807.25807,0,0,0,.1416-.03717l.0025-.00013a.03537.03537,0,0,0,.0326-.038c.03515,0,.03515-.03717.0708-.03717l4.63348-4.14a.38164.38164,0,0,0,.03571-.52709A.33387.33387,0,0,0,10.05219,19.186Z"/><path d="M11.25977,0A12.40983,12.40983,0,0,0,5.04443,1.70581a8.8274,8.8274,0,0,0-2.34839,1.98l-.087.138a3.06538,3.06538,0,0,0,.26068,4.19367,2.73331,2.73331,0,0,0,3.78265,0,6.71183,6.71183,0,0,1,8.86976-.36872.42052.42052,0,0,0,.04132.03052c.00866.00562.01873.006.02765.01086l.0661.06244a3.69841,3.69841,0,0,0,1.81909.91028,9.02056,9.02056,0,0,1-1.99884,7.28021,4.18889,4.18889,0,0,0-.95642,2.85688,3.9114,3.9114,0,0,0,1.2171,2.718l.0003-.0003A3.51563,3.51563,0,0,0,18.217,22.53192a3.59421,3.59421,0,0,0,2.5221-1.05963,11.2698,11.2698,0,0,0,3.26062-7.97241C24.043,6.08246,18.304,0,11.25977,0Zm8.913,20.78113a2.796,2.796,0,0,1-3.87.04559,2.918,2.918,0,0,1-.9129-2.0733,3.04793,3.04793,0,0,1,.7395-2.16565,9.92365,9.92365,0,0,0,2.34809-6.91162,9.77384,9.77384,0,0,0-2.95679-6.63477l.00031-.0003A8.929,8.929,0,0,0,12.086.96716c6.17456.41284,11.08758,5.8974,11.08758,12.53272A10.22391,10.22391,0,0,1,20.17273,20.78113Z"/></g></g></svg>