<svg xmlns="http://www.w3.org/2000/svg" viewBox="0 0 24 24"><defs><style>.transparent{opacity:0;}</style></defs><g id="Calque_2" data-name="Calque 2"><g id="Calque_1-2" data-name="Calque 1"><rect class="transparent" width="24" height="24"/><path d="M10.29,18.95a.429.429,0,0,0-.6-.01L5.337,22.79,3.558,20.9,6.4,17.971a.477.477,0,0,0,0-.661.467.467,0,0,0-.045-.044.424.424,0,0,0-.6.038L2.876,20.2l-1.291-1.36-.476-.54,3.625-4.6a.477.477,0,0,0-.04-.663.565.565,0,0,0-.048-.04.427.427,0,0,0-.6.086L.159,18.011H.1v.08a.148.148,0,0,0-.035.095v.227a.157.157,0,0,0,.043.121.135.135,0,0,0,.03.051.135.135,0,0,0,.08.105l4.79,5.1a.172.172,0,0,0,.1.064l.025.024a.3.3,0,0,0,.168.056h.028A.437.437,0,0,0,5.5,23.9h.017l.012-.012a.128.128,0,0,0,.046-.034l.012-.017L5.6,23.82l4.676-4.166a.48.48,0,0,0,.049-.661A.5.5,0,0,0,10.29,18.95Z"/><path class="cls-32030032" d="M19.972,3.8A12.44,12.44,0,0,0,11.114.045a12.536,12.536,0,0,0-6.266,1.72A8.866,8.866,0,0,0,2.466,3.778l-.08.127a3.169,3.169,0,0,0,.269,4.33,2.826,2.826,0,0,0,3.921,0,6.624,6.624,0,0,1,8.735-.365.48.48,0,0,0,.053.039.515.515,0,0,0,.384.07.508.508,0,0,0,.318-.217.568.568,0,0,0-.1-.782,7.635,7.635,0,0,0-10.133.373,1.8,1.8,0,0,1-2.473,0,2.046,2.046,0,0,1-.169-2.808l.092-.1A6.7,6.7,0,0,1,5.207,2.813L5.231,2.8a.131.131,0,0,1,.039-.027.287.287,0,0,0,.08-.055A7.729,7.729,0,0,1,14.7,3.9a8.988,8.988,0,0,1,.559,12.122,4.284,4.284,0,0,0-.98,2.924,3.987,3.987,0,0,0,1.249,2.787h0a3.6,3.6,0,0,0,2.54,1.042h.009a3.678,3.678,0,0,0,2.592-1.09,11.293,11.293,0,0,0,3.289-8.042A13.925,13.925,0,0,0,19.972,3.8Zm-1.54,6.023a9.833,9.833,0,0,0-2.987-6.7h0a9.081,9.081,0,0,0-2.751-1.826c5.8.791,10.234,6.069,10.234,12.357a10.186,10.186,0,0,1-2.971,7.209,2.691,2.691,0,0,1-3.731.045,2.836,2.836,0,0,1-.882-2.007,2.932,2.932,0,0,1,.716-2.1A9.99,9.99,0,0,0,18.432,9.818Z"/></g></g></svg>