<svg xmlns="http://www.w3.org/2000/svg" viewBox="0 0 2064.7642 523.1897" fill="#292f33">
  <g id="Calque_2" data-name="Calque 2">
    <g id="Calque_1-2" data-name="Calque 1">
      <path d="M143.6737,141.5091H103.5163a5.6177,5.6177,0,0,0-5.6113,5.6115v91.4882a2.57,2.57,0,0,1-2.5673,2.5673h-41.39a2.57,2.57,0,0,1-2.5673-2.5673V147.1206a5.6177,5.6177,0,0,0-5.6113-5.6115H5.6113A5.6177,5.6177,0,0,0,0,147.1206v245a5.6177,5.6177,0,0,0,5.6113,5.6115H45.7686a5.6177,5.6177,0,0,0,5.6113-5.6115V296.34a2.57,2.57,0,0,1,2.5673-2.5671h41.39A2.57,2.57,0,0,1,97.905,296.34v95.7812a5.6177,5.6177,0,0,0,5.6113,5.6115h40.1574a5.6176,5.6176,0,0,0,5.6112-5.6115v-245A5.6176,5.6176,0,0,0,143.6737,141.5091Z" />
      <path d="M470.97,146.0349a5.7,5.7,0,0,0-5.56-4.5258h-52.853a5.697,5.697,0,0,0-5.5629,4.5425L356.9135,391.4364a5.2467,5.2467,0,0,0,5.1407,6.2959h39.1623a5.239,5.239,0,0,0,5.1675-4.337l9.0661-51.4771h45.4845l9.0661,51.4774a5.2385,5.2385,0,0,0,5.167,4.3367H516.68a5.2467,5.2467,0,0,0,5.1379-6.3116Zm-16.938,155.764H422.3532l15.8387-91.4753Z" />
      <path d="M695.4462,141.5091H657.0573a5.5988,5.5988,0,0,0-5.5309,4.6629l-28.4451,165.84a.3706.3706,0,0,1-.0357.1211.3817.3817,0,0,1-.1371.0245.2931.2931,0,0,1-.1423-.031.6771.6771,0,0,1-.03-.1148l-28.4427-165.84a5.5988,5.5988,0,0,0-5.5309-4.6629H548.0138a5.6114,5.6114,0,0,0-5.4943,6.75l50.321,242.8271a8.37,8.37,0,0,0,8.164,6.6458h41.4516a8.37,8.37,0,0,0,8.164-6.6455L700.941,148.2592a5.612,5.612,0,0,0-5.4948-6.75Z" />
      <path d="M860.675,355.4676H793.12a1.4781,1.4781,0,0,1-1.4765-1.4767V290.44a1.4781,1.4781,0,0,1,1.4765-1.4766h54.1876a7.2554,7.2554,0,0,0,7.2473-7.2471v-27.77a7.2553,7.2553,0,0,0-7.2473-7.2471H793.12a1.4781,1.4781,0,0,1-1.4765-1.4767V185.2505a1.4781,1.4781,0,0,1,1.4765-1.4767h66.3765a7.2554,7.2554,0,0,0,7.2474-7.2471v-27.77a7.2555,7.2555,0,0,0-7.2474-7.2471H747.51a7.2553,7.2553,0,0,0-7.2468,7.2471v241.729a7.2552,7.2552,0,0,0,7.2468,7.2471H860.675a7.2552,7.2552,0,0,0,7.2469-7.2471V362.7147A7.2552,7.2552,0,0,0,860.675,355.4676Z" />
      <path d="M1056.2063,141.5091h-36.092a5.6843,5.6843,0,0,0-5.6779,5.6777V281.191c0,.1167,0,.39-.4246.39-.1812,0-.2479-.0523-.323-.2545L962.9015,145.2023a5.7008,5.7008,0,0,0-5.3192-3.6932H916.7041a5.6843,5.6843,0,0,0-5.6779,5.6777V392.0546a5.6843,5.6843,0,0,0,5.6779,5.6777h36.0944a5.6843,5.6843,0,0,0,5.678-5.6777V272.39c0-.1987.0535-.2468.0821-.2726a.5353.5353,0,0,1,.3429-.1179c.1667,0,.2343.0507.3151.2362l53.1563,122.0854a5.6765,5.6765,0,0,0,5.2055,3.4112h38.6279a5.6843,5.6843,0,0,0,5.678-5.6777V147.1868A5.6843,5.6843,0,0,0,1056.2063,141.5091Z" />
      <path d="M192.5791,356.1828h107.686A10.0672,10.0672,0,0,1,310.3324,366.25v21.4146a10.0677,10.0677,0,0,1-10.0677,10.0677H192.5791a10.0677,10.0677,0,0,1-10.0677-10.0677V366.25A10.0677,10.0677,0,0,1,192.5791,356.1828Z" />
      <path d="M192.5789,248.8461H300.2652a10.0672,10.0672,0,0,1,10.0672,10.0672v21.4146a10.0674,10.0674,0,0,1-10.0674,10.0674H192.5791a10.0677,10.0677,0,0,1-10.0677-10.0677V258.9135A10.0674,10.0674,0,0,1,192.5789,248.8461Z" />
      <path d="M192.5791,141.5091h107.686a10.0672,10.0672,0,0,1,10.0672,10.0672V172.991a10.0677,10.0677,0,0,1-10.0677,10.0677H192.5791a10.0677,10.0677,0,0,1-10.0677-10.0677V151.5768A10.0677,10.0677,0,0,1,192.5791,141.5091Z" />
      <path d="M1903.3841,181.1646a2.2875,2.2875,0,0,0-1.9512-1.09h-6.3389a60.0734,60.0734,0,0,0-8.3755.5185,61.6381,61.6381,0,0,0-26.3344,8.3863,52.3613,52.3613,0,0,0-15.3828,15.666,111.6763,111.6763,0,0,0-10.7163,22.8921c-3.127,9.1133-7.0074,19.1081-11.5293,29.707l-18.7393,46.49a56.14,56.14,0,0,0,6.5.39l.0269.0268a54.56,54.56,0,0,0,16.708-2.7846,83.8178,83.8178,0,0,0,25.6719-13.742,112.5262,112.5262,0,0,0,22.01-22.7746,166.8351,166.8351,0,0,0,16.7349-28.4351,144.2667,144.2667,0,0,0,10.0058-29.8994,87.0436,87.0436,0,0,0,2.106-24.699Z" />
      <path d="M2064.1912,159.6051C2051.7293,3.61,1857.6248,3.8084,1740.8743,1.0579c-130.6377-3.0776-475.4067-4.5564-512.6138,72.481-32.3173,66.9128,26.7813,91.0691,46.1919,259.75,3.0572,131.3543-.5171,201.066,535.2559,188.4388,42.2627-.9961,81.3491-22.337,103.3662-56.4446l119.4419-185.0342C2056.0184,243.84,2067.552,201.6756,2064.1912,159.6051Zm-338.2822,7.7436a1.8968,1.8968,0,0,1,.1235-.2063l.9194-1.3513,1.625-.585a28.8217,28.8217,0,0,1,9.3438-1.8071h.0259a14.3792,14.3792,0,0,1,6.4233,1.4172,14.6711,14.6711,0,0,1,7.7959,9.2561,21.6962,21.6962,0,0,1-.1777,10.8946,17.3039,17.3039,0,0,1-5.6372,9.2563,10.4575,10.4575,0,0,1-6.78,2.4434,12.8892,12.8892,0,0,1-4.8242-1.053,19.6031,19.6031,0,0,1-9.3184-12.1162,21.4451,21.4451,0,0,1-1.041-7.9175A14.3636,14.3636,0,0,1,1725.909,167.3487Zm-213.18-1.3726a144.6115,144.6115,0,0,0-19.4375,25.9092,334.5,334.5,0,0,0-18.4253,35.188c-5.6865,12.3447-11.4546,25.6426-17.06,39.64-5.2216,12.8347-10.1142,25.7268-14.9262,38.8274s-8.9668,23.977-12.6841,33.2434a231.0992,231.0992,0,0,1-10.417,22.7727c-3.5806,6.5092-7.3252,9.7375-11.2056,9.7988-18.9712.2986-11.4341-26.0815-10.3086-31.7878a165.0439,165.0439,0,0,1,6.8887-24.4532c3.0347-8.2724,6.2608-16.1382,9.5962-23.3886l1.6943-3.7649,2.0508-4.451c1.75-3.7656,3.2256-7.0822,4.5381-9.9658,1.3936-3.43,3.335-7.699,5.6045-12.6679q1.6392-3.5414,3.4438-7.4878l.9576-2.03c1.3667-2.9392,2.7885-6.0471,4.3193-9.3081l3.335-7.3062,1.6128-3.4858c1.6948-3.68,3.4179-7.4033,5.14-11.1968,3.3354-7.4749,6.7524-14.907,10.0879-22.0742l8.6655-18.63c.4112-.9517.8477-1.8335,1.2583-2.7014l.1636-.35.5117-1.06c-2.0723.1963-4.6826.5727-7.6465,1.13-6.9712,1.3154-15.31,3.1486-24.768,5.5146l-28.2134,6.9985a248.8735,248.8735,0,0,1-27.5288,5.3887,107.492,107.492,0,0,1-13.5606.9385,64.0741,64.0741,0,0,1-9.2949-.63,17.8126,17.8126,0,0,1-15.5552-11.1013l-.792-2.3223,1.1753-2.1975c1.6123-3.0506,5.4951-7.334,21.3233-13.4229,10.7983-4.1567,24.6592-8.553,41.226-13.0451,16.2935-4.4092,34.9922-8.9856,55.4957-13.6053,20.9956-4.6745,41.9917-9.0422,62.4682-12.9885,20.229-3.8916,41.1431-7.67,62.2207-11.1977,20.5586-3.4991,38.8194-6.2986,54.2935-8.3978,15.0351-2.0861,28.5132-3.5979,38.82-4.3955,4.1-.2937,6.998-.4343,9.377-.4343,7.08,0,10.2509,1.2737,11.6459,4.6892a19.1963,19.1963,0,0,1,.6832,10.0926,11.6735,11.6735,0,0,1-8.7754,9.7277l-.5743.126-9.5405,1.5674c-8.6118,1.4136-18.3984,3.01-28.7056,4.76-12.4384,2.0713-25.67,4.4087-41.6357,7.208-17.0864,3.0523-29.8252,5.39-41.28,7.5869-14.5166,2.7151-26.791,5.1089-37.5078,7.334A36.9391,36.9391,0,0,0,1512.7288,165.9761Zm96.0254,72.4356a263.6645,263.6645,0,0,0-26.2808,35.7119c-7.7954,12.6626-14.8281,24.8306-20.7949,36.064l-14.727,27.8469c-5.4346,10.2307-8.9385,13.8584-13.229,13.8586a11.0115,11.0115,0,0,1-5.587-2.21l-.4316-.2339-1.0156-.5456c-1.041-.5853-1.7774-1.0145-2.336-1.3-3.936-1.937-3.4282-6.5779-2.7172-13.0781v-.0913c.7876-6.4351,1.6254-12.6875,2.59-19.11,1.168-8.112,2.6406-16.6662,4.3677-25.4028,1.5737-8.3589,3.5293-17.252,5.7631-26.5606a207.8716,207.8716,0,0,1,6.7041-22.7119,47.2733,47.2733,0,0,1,7.9214-14.976,8.97,8.97,0,0,1,6.3741-2.9l.0249-.0126a8.36,8.36,0,0,1,5.7641,2.5468,43.56,43.56,0,0,1,5.3574,6.11c1.0411,1.417,2.1841,2.7695,3.0474,3.7832a245.7026,245.7026,0,0,1,19.272-23.0625,134.9776,134.9776,0,0,1,25.8735-21.3726,36.2481,36.2481,0,0,1,8.5576-3.7832c3.9868-1.43,8.5572-2.99,14.0923-4.4851s11.0449-2.7695,16.4282-3.7832a77.2658,77.2658,0,0,1,13.4834-1.43h1.65a14.6405,14.6405,0,0,1,12.0606,5.07c2.9712,3.8228,2.3359,9.1-1.9038,15.6008l-1.524,2.3274h-2.7929A64.5822,64.5822,0,0,0,1639.96,211.11,155.3769,155.3769,0,0,0,1608.7542,238.4117Zm78.8408,110.75-.94,1.6907-1.8023.6367a14.6008,14.6008,0,0,1-5.4087.9367,20.9893,20.9893,0,0,1-3.7324-.351,11.4677,11.4677,0,0,1-8.9634-7.229l-.71-1.7415.5835-1.7414a743.4707,743.4707,0,0,1,25.1631-70.84,206.4616,206.4616,0,0,1,19.3994-37.3371c5.0718-6.9859,8.7768-9.8345,12.6816-9.8414a7.3126,7.3126,0,0,1,6.0064,3.1314c2.8183,3.8225,2.9458,10.687.3554,22.946a258.75,258.75,0,0,1-13.686,41.2376A507.334,507.334,0,0,1,1687.595,349.1622Zm242.8184-130.6257a106.6516,106.6516,0,0,1-12.2881,30.8723,180.0951,180.0951,0,0,1-20.209,28.3173,198.0924,198.0924,0,0,1-23.9453,23.4,125.0431,125.0431,0,0,1-23.9453,16.083c-5.9063,2.9985-13.4424,7.1088-35.7525,9.2307-10.5937,1.0049-13.7793-3.72-18.3061,2.5976-27.4463,50.3225-37.2007,80.6067-47.9385,108.1653-3.0254,7.7608-5.687,17.4351-9.0171,28.3655l-.123.4062a11.6925,11.6925,0,0,1-4.2652,5.2,12.79,12.79,0,0,1-5.9917,2.2717h-1.0957a8.2625,8.2625,0,0,1-5.206-1.2988c-12.7368-9.8775,13.1113-77.71,15.6235-85.2464,7.4937-28.9907,67.1109-134.5317,56.544-173.7368-.481-1.769-1.732-3.2334-1.6519-5.0669a7.0252,7.0252,0,0,1,2.1592-5.425,99.9312,99.9312,0,0,1,23.31-21.4331,130.6207,130.6207,0,0,1,28.36-13.9771,138.2573,138.2573,0,0,1,31-6.9963,187.4446,187.4446,0,0,1,19.605-1.0425,100.33,100.33,0,0,1,11.7641.5879c.064.0107.1285,0,.187.0107,14.8272,3.5332,20.7652,14.3833,23.5069,27.6814C1934.8279,197.6324,1932.7542,208.4613,1930.4134,218.5365Z" />
    </g>
  </g>
</svg>