<svg xmlns="http://www.w3.org/2000/svg" viewBox="0 0 1449.7 365"><defs><style>.white{fill:#fff;}</style></defs><g id="Calque_2" data-name="Calque 2"><g id="Calque_1-2" data-name="Calque 1"><path class="white" d="M1044.24,131.51l0,0h0Z"/><path class="white" d="M1427.2,195.51c16.39-25.4,24.44-54.81,22.1-84.16C1440.6,2.52,1305.19,2.66,1223.74.74,1132.6-1.41,892.07-2.44,866.11,51.3,843.57,98,884.8,114.84,898.34,232.52c2.13,91.64-.36,140.27,373.42,131.46,29.48-.69,56.75-15.58,72.11-39.38ZM1195,129.84l.62-.91,1-.37a17.92,17.92,0,0,1,5.84-1.13h0a9,9,0,0,1,4,.89,9.18,9.18,0,0,1,4.87,5.78,13.62,13.62,0,0,1-.11,6.8,10.81,10.81,0,0,1-3.53,5.79,6.52,6.52,0,0,1-4.23,1.52,8,8,0,0,1-3-.65,12.25,12.25,0,0,1-5.82-7.57,13.2,13.2,0,0,1-.65-5A8.93,8.93,0,0,1,1195,129.84Zm-156.85,37.37c-3.55,7.71-7.15,16-10.65,24.76-3.26,8-6.32,16.07-9.33,24.25s-5.6,15-7.92,20.77a143.51,143.51,0,0,1-6.51,14.22c-2.23,4.07-4.57,6.12-7,6.12a4.7,4.7,0,0,1-2.23-.59l-.52-.23-1.74-1.75-.08-.1c-.26-.27-.5-.49-.67-.68a3.62,3.62,0,0,1-.37-.4l-.7-.66-.21-.95a33.15,33.15,0,0,1,.09-14.5,106.54,106.54,0,0,1,4.3-15.27c1.89-5.17,3.91-10.08,6-14.61l1.06-2.35,1.28-2.78c1.1-2.35,2-4.43,2.84-6.23.87-2.14,2.08-4.81,3.5-7.91q1-2.2,2.15-4.68l.6-1.26c.85-1.84,1.74-3.78,2.7-5.82l2.08-4.56,1-2.18c1.05-2.3,2.13-4.62,3.21-7,2.08-4.67,4.21-9.32,6.3-13.79l5.41-11.64c.26-.59.53-1.14.79-1.69l.1-.22.32-.66c-1.3.13-2.93.36-4.78.71-4.35.82-9.56,2-15.47,3.44L996,143.35a155.05,155.05,0,0,1-17.2,3.37,68.34,68.34,0,0,1-8.47.59,38.9,38.9,0,0,1-5.8-.4,11.11,11.11,0,0,1-9.72-6.93l-.5-1.45.74-1.37c1-1.91,3.43-4.59,13.32-8.39,6.74-2.6,15.4-5.34,25.75-8.15,10.18-2.75,21.86-5.61,34.66-8.5,13.12-2.92,26.23-5.64,39-8.11s25.7-4.79,38.87-7c12.84-2.19,24.25-3.94,33.91-5.25,9.4-1.3,17.81-2.25,24.25-2.74,2.56-.19,4.37-.28,5.86-.28,4.42,0,6.4.8,7.27,2.93a12,12,0,0,1,.43,6.31,7.28,7.28,0,0,1-5.48,6.07l-.36.08-6,1c-5.38.88-11.49,1.88-17.93,3-7.77,1.3-16,2.76-26,4.51-10.67,1.9-18.63,3.36-25.78,4.74-9.07,1.69-16.74,3.19-23.43,4.58a23.12,23.12,0,0,0-11.72,7.12,90.92,90.92,0,0,0-12.14,16.19A208.7,208.7,0,0,0,1038.11,167.21Zm83.64,7.08a164.47,164.47,0,0,0-16.42,22.31c-4.87,7.91-9.26,15.51-13,22.52l-9.2,17.4c-3.39,6.39-5.58,8.65-8.26,8.65a6.75,6.75,0,0,1-3.49-1.38l-.27-.14-.64-.34c-.65-.37-1.11-.64-1.45-.82-2.46-1.21-2.15-4.1-1.7-8.17v0c.49-4,1-7.93,1.62-11.94.73-5.07,1.65-10.41,2.72-15.87,1-5.22,2.21-10.77,3.6-16.59a131.74,131.74,0,0,1,4.19-14.18,29.54,29.54,0,0,1,5-9.36,5.6,5.6,0,0,1,4-1.81h0a5.23,5.23,0,0,1,3.6,1.59,27.54,27.54,0,0,1,3.34,3.82c.65.88,1.37,1.73,1.91,2.36a153.27,153.27,0,0,1,12-14.4,83.82,83.82,0,0,1,16.16-13.35,22.6,22.6,0,0,1,5.34-2.37c2.49-.89,5.35-1.87,8.81-2.8s6.89-1.73,10.26-2.36a48.62,48.62,0,0,1,8.42-.9h1a9.16,9.16,0,0,1,7.53,3.17c1.86,2.39,1.46,5.69-1.19,9.75l-1,1.45H1163a40.27,40.27,0,0,0-21.73,6.77A96.87,96.87,0,0,0,1121.75,174.29ZM1171,243.47l-.58,1.05-1.13.4a9.05,9.05,0,0,1-3.38.59,13.93,13.93,0,0,1-2.33-.22,7.17,7.17,0,0,1-5.6-4.52l-.44-1.09.36-1.08a464.12,464.12,0,0,1,15.72-44.25A129.43,129.43,0,0,1,1185.73,171c3.17-4.36,5.48-6.14,7.92-6.14a4.53,4.53,0,0,1,3.75,2c1.76,2.39,1.84,6.68.22,14.34a161.39,161.39,0,0,1-8.55,25.76A315.54,315.54,0,0,1,1171,243.47Zm116.42-30a81.57,81.57,0,0,1-15,10,92.6,92.6,0,0,1-9.31,4.06,29.43,29.43,0,0,1-6.37,1.31c-2.1.16-4.33.3-6.65.39a107,107,0,0,0-11.43,1.63,7,7,0,0,0-4.14,2.26,19.68,19.68,0,0,0-3.43,5.05,35.68,35.68,0,0,0-2.33,6.15,57.84,57.84,0,0,1-1.89,5.9c-2.44,6-4.72,11.73-6.8,17.05-2.68,7-4.36,11.48-5.82,15.43-2.22,6-4,11-5.54,15.72-1.66,4.93-3.55,10.89-5.63,17.72l-.08.25a7.23,7.23,0,0,1-2.66,3.25,7.87,7.87,0,0,1-3.75,1.42h-.68a6.7,6.7,0,0,1-3.25-.81,6.1,6.1,0,0,1-2.87-4.69,62.39,62.39,0,0,1,1.24-25,185.81,185.81,0,0,1,8.12-24.45l.3-.74.52-1.21c3.17-7.63,6.17-14.84,9.15-21.84a98.35,98.35,0,0,0,6.67-22.27,8.84,8.84,0,0,1,2.53-4.25c1.29-1.53,2.75-3.18,4.06-4.59s2.54-2.88,3.62-4.17l.25-.31c1.1-1.36,1.51-1.89,1.62-2.07,2.22-4.9,4.52-9.47,6.84-13.57a61,61,0,0,0,5.06-11.46,29.38,29.38,0,0,0,1.52-10.52,23.29,23.29,0,0,0-3.55-10.66,4.73,4.73,0,0,1-1-3.17,4.34,4.34,0,0,1,1.34-3.38,62.7,62.7,0,0,1,14.56-13.4,81.73,81.73,0,0,1,17.72-8.72,85.86,85.86,0,0,1,19.37-4.37,116.28,116.28,0,0,1,12.24-.65,63.08,63.08,0,0,1,7.41.37h1.06l.81.69a33.2,33.2,0,0,1,11.2,16.88,40.32,40.32,0,0,1,.22,19.1,66.55,66.55,0,0,1-7.68,19.29,112.81,112.81,0,0,1-12.62,17.69A124.38,124.38,0,0,1,1287.41,213.46Z"/><path class="white" d="M1306,139.26a7.79,7.79,0,0,0-4-1.09h-1.46a45.67,45.67,0,0,0-21.68,5.56,32.77,32.77,0,0,0-9.62,9.79,69.79,69.79,0,0,0-6.69,14.3c-1.95,5.69-4.38,11.93-7.2,18.55l-.14.33a52.51,52.51,0,0,0-2.45,4.87c-.28.64-.58,1.28-.88,1.94-.21.44-.42.89-.61,1.33-.77,1.71-1.42,3.13-2.06,4.48l-1,2.32-.22.49c-.79,1.77-1.55,3.39-2.27,5q-.33.69-.57,1.29l-.27.62c-.55,1.21-.92,2-1.19,2.68v3.68a36.72,36.72,0,0,0,4.06.25h0a34,34,0,0,0,10.44-1.74,52.15,52.15,0,0,0,16-8.58A69.73,69.73,0,0,0,1288,191.12a104.51,104.51,0,0,0,10.46-17.76,89.85,89.85,0,0,0,6.24-18.67A54.12,54.12,0,0,0,1306,139.26Z"/><path class="white" d="M73.94,160.48a9.63,9.63,0,0,1-9.63,9.63H45.46a9.63,9.63,0,0,1-9.62-9.63V97.88a7.55,7.55,0,0,0-7.55-7.55H7.55A7.55,7.55,0,0,0,0,97.88V272.1a7.55,7.55,0,0,0,7.55,7.55H28.29a7.55,7.55,0,0,0,7.55-7.55V214a9.63,9.63,0,0,1,9.62-9.63H64.31A9.63,9.63,0,0,1,73.94,214V272.1a7.55,7.55,0,0,0,7.55,7.55h21A7.55,7.55,0,0,0,110,272.1V97.88a7.55,7.55,0,0,0-7.55-7.55h-21a7.55,7.55,0,0,0-7.55,7.55Z"/><path class="white" d="M278,98.13,245.81,268.29a9.58,9.58,0,0,0,9.41,11.36h13.49a9.59,9.59,0,0,0,9.46-8l4.59-28.05a6.55,6.55,0,0,1,6.48-5.51h24.32a6.54,6.54,0,0,1,6.49,5.55l4.41,28a9.58,9.58,0,0,0,9.46,8.09h12.49a9.58,9.58,0,0,0,9.42-11.34L324.11,98.16a9.57,9.57,0,0,0-9.42-7.83H287.37A9.59,9.59,0,0,0,278,98.13ZM311.67,219a6.8,6.8,0,0,1-3.22.74H294.12a6.8,6.8,0,0,1-3.22-.74,6.57,6.57,0,0,1-3.47-6.71l7.35-54a6.56,6.56,0,0,1,13,0l7.35,54A6.57,6.57,0,0,1,311.67,219Z"/><path class="white" d="M435.17,203.23a6.57,6.57,0,0,1-13,.07L405.46,97.5a8.5,8.5,0,0,0-8.39-7.17H385.16a8.49,8.49,0,0,0-8.35,10l31.06,172.33a8.5,8.5,0,0,0,8.35,7h25.37a8.49,8.49,0,0,0,8.35-7l31.49-172.33a8.49,8.49,0,0,0-8.35-10H459.13a8.5,8.5,0,0,0-8.4,7.25Z"/><path class="white" d="M552.64,240.49V208.78a17.43,17.43,0,0,1,17.43-17.43h11.09a5.77,5.77,0,0,0,5.78-5.77V174.67a5.77,5.77,0,0,0-5.78-5.77H570.07a17.43,17.43,0,0,1-17.43-17.44V129.73a17.43,17.43,0,0,1,17.43-17.43h16.7a10.87,10.87,0,0,0,10.87-10.86v-.24a10.87,10.87,0,0,0-10.87-10.87h-59.1A10.87,10.87,0,0,0,516.8,101.2V268.78a10.87,10.87,0,0,0,10.87,10.87h59.59a10.87,10.87,0,0,0,10.86-10.87h0a10.86,10.86,0,0,0-10.86-10.86H570.07A17.43,17.43,0,0,1,552.64,240.49Z"/><path class="white" d="M719.32,90.33a12.16,12.16,0,0,0-12.16,12.16v58.75a6.57,6.57,0,0,1-12.61,2.57L663.93,98.65a13.67,13.67,0,0,0-12.58-8.32h-9.44a5.77,5.77,0,0,0-5.77,5.78V273.87a5.77,5.77,0,0,0,5.77,5.78h18a5.78,5.78,0,0,0,5.78-5.78V203.75a6.57,6.57,0,0,1,12.67-2.42L709.08,271a13.66,13.66,0,0,0,12.71,8.65h7.89a5.77,5.77,0,0,0,5.77-5.78V96.11a5.77,5.77,0,0,0-5.77-5.78Z"/><path class="white" d="M144.81,279.61h61.12c3.75,0,6.8-2.59,6.8-5.78V261.6c0-3.19-3-5.78-6.8-5.78H144.81c-3.76,0-6.8,2.59-6.8,5.78v12.23C138,277,141.05,279.61,144.81,279.61Z"/><path class="white" d="M144.81,197.42h61.12c3.75,0,6.8-2.59,6.8-5.78V179.4c0-3.19-3-5.77-6.8-5.77H144.81c-3.76,0-6.8,2.58-6.8,5.77v12.24C138,194.83,141.05,197.42,144.81,197.42Z"/><path class="white" d="M144.81,114.42h61.12c3.75,0,6.8-2.58,6.8-5.77V96.41c0-3.19-3-5.78-6.8-5.78H144.81c-3.76,0-6.8,2.59-6.8,5.78v12.24C138,111.84,141.05,114.42,144.81,114.42Z"/></g></g></svg>