<svg xmlns="http://www.w3.org/2000/svg" viewBox="0 0 1192.975 1192.752">
  <g id="Calque_2" data-name="Calque 2" >
    <g id="Calque_2-2" data-name="Calque 2">
      <path
        d="M643.021,968.138H717.77a11.337,11.337,0,0,0,11.338-11.35l-.516-512.237a11.339,11.339,0,0,1,11.339-11.35h75.284a11.339,11.339,0,0,0,11.339-11.339V354.4a11.339,11.339,0,0,0-11.339-11.339H643.021A11.338,11.338,0,0,0,631.683,354.4V956.8A11.338,11.338,0,0,0,643.021,968.138Z" />
      <path
        d="M922.67,1021.59l-8.031,6.627c-93.359,77.049-211.9,119.483-333.788,119.483-.854,0-1.715,0-2.567-.006-141.628-.692-275.123-56.4-375.892-156.857C4.543,793.6-10.455,486.108,167.5,275.583l6.751-7.985-31.929-32.17-8.044,9.47A561.006,561.006,0,0,0,32.541,421.506,570.515,570.515,0,0,0,.123,624.269C3.191,774.608,63.744,916.086,170.629,1022.64c109.286,108.948,254.068,169.358,407.7,170.1.952,0,1.9.008,2.846.008a570.306,570.306,0,0,0,192.7-33.271,564.467,564.467,0,0,0,171.155-97.745l9.586-7.97Z" />
      <path
        d="M517.915,343.153H448.743a17.008,17.008,0,0,0-17.008,17.008v249.26c0,1.387-1.552,2.51-3.465,2.51H310.753a17.008,17.008,0,0,0-17.008,17.008V682a17.008,17.008,0,0,0,17.008,17.008H428.27c1.913,0,3.465,1.124,3.465,2.51V951.034a17.008,17.008,0,0,0,17.008,17.008h69.172a17.008,17.008,0,0,0,17.008-17.008V360.161A17.008,17.008,0,0,0,517.915,343.153Zm9.008,607.881a9.018,9.018,0,0,1-9.008,9.008H448.743a9.018,9.018,0,0,1-9.008-9.008V701.522c0-5.893-5.036-10.51-11.465-10.51H310.753A9.018,9.018,0,0,1,301.745,682V628.939a9.018,9.018,0,0,1,9.008-9.008H428.27c6.429,0,11.465-4.616,11.465-10.51V360.161a9.018,9.018,0,0,1,9.008-9.008h69.172a9.018,9.018,0,0,1,9.008,9.008Z" />
      <path
        d="M1012.651,180.231C898.9,66.44,747.449,2.46,586.2.076a614.174,614.174,0,0,0-415.539,152.7l-3.708,3.253,94.476,95.18,3.271-2.782C457.832,84.241,738.875,95.864,918.427,275.468c90.977,91.017,141.033,211.943,140.947,340.5a480.2,480.2,0,0,1-117.663,314.5l-2.824,3.252,94.448,95.151,3.282-3.674a614.2,614.2,0,0,0,156.358-409.118C1193.1,451.477,1129.057,296.691,1012.651,180.231ZM951.526,933.283A487.864,487.864,0,0,0,1068.65,615.974c.087-131.037-50.933-254.293-143.663-347.065-88.349-88.374-205.065-139.74-328.645-144.638-121.685-4.833-240.318,35.745-334.366,114.322L180.5,156.511A604.625,604.625,0,0,1,586.058,9.351c158.826,2.348,308,65.364,420.031,177.439C1120.744,301.5,1183.821,453.95,1183.7,616.07a605.089,605.089,0,0,1-150.736,399.259Z" />
    </g>
  </g>
</svg>