<svg xmlns="http://www.w3.org/2000/svg" viewBox="0 0 1192.975 1192.752">
  <path d="M643.021,968.138H717.77a11.337,11.337,0,0,0,11.338-11.35l-.516-512.237a11.339,11.339,0,0,1,11.339-11.35h75.284a11.339,11.339,0,0,0,11.339-11.339V354.4a11.339,11.339,0,0,0-11.339-11.339H643.021A11.338,11.338,0,0,0,631.683,354.4V956.8A11.338,11.338,0,0,0,643.021,968.138Z" />
  <path d="M517.915,343.153H448.743a17.008,17.008,0,0,0-17.008,17.008v249.26c0,1.387-1.552,2.51-3.465,2.51H310.753a17.008,17.008,0,0,0-17.008,17.008V682a17.008,17.008,0,0,0,17.008,17.008H428.27c1.913,0,3.465,1.124,3.465,2.51V951.034a17.008,17.008,0,0,0,17.008,17.008h69.172a17.008,17.008,0,0,0,17.008-17.008V360.161A17.008,17.008,0,0,0,517.915,343.153Zm9.008,607.881a9.018,9.018,0,0,1-9.008,9.008H448.743a9.018,9.018,0,0,1-9.008-9.008V701.522c0-5.893-5.036-10.51-11.465-10.51H310.753A9.018,9.018,0,0,1,301.745,682V628.939a9.018,9.018,0,0,1,9.008-9.008H428.27c6.429,0,11.465-4.616,11.465-10.51V360.161a9.018,9.018,0,0,1,9.008-9.008h69.172a9.018,9.018,0,0,1,9.008,9.008Z" />
</svg>