<svg xmlns="http://www.w3.org/2000/svg" viewBox="0 0 4457.569 1121.151" fill="white"><defs><style>.grey{fill:#292f33;}</style></defs><g id="Calque_2" data-name="Calque 2"><g id="Calque_1-2" data-name="Calque 1"><g id="HEAVENBULLE"><path id="BULLE" d="M4388.465,600.55c50.363-78.02,75.079-168.376,67.876-258.53C4429.636,7.735,4013.687,8.161,3763.5,2.267,3483.555-4.328,2744.744-7.5,2665.012,157.588,2595.759,300.977,2722.4,352.741,2764,714.211c6.551,281.481-1.108,430.867,1147.008,403.808,90.566-2.135,174.325-47.866,221.505-120.956Z"/><g id="HEAVEN"><path d="M308.572,311H222.325a12.065,12.065,0,0,0-12.052,12.052V519.54a5.52,5.52,0,0,1-5.514,5.514H115.864a5.52,5.52,0,0,1-5.514-5.514V323.049A12.065,12.065,0,0,0,98.3,311H12.051A12.065,12.065,0,0,0,0,323.049V849.242a12.065,12.065,0,0,0,12.051,12.052H98.3a12.066,12.066,0,0,0,12.052-12.052V643.53a5.519,5.519,0,0,1,5.514-5.513h88.895a5.519,5.519,0,0,1,5.514,5.513V849.242a12.066,12.066,0,0,0,12.052,12.052h86.247a12.065,12.065,0,0,0,12.051-12.052V323.049A12.065,12.065,0,0,0,308.572,311Z"/><path d="M1011.513,320.717A12.243,12.243,0,0,0,999.572,311H886.059a12.236,12.236,0,0,0-11.948,9.756L766.552,847.772a11.269,11.269,0,0,0,11.041,13.522H861.7a11.252,11.252,0,0,0,11.1-9.315l19.471-110.558h97.689l19.471,110.559a11.251,11.251,0,0,0,11.1,9.314h89.157a11.268,11.268,0,0,0,11.035-13.556ZM975.135,655.255H907.1l34.018-196.463Z"/><path d="M1493.627,311h-82.449a12.025,12.025,0,0,0-11.879,10.015L1338.207,677.19a.8.8,0,0,1-.076.26.832.832,0,0,1-.3.053.635.635,0,0,1-.306-.067,1.553,1.553,0,0,1-.064-.246l-61.087-356.178A12.025,12.025,0,0,0,1264.5,311h-87.517a12.052,12.052,0,0,0-11.8,14.5l108.075,521.526a17.978,17.978,0,0,0,17.534,14.273h89.027a17.978,17.978,0,0,0,17.534-14.273l108.075-521.527a12.052,12.052,0,0,0-11.8-14.5Z"/><path d="M1848.493,770.521H1703.4a3.175,3.175,0,0,1-3.171-3.172V630.86a3.175,3.175,0,0,1,3.171-3.171h116.38a15.582,15.582,0,0,0,15.565-15.565V552.481a15.582,15.582,0,0,0-15.565-15.565H1703.4a3.175,3.175,0,0,1-3.171-3.171v-128.8a3.174,3.174,0,0,1,3.171-3.171h142.559a15.582,15.582,0,0,0,15.565-15.565V326.562A15.582,15.582,0,0,0,1845.962,311H1605.447a15.583,15.583,0,0,0-15.565,15.565V845.729a15.583,15.583,0,0,0,15.565,15.565h243.046a15.582,15.582,0,0,0,15.564-15.565V786.086A15.582,15.582,0,0,0,1848.493,770.521Z"/><path d="M2268.441,311h-77.516a12.208,12.208,0,0,0-12.2,12.194V611c0,.251,0,.837-.911.837-.39,0-.533-.112-.694-.546L2068.048,318.929A12.244,12.244,0,0,0,2056.623,311h-87.8a12.208,12.208,0,0,0-12.194,12.194V849.1a12.208,12.208,0,0,0,12.194,12.194h77.521a12.209,12.209,0,0,0,12.195-12.194V592.093c0-.427.115-.53.176-.586a1.157,1.157,0,0,1,.737-.253c.358,0,.5.109.676.508L2174.3,853.968a12.191,12.191,0,0,0,11.18,7.326h82.962a12.208,12.208,0,0,0,12.194-12.194V323.191A12.208,12.208,0,0,0,2268.441,311Z"/><path d="M413.607,772.057h231.28a21.622,21.622,0,0,1,21.622,21.622v45.993a21.623,21.623,0,0,1-21.623,21.623H413.607a21.623,21.623,0,0,1-21.623-21.623V793.68A21.623,21.623,0,0,1,413.607,772.057Z"/><path d="M413.606,541.527H644.887a21.622,21.622,0,0,1,21.622,21.622v45.993a21.622,21.622,0,0,1-21.622,21.622H413.607a21.623,21.623,0,0,1-21.623-21.623V563.149A21.622,21.622,0,0,1,413.606,541.527Z"/><path d="M413.607,311h231.28a21.622,21.622,0,0,1,21.622,21.622v45.993a21.623,21.623,0,0,1-21.623,21.623H413.607a21.623,21.623,0,0,1-21.623-21.623V332.62A21.623,21.623,0,0,1,413.607,311Z"/></g></g><g id="TRIP"><path class="grey" d="M4177.011,395.577c-5.9-28.6-18.67-51.941-50.561-59.54-.127-.023-.265,0-.4-.023a215.65,215.65,0,0,0-25.3-1.265,403.422,403.422,0,0,0-42.169,2.242,297.374,297.374,0,0,0-66.68,15.049,281,281,0,0,0-61,30.063,214.946,214.946,0,0,0-50.136,46.1,15.107,15.107,0,0,0-4.644,11.669c-.173,3.943,2.518,7.093,3.552,10.9,22.729,84.327-105.5,311.335-121.621,373.692-5.4,16.21-61,162.111-33.6,183.357,3.093,2.4,7.266,2.828,11.2,2.793H3738a27.5,27.5,0,0,0,12.887-4.886,25.142,25.142,0,0,0,9.174-11.186l.265-.873c7.162-23.511,12.887-44.319,19.394-61.012,23.1-59.276,44.078-124.414,103.112-232.653,9.737-13.589,16.589-3.426,39.375-5.588,47.986-4.564,64.2-13.4,76.9-19.854a268.978,268.978,0,0,0,51.5-34.593,425.961,425.961,0,0,0,51.5-50.331,387.329,387.329,0,0,0,43.468-60.908,229.409,229.409,0,0,0,26.43-66.4C4177.046,440.654,4181.506,417.363,4177.011,395.577Zm-66.817,40.893a310.379,310.379,0,0,1-21.521,64.311,358.983,358.983,0,0,1-36,61.161,242.007,242.007,0,0,1-47.342,48.986,180.268,180.268,0,0,1-55.218,29.558,117.364,117.364,0,0,1-35.937,5.989l-.058-.057a120.78,120.78,0,0,1-13.98-.84l40.307-100c9.726-22.8,18.072-44.3,24.8-63.9a240.243,240.243,0,0,1,23.05-49.239,112.63,112.63,0,0,1,33.087-33.7,132.586,132.586,0,0,1,56.643-18.038,129.286,129.286,0,0,1,18.015-1.115h13.634a4.92,4.92,0,0,1,4.2,2.345l.85,1.4A187.2,187.2,0,0,1,4110.194,436.47Z"/><path id="T" class="grey" d="M3173.529,378.055c.905-2.037,1.823-3.944,2.706-5.81l.352-.754,1.1-2.28c-4.457.422-10.072,1.232-16.447,2.43-14.994,2.829-32.93,6.773-53.274,11.861l-60.683,15.054a535.43,535.43,0,0,1-59.213,11.59,231.091,231.091,0,0,1-29.167,2.019,137.81,137.81,0,0,1-19.993-1.355,38.312,38.312,0,0,1-33.457-23.878l-1.7-5h0l2.529-4.726c3.468-6.561,11.819-15.775,45.864-28.871,23.227-8.941,53.04-18.4,88.673-28.059,35.046-9.484,75.265-19.327,119.366-29.264,45.161-10.054,90.321-19.449,134.364-27.937,43.511-8.371,88.5-16.5,133.831-24.086,44.219-7.525,83.5-13.547,116.78-18.062,32.34-4.487,61.329-7.739,83.5-9.454,8.819-.632,15.052-.935,20.169-.935,15.229,0,22.049,2.74,25.05,10.086a41.3,41.3,0,0,1,1.469,21.709,25.108,25.108,0,0,1-18.875,20.923l-1.236.271-20.52,3.371c-18.523,3.041-39.574,6.474-61.743,10.238-26.755,4.455-55.214,9.482-89.555,15.5-36.751,6.565-64.151,11.592-88.789,16.318-31.224,5.84-57.625,10.989-80.676,15.775a79.447,79.447,0,0,0-40.337,24.536A311.033,311.033,0,0,0,3231.8,405a719.658,719.658,0,0,0-39.631,75.686c-12.231,26.552-24.638,55.155-36.693,85.262-11.232,27.606-21.756,55.336-32.106,83.514s-19.287,51.572-27.282,71.5a497.089,497.089,0,0,1-22.4,48.982c-7.7,14-15.756,20.945-24.1,21.076-40.805.643-24.594-56.1-22.173-68.372a355.065,355.065,0,0,1,14.817-52.6c6.527-17.793,13.48-34.7,20.641-50.307C3090.585,559.349,3146.526,438.777,3173.529,378.055Z"/><path id="R" class="grey" d="M3480.151,505.075a567.22,567.22,0,0,0-56.528,76.813c-16.766,27.236-31.893,53.408-44.728,77.57l-31.676,59.9c-11.689,22-19.226,29.808-28.455,29.808a23.683,23.683,0,0,1-12.016-4.754l-.928-.5-2.185-1.173c-2.239-1.259-3.823-2.182-5.024-2.8-8.466-4.166-7.374-14.149-5.845-28.13v-.2c1.694-13.841,3.5-27.289,5.572-41.1,2.512-17.448,5.679-35.848,9.394-54.639,3.385-17.979,7.591-37.107,12.4-57.129a447.027,447.027,0,0,1,14.42-48.852,101.67,101.67,0,0,1,17.039-32.212,19.285,19.285,0,0,1,13.709-6.237l.054-.028a17.988,17.988,0,0,1,12.4,5.478,93.826,93.826,0,0,1,11.524,13.142c2.239,3.048,4.7,5.957,6.553,8.137a528.787,528.787,0,0,1,41.453-49.605,290.3,290.3,0,0,1,55.652-45.97,77.911,77.911,0,0,1,18.406-8.137c8.575-3.076,18.406-6.433,30.312-9.648s23.756-5.957,35.335-8.137a166.326,166.326,0,0,1,29-3.076h3.55a31.492,31.492,0,0,1,25.942,10.906c6.39,8.222,5.024,19.574-4.1,33.556l-3.277,5.006H3622.1a138.909,138.909,0,0,0-74.823,23.292A334.235,334.235,0,0,0,3480.151,505.075Z"/><path class="grey" d="M3732.406,351.781l1.977-2.906,3.5-1.259a62,62,0,0,1,20.1-3.886h.056a30.93,30.93,0,0,1,13.817,3.048,31.559,31.559,0,0,1,16.768,19.909,46.673,46.673,0,0,1-.383,23.433,37.22,37.22,0,0,1-12.125,19.91,22.5,22.5,0,0,1-14.583,5.255,27.689,27.689,0,0,1-10.376-2.265,42.158,42.158,0,0,1-20.043-26.061,46.144,46.144,0,0,1-2.24-17.029,30.906,30.906,0,0,1,3.273-17.7A4.343,4.343,0,0,1,3732.406,351.781Z"/><path class="grey" d="M3603.363,730.26c.285-.945,1.255-3.745,1.255-3.745a1599.088,1599.088,0,0,1,54.124-152.37,444.045,444.045,0,0,1,41.726-80.309c10.909-15.026,18.878-21.153,27.277-21.168a15.729,15.729,0,0,1,12.919,6.735c6.062,8.223,6.336,22.987.765,49.355a556.622,556.622,0,0,1-29.438,88.7,1091.05,1091.05,0,0,1-62.261,125.833,36.022,36.022,0,0,1-2.021,3.637C3633.167,765.784,3596.255,753.812,3603.363,730.26Z"/></g></g></g></svg>