<svg xmlns="http://www.w3.org/2000/svg" width="148.079" height="36.94" viewBox="0 0 148.079 36.94">
  <g id="Groupe_16727" data-name="Groupe 16727" transform="translate(-20.731 -25.543)">
    <path id="Tracé_5676" data-name="Tracé 5676" d="M636.494,25.641l-34.437,2.493c-2.4.18-3.411,1.7-2.407,3.446a55.657,55.657,0,0,1,5.434,13.507c2.241,7.95,7.753,14.86,15.039,15.469,8.778.635,17.557,1.253,26.333,1.906,3.713.276,5.1-2.277,5.883-5.535q1.242-5.216,2.452-10.5C658.122,33.981,650.1,24.464,636.494,25.641ZM617.488,39.654c.108.878.228,1.771.366,2.674s.289,1.8.46,2.706a18.643,18.643,0,0,0,.6,2.18l.1.31c.067.214.171.493.281.79a12.7,12.7,0,0,1,.482,1.466.58.58,0,0,1-.179.541.9.9,0,0,1-.374.227,1.89,1.89,0,0,1-.4.079l-.308.028c-.036,0-.072.007-.106.008a.865.865,0,0,1-.879-.466,20.881,20.881,0,0,1-1.006-4.449c-.058-.367-.111-.7-.158-.976-.116-.663-.186-1.342-.253-2l-.053-.511q-.135-1.248-.247-2.526-.1-1.167-.218-2.415c-.748-.031-1.5-.121-2.291-.218-.3-.035-.6-.072-.9-.1l-.35-.041c-1.028-.113-2.307-.252-3.012-.371s-.74-.514-.789-.938c-.009-.076-.019-.163-.034-.259a2.344,2.344,0,0,1-.021-.291l-.005-.27.26-.014.223,0c.242,0,.579.01,1.006.044.786.067,1.732.118,2.772.176,3.579.2,8.481.462,11.423,1.629.625.249.763.58.769.812a1.719,1.719,0,0,1-.069.524.541.541,0,0,1-.6.4l-.646-.135a32.318,32.318,0,0,0-6.011-.848C617.345,37.928,617.411,39.008,617.488,39.654Zm13.262,2.313c0,.048,0,.1,0,.145a.322.322,0,0,1-.135.261c-.172.114-.425.038-.719-.054-.076-.024-.15-.048-.217-.064-3.186-.793-4.164-.336-4.421.178a3.194,3.194,0,0,0-.074,1.141,6.452,6.452,0,0,0,.171,1.157,10.1,10.1,0,0,0,.348,1.125q.215.572.409,1.141t.358,1.118a6.259,6.259,0,0,1,.225,1.16.982.982,0,0,1-.27.651,1.643,1.643,0,0,1-.351.281c-.059.04-.121.081-.194.137a.322.322,0,0,1-.205.083.286.286,0,0,1-.094-.013c-.286-.078-.437-.5-.714-1.456-.067-.227-.13-.445-.189-.612a20.921,20.921,0,0,1-.628-2.1c-.1-.411-.227-1.037-.347-1.62-.087-.426-.17-.831-.234-1.117-.05-.219-.11-.447-.171-.677-.236-.894-.458-1.738-.127-2.172a.7.7,0,0,1,.574-.265h.01a.666.666,0,0,1,.484.3,1.325,1.325,0,0,0,.12.125,6.977,6.977,0,0,1,6.206.588C630.766,41.534,630.757,41.775,630.75,41.967Zm1.933-3.552a.761.761,0,0,1-.252-.4,2.587,2.587,0,0,1-.076-.619.534.534,0,0,1,.263-.547.9.9,0,0,1,.484-.087.091.091,0,0,1,.024,0,.857.857,0,0,1,.507.247,2.318,2.318,0,0,1,.454.484,1.194,1.194,0,0,1,.227.524c.012.1.014.445-.484.55l-.079.008c-.123.012-.229.019-.322.021a2.027,2.027,0,0,1-.306-.014.86.86,0,0,1-.436-.158ZM635.259,49.3v0a1.139,1.139,0,0,1-.653.574.5.5,0,0,1-.171.034c-.173,0-.4-.083-.582-.455a5.393,5.393,0,0,1-.4-1.186c-.112-.493-.212-1.05-.3-1.66-.082-.591-.151-1.2-.2-1.8-.051-.578-.088-1.1-.113-1.563s-.039-.778-.043-.946c0-.058-.005-.171-.008-.341s-.005-.344,0-.523,0-.346,0-.51l-.008-.337a.813.813,0,0,1,.161-.733.478.478,0,0,1,.492-.068,1.035,1.035,0,0,1,.456.272,2,2,0,0,1,.322.446l.029.053,0,.061a10.147,10.147,0,0,0,.143,2.09c.131.732.264,1.386.407,2,.149.65.29,1.28.426,1.9a10.461,10.461,0,0,1,.23,1.982A1.517,1.517,0,0,1,635.259,49.3Zm12.952-1.587a2.81,2.81,0,0,1-.917.868c-1.414.91-6.259,1.244-6.509-.479-.2-1.352.687-1.252,1.156-1.148.387.085,4.117.844,4.811-.049a1.9,1.9,0,0,0,.083-.936c-.089-1.308-1.748-2.062-3.143-2.312-1.743-.308-3.307.021-3.646.778a1.3,1.3,0,0,0-.136.507,31.823,31.823,0,0,0,1.129,8.484c.566,2.3,1.015,3.414.753,3.8a2.964,2.964,0,0,1-.2.256c-.122.113-.181.173-.207.2l-.056.064-.21.027-.043,0c-.327.008-.549-.337-.624-.454a6.265,6.265,0,0,1-.521-1.082c-.172-.443-.349-.971-.529-1.572s-.35-1.216-.522-1.862c-.168-.63-.326-1.281-.471-1.933s-.272-1.239-.383-1.794-.2-1.044-.259-1.453a8.665,8.665,0,0,1-.1-.886,5.545,5.545,0,0,1,.429-2.476,3.843,3.843,0,0,1,1.275-1.557,4.693,4.693,0,0,1,1.867-.743,8.476,8.476,0,0,1,2.2-.094,6.182,6.182,0,0,1,1.841.44,6.689,6.689,0,0,1,1.609.928,4.708,4.708,0,0,1,1.163,1.336,3.618,3.618,0,0,1,.47,1.734A2.575,2.575,0,0,1,648.212,47.715Z" transform="translate(-486.734 0)"/>
    <g id="Groupe_16727-2" data-name="Groupe 16727" transform="translate(20.981 31.632)">
      <path id="Tracé_5677" data-name="Tracé 5677" d="M34.469,64.809c.005-.354-.078-.576-.252-.678a1.011,1.011,0,0,0-.506-.123.833.833,0,0,0-.442.126,1.776,1.776,0,0,0-.359.286,1.83,1.83,0,0,0-.323.435,1.122,1.122,0,0,0-.15.517l-.11,6.517a.163.163,0,0,1-.089.143l-1.22.624q-1.569.8-2.622,1.337c-.987.5-1.761.888-2.33,1.131-.49.21-.8.351-1.019.454l-.067.031c-.49.226-.643.177-.678.156-.063-.037-.076-.193-.086-.313,0-.031-.005-.061-.008-.089L23.07,65.237a.473.473,0,0,0-.306-.492,1.366,1.366,0,0,0-.4-.075,1.1,1.1,0,0,0-.4.069.639.639,0,0,0-.354.417l-.011.032v1.451c0,.787.029,1.589.085,2.383s.123,1.6.2,2.4c.077.823.143,1.623.2,2.378.056.776.084,1.573.084,2.367a.7.7,0,0,1-.117.472,1.436,1.436,0,0,1-.363.24,3.561,3.561,0,0,0-.435.243.757.757,0,0,0-.271.676.938.938,0,0,0,.05.264,1.627,1.627,0,0,0,.08.241l.075.17.174-.063a.7.7,0,0,1,.829.105,2.271,2.271,0,0,1,.476,1.065,10.414,10.414,0,0,1,.192,1.624c.031.627.068,1.185.114,1.707a5.351,5.351,0,0,0,.267,1.343.679.679,0,0,0,.882.484l.035-.015a1.512,1.512,0,0,0,.362-.333c.217-.248.246-.366.246-.45-.006-.669-.055-1.552-.1-2.412a21.447,21.447,0,0,1-.049-3.377.091.091,0,0,1,.048-.056l.68-.345c.331-.153.7-.337,1.167-.578s.95-.486,1.334-.676l1.127-.549.226-.11c.47-.225.861-.422,1.149-.569.349-.18.584-.3.74-.37l.095-.044c.371-.173.753-.352,1.123-.533q.044.4.1.924L33.4,84.174a.852.852,0,0,0,.274.554.687.687,0,0,0,.421.176h.028a.609.609,0,0,0,.36-.127l.544-.4a.492.492,0,0,0,.2-.454C34.627,78.964,34.412,68.7,34.469,64.809Z" transform="translate(-20.981 -64.008)" stroke="#000" stroke-miterlimit="10" stroke-width="0.5"/>
      <path id="Tracé_5678" data-name="Tracé 5678" d="M230.164,118.451l-.014,0-.2,0a2.514,2.514,0,0,1-.272-.011c-.118-.008-.214-.011-.3-.01l-.2,0-.259,0a5.011,5.011,0,0,0-1.212.1c-5.782,1.45-7.745.244-8.4-.6a2.332,2.332,0,0,1-.1-2.557,3.383,3.383,0,0,1,2.383-1.683,7.123,7.123,0,0,1,4.934.888,9.48,9.48,0,0,1,1.428,1.256,8.032,8.032,0,0,1,1.3,2.092l.017.038.177.033a1.847,1.847,0,0,0,.291.04c.111.009.213.017.307.026s.155.012.174.012h.07L230.3,118a9.53,9.53,0,0,0-.028-2.416,11.156,11.156,0,0,0-.576-2.456,15.186,15.186,0,0,0-1.082-2.358,9.84,9.84,0,0,0-1.506-2.02,7.821,7.821,0,0,0-1.893-1.469c-1.4-.747-2.551-.634-3.031-.213a.632.632,0,0,0-.2.723l.025.067.07-.019a3.626,3.626,0,0,1,3.507,1.2c1.195,1.237,1.78,2.9,1.559,3.622a.327.327,0,0,1-.161.214c-.23.114-.685-.056-1.211-.252a7.825,7.825,0,0,0-1.667-.477,8.081,8.081,0,0,0-2.54.032,5.917,5.917,0,0,0-1.94.679,5.4,5.4,0,0,0-1.361,1.085,4.349,4.349,0,0,0-.8,1.25,3.64,3.64,0,0,0-.285,1.142,3.958,3.958,0,0,0,.728,2.46,4.917,4.917,0,0,0,1.832,1.463,5.569,5.569,0,0,0,2.392.55h.045a30.029,30.029,0,0,0,5.478-.811c.972-.205,1.81-.382,2.424-.451a.461.461,0,0,0,.419-.446,2.144,2.144,0,0,0-.029-.347A.41.41,0,0,0,230.164,118.451Z" transform="translate(-186.116 -99.974)" stroke="#000" stroke-miterlimit="10" stroke-width="0.5"/>
      <path id="Tracé_5679" data-name="Tracé 5679" d="M319,108.9a3.258,3.258,0,0,0-2.271.325,19.423,19.423,0,0,0-1.585,3.833c-.792,2.169-1.778,4.869-2.165,5.079a.472.472,0,0,1-.406.021c-1.165-.427-2.695-4.343-3.812-7.2-.392-1-.731-1.871-1-2.452a1.655,1.655,0,0,0-1.436-.872,1.349,1.349,0,0,0-1.19.367.418.418,0,0,0-.012.443l.068.132c.189.366.542,1.048.882,1.773q.575,1.237,1.266,2.713c.458.982.94,1.98,1.434,2.965s1,1.919,1.493,2.734a16.122,16.122,0,0,0,1.405,2.034c.457.545.863.809,1.228.8l.05,0a1.2,1.2,0,0,0,1.013-.757c.522-1.034,1.043-2.3,1.594-3.646a59.352,59.352,0,0,1,3.562-7.572.636.636,0,0,0,.071-.531A.3.3,0,0,0,319,108.9Z" transform="translate(-260.091 -100.716)" stroke="#000" stroke-miterlimit="10" stroke-width="0.5"/>
      <path id="Tracé_5680" data-name="Tracé 5680" d="M416.846,119.049c-3.4,1.365-5.944,1.454-7.557.264-2.046-1.509-1.9-4.591-1.855-5.194.147-1.8,2.288-4.52,4.828-4.457a2.156,2.156,0,0,1,2.144,1.763c.059.4.087,1.758-2.038,2.461-.574.19-1.34.382-2.151.586-.477.12-.97.244-1.468.377a.565.565,0,0,0-.322.687.673.673,0,0,0,.741.592c4.026-.334,6.506-1.362,7.368-3.057a3.427,3.427,0,0,0-.228-3.273,4.42,4.42,0,0,0-2.961-2.057,6.21,6.21,0,0,0-4.454.789l-.041.029a5.9,5.9,0,0,0-1.457,1.292,7.035,7.035,0,0,0-1.29,2.322,8.776,8.776,0,0,0-.442,2.771,7.247,7.247,0,0,0,.645,3.106,5.428,5.428,0,0,0,3.468,3.054,6.638,6.638,0,0,0,1.673.207,9.051,9.051,0,0,0,5.726-2.109c.053-.083.035-.137.011-.167C417.137,118.973,417.038,118.977,416.846,119.049Z" transform="translate(-344.764 -100.718)" stroke="#000" stroke-miterlimit="10" stroke-width="0.5"/>
      <path id="Tracé_5681" data-name="Tracé 5681" d="M139.755,119.049c-3.4,1.365-5.944,1.454-7.557.264-2.046-1.509-1.9-4.591-1.855-5.194.147-1.8,2.293-4.52,4.828-4.457a2.156,2.156,0,0,1,2.144,1.763c.059.4.087,1.758-2.038,2.461-.574.19-1.34.382-2.151.586-.477.12-.97.244-1.468.377a.565.565,0,0,0-.322.687.673.673,0,0,0,.741.592c4.026-.334,6.505-1.362,7.368-3.057a3.428,3.428,0,0,0-.228-3.273,4.42,4.42,0,0,0-2.961-2.057,6.211,6.211,0,0,0-4.455.789l-.041.029a5.9,5.9,0,0,0-1.457,1.292,7.027,7.027,0,0,0-1.29,2.322,8.771,8.771,0,0,0-.442,2.771,7.247,7.247,0,0,0,.645,3.106,5.428,5.428,0,0,0,3.468,3.054,6.638,6.638,0,0,0,1.673.207,9.05,9.05,0,0,0,5.725-2.109c.054-.083.036-.137.011-.167C140.046,118.973,139.947,118.977,139.755,119.049Z" transform="translate(-111.54 -100.718)" stroke="#000" stroke-miterlimit="10" stroke-width="0.5"/>
      <path id="Tracé_5682" data-name="Tracé 5682" d="M510.872,117.541a13.909,13.909,0,0,0-.5-2.1,16.6,16.6,0,0,0-.837-2.121,9.119,9.119,0,0,0-1.2-1.888,6,6,0,0,0-1.6-1.365,3.908,3.908,0,0,0-1.966-.525,4.447,4.447,0,0,0-1.647.317,15.476,15.476,0,0,0-1.55.7l-.164.085q-.633.327-1.178.611a2.325,2.325,0,0,1-1.012.31c-.1,0-.132-.037-.149-.064a.735.735,0,0,1-.084-.2.568.568,0,0,0-.126-.237.406.406,0,0,0-.321-.116,1.406,1.406,0,0,0-.474.076.393.393,0,0,0-.253.411V113.2c0,.78.027,1.589.078,2.406s.143,1.7.277,2.6a14.208,14.208,0,0,0,.559,2.377,5.081,5.081,0,0,0,.957,1.738,1.9,1.9,0,0,0,1.475.676h.113v-.078a9.684,9.684,0,0,0-.187-1.877c-.125-.629-.266-1.252-.418-1.851-.157-.629-.3-1.244-.415-1.829a9.341,9.341,0,0,1-.184-1.837,4.1,4.1,0,0,1,.347-1.69,3.908,3.908,0,0,1,.953-1.315,4.177,4.177,0,0,1,1.423-.826,5.277,5.277,0,0,1,1.763-.282,2.667,2.667,0,0,1,1.857.849,6.91,6.91,0,0,1,1.493,2.31,13.841,13.841,0,0,1,.889,3.389,15.656,15.656,0,0,1,0,4.146.262.262,0,0,0,.15.242,1.467,1.467,0,0,0,.281.1,2.006,2.006,0,0,0,.333.055c.1.006.172.01.212.01a.808.808,0,0,0,.682-.435,2.786,2.786,0,0,0,.367-.935,8.891,8.891,0,0,0,.154-1.043c.031-.323.047-.594.047-.783A12.024,12.024,0,0,0,510.872,117.541Z" transform="translate(-422.332 -102.332)" stroke="#000" stroke-miterlimit="10" stroke-width="0.5"/>
    </g>
  </g>
</svg>
