<svg xmlns="http://www.w3.org/2000/svg" viewBox="0 0 24 24" height="24"><defs><style>.cls-1{fill:#1d1d1b;}</style></defs><g id="Calque_2" data-name="Calque 2"><g id="Calque_1-2" data-name="Calque 1"><path class="cls-1" d="M16.78,18.28s-.62-.06-.71.48a.5.5,0,0,0,.11.39.62.62,0,0,0,.45.23c4.21.39,6.09,1.43,6.1,1.76S19.5,22.9,12,22.9,1.28,21.56,1.28,21.14s1.88-1.37,6.09-1.76a.66.66,0,0,0,.45-.23.48.48,0,0,0,.11-.36v-.07a.62.62,0,0,0-.6-.45H7.23C3.9,18.59,0,19.52,0,21.14H0C0,22.85,4.82,24,12,24s12-1.15,12-2.86S20.11,18.59,16.78,18.28Z"/><path class="cls-1" d="M9.6,7.41h0A2.4,2.4,0,1,0,12,5,2.41,2.41,0,0,0,9.6,7.41Zm1.11,0A1.3,1.3,0,1,1,12,8.7a1.29,1.29,0,0,1-1.29-1.29"/><path class="cls-1" d="M12,22.55l3.25-4.28.09-.12,3.59-4.71a8.41,8.41,0,0,0-.81-11.13h0A9,9,0,0,0,12,0h-.16a9,9,0,0,0-6,2.31A8.38,8.38,0,0,0,5,13.42Zm5.83-9.88L12,20.33,6.1,12.65a7.1,7.1,0,0,1,.67-9.41h0a7.65,7.65,0,0,1,5.11-1.95H12a7.6,7.6,0,0,1,5.1,2A7.12,7.12,0,0,1,17.78,12.67Z"/></g></g></svg>