<svg xmlns="http://www.w3.org/2000/svg" viewBox="0 0 24.17888 24">
  <defs>
    <style>
      .cls-439287423 {
        opacity: 0;
      }

      .cls-342013021032012 {
        stroke: #7c7c7c;
        stroke-width: 0.1175px;
      }
    </style>
  </defs>
  <g id="Calque_2" data-name="Calque 2">
    <g id="Calque_1-2" data-name="Calque 1">
      <rect class="cls-439287423" x="0.08936" width="24" height="24" />
      <path id="PICTO_MAPS" data-name="PICTO MAPS" class="cls-342013021032012"
        d="M2.34417,13.58633c.11747.187.21616.37179.33664.55768L.80838,20.36689l5.78468-2.01156,5.49623,2.12746,3.91-1.52732.36075.37064-4.27128,1.66674L6.59249,18.83842l-6.50316,2.268Zm18.025,6.20279c.14214-.11762.26263-.23122.38312-.34711l2.61557.92488-4.39175-14.579L15.857,5.07075c-.144-.16237-.31255-.34769-.48066-.51006l.144-.02353,3.84068.85661,4.7284,15.68973Zm-6.07313-3.03a.59912.59912,0,0,1-.144-.72006,7.68092,7.68092,0,0,1-4.43981,1.39019,7.37791,7.37791,0,0,1-7.50966-7.243v-.00115A7.41675,7.41675,0,0,1,9.71225,2.89452a7.41868,7.41868,0,0,1,7.536,7.2671,7.01883,7.01883,0,0,1-1.6316,4.51368.68878.68878,0,0,1,.69567.16237L20.68,19.07251l-1.99292,1.85206Zm1.41716-1.59847L14.63272,16.1791a.17608.17608,0,0,0-.005.249l.005.00517,4.05382,3.86534,1.32134-1.2261-4.03331-3.91182a.32871.32871,0,0,0-.14215-.04532.18839.18839,0,0,0-.11919.043ZM2.681,10.18514a6.90308,6.90308,0,0,0,7.0244,6.78h.00646a6.92481,6.92481,0,0,0,7.05725-6.78A6.9445,6.9445,0,0,0,9.71182,3.38221a6.92265,6.92265,0,0,0-7.031,6.80064ZM7.45741,15.949l5.18311-5.74093,3.45525.85661-.04819.23122L12.73633,10.464,7.625,16.08672Zm-1.72784-.9048,2.856-3.14644L3.352,10.62406l.07229-.23007,5.59261,1.36437-3.0968,3.42471ZM3.42411,8.865,3.4964,8.6584l6.45625,1.54969,4.0574-4.35073.19035.16294L10.02551,10.464Zm10.22276.16237,1.6316-1.89567.16868.15951L14.08063,8.889l2.06219.43949-.07229.23523Z" />
    </g>
  </g>
</svg>