<svg id="Groupe_913" data-name="Groupe 913" xmlns="http://www.w3.org/2000/svg" width="35.555" height="24" viewBox="0 0 35.555 24">
  <path id="Tracé_5077" data-name="Tracé 5077" d="M27.866,36.868c.065,0,.236.021.408.021,5.348,0,10.7-.015,16.046.008a1.581,1.581,0,0,1,1.1.434c.34.411-.028.844-.309,1.2-2.052,2.6-4.117,5.2-6.154,7.815a1.636,1.636,0,0,1-1.442.674c-5.8-.015-11.6.036-17.4-.022a16.276,16.276,0,0,1-4.465-.574A8.047,8.047,0,0,1,12.329,33.08q3.905-3.945,7.812-7.889a7.026,7.026,0,0,1,9.873-.262,6.449,6.449,0,0,1,.968,8.124C30.069,34.4,28.917,35.6,27.866,36.868Zm15.253,1.645c-.244-.02-.349-.035-.455-.036-5.372,0-10.742-.01-16.113.014a1.3,1.3,0,0,0-.837.43c-.93,1.045-1.8,2.147-2.724,3.193A5.621,5.621,0,0,1,17.253,44,5.3,5.3,0,0,1,13.1,40.175,4.879,4.879,0,0,1,15,34.69a4.611,4.611,0,0,1,5.513.59,3.41,3.41,0,0,1-.275,5.38A2.808,2.808,0,0,1,15.9,38.717a1.6,1.6,0,0,1,2.028-1.866c.482.2.888.5.815,1.1s-.537.708-1.05.7c-.024,0-.048.06-.072.091a1.117,1.117,0,0,0,1.993.293,1.664,1.664,0,0,0,.1-2.178,2.939,2.939,0,0,0-2.936-1.142,2.648,2.648,0,0,0-2.163,2.244c-.555,2.636,1.867,5.28,5.191,4.341a4.641,4.641,0,0,0,3.028-5.678,5.439,5.439,0,0,0-8.526-3.044A5.96,5.96,0,0,0,11.8,39.919a5.864,5.864,0,0,0,4.736,5.042,24.424,24.424,0,0,0,5.1.394c5.144.046,10.29.021,15.435,0a1.189,1.189,0,0,0,.834-.278C39.633,42.946,41.328,40.779,43.119,38.513Z" transform="translate(-10.001 -23.028)" fill="#292f33" fill-rule="evenodd"/>
</svg>