
<svg xmlns="http://www.w3.org/2000/svg" viewBox="0 0 24 24"><defs><style>.transparent{opacity:0;}</style></defs><g id="Calque_2" data-name="Calque 2"><g id="Calque_1-2" data-name="Calque 1"><rect class="transparent" width="24" height="24"/><g id="PICTO_PADDLE-2" data-name="PICTO PADDLE-2"><path id="PICTO_PADDLE-3" data-name="PICTO PADDLE-3" class="cls-3203938726" d="M21.587,24c-1.358,0-4.968-6.77-4.968-6.77l-.887-.888.612-.72.889.861c8.039,3.947,6.68,5.01,6.68,5.01s-1,1.192-2.055,2.385A.342.342,0,0,1,21.6,24Zm-19.8-.51a1.492,1.492,0,0,1-.54-1.087c-.126-1.414,1.09-3.918,3.613-7.444,1.852-2.583,3.76-4.8,3.78-4.825l.494.478C7.055,13.029,1.7,19.848,1.918,22.335a.782.782,0,0,0,.272.584c.615.489,1.571.413,2.839-.224a18.577,18.577,0,0,0,3.842-2.814,53.189,53.189,0,0,0,4.688-4.9l.5.47A54.1,54.1,0,0,1,9.3,20.422c-2.6,2.345-4.652,3.523-6.135,3.525a2.156,2.156,0,0,1-1.378-.458ZM2.755,3.541l-.088.1a.184.184,0,0,1-.26.019L2.4,3.651l-.8-.786a.215.215,0,0,1-.01-.288l.039-.043a.7.7,0,0,0-.865-.053c-.569.348-.712-.06-.712-.06s-.2-.3.191-.693a8.05,8.05,0,0,0,.7-.817S1.131.678,1.5.259s.653-.2.653-.2.384.15.06.756a.813.813,0,0,0,.082.957l.086-.1a.184.184,0,0,1,.258-.025l.012.012.8.787a.209.209,0,0,1,.009.286l-.087.1,12.61,12.415-.62.707Zm7.329,5.112S18.954-1.764,22.4.315s-6.982,13.512-6.982,13.512Zm7.448-5.842a.7.7,0,0,0-.026.987.579.579,0,0,0,.051.048L19.3,5.294a.605.605,0,0,0,.836-.054c.951-1.007,3.148-3.564,1.727-4.3a1.5,1.5,0,0,0-.7-.16C19.906.781,18.348,2.053,17.532,2.811Z"/></g></g></g></svg>