<svg xmlns="http://www.w3.org/2000/svg" viewBox="0 0 24 24">
  <defs>
    <style>
      .cls-1 {
        opacity: 0;
      }
    </style>
  </defs>
  <g id="Calque_2" data-name="Calque 2">
    <g id="Calque_1-2" data-name="Calque 1">
      <rect class="cls-1" x="0.0014" width="24" height="24" />
      <path d="M16.591.0621a.7536.7536,0,0,1,.1068.0263A.4952.4952,0,0,0,16.591.0621Z" />
      <path
        d="M12,7.1176h-.0408A4.9194,4.9194,0,0,0,7.167,12.0907v4.3469a.495.495,0,0,0,.4908.498H9.34v6.6773a.4923.4923,0,0,0,.4876.4954.4864.4864,0,0,0,.4877-.4954V14.785a.4862.4862,0,0,0-.4877-.4948.4919.4919,0,0,0-.4876.4948v1.16H8.1423V12.0268a3.91,3.91,0,0,1,3.7818-3.918,3.812,3.812,0,0,1,2.754,1.1178,4.0019,4.0019,0,0,1,1.18,2.8551v3.8632H14.66v-1.16a.4919.4919,0,0,0-.4876-.4948.4863.4863,0,0,0-.4877.4948v8.8279a.4865.4865,0,0,0,.4877.4954.4923.4923,0,0,0,.4876-.4954V16.9356h1.6819a.495.495,0,0,0,.4908-.498V12.0268a4.9124,4.9124,0,0,0-1.431-3.4844A4.761,4.761,0,0,0,12,7.1176Z" />
      <path
        d="M12,6.6158a3.2325,3.2325,0,0,0,3.2035-3.2535,3.2039,3.2039,0,1,0-6.407,0A3.2325,3.2325,0,0,0,12,6.6158Zm0-5.5169A2.2634,2.2634,0,1,1,9.7718,3.3623,2.2483,2.2483,0,0,1,12,1.0989Z" />
      <path
        d="M5.7233,17.38a.4222.4222,0,0,0-.4509.3975v5.9336a.4222.4222,0,0,0,.4509.3975.4222.4222,0,0,0,.4508-.3975V17.7772A.4221.4221,0,0,0,5.7233,17.38Z" />
      <path
        d="M3.9659,5.7889a2.6872,2.6872,0,0,0-1.6047,4.8144A4.0323,4.0323,0,0,0,0,14.28v3.5706a.45.45,0,0,0,.4508.4575H1.7573v5.4024a.4222.4222,0,0,0,.4508.3975.4222.4222,0,0,0,.4509-.3975V17.7772a.4222.4222,0,0,0-.4509-.3975.4931.4931,0,0,0-.0765.0133H.9017V14.28a3.0923,3.0923,0,0,1,3.0642-3.1126,2.69,2.69,0,0,0,0-5.3788Zm.0176,4.4665c-.0062,0-.0113-.0036-.0176-.0036-.009,0-.0173.0026-.0263.0027a1.7186,1.7186,0,1,1,.0439.0009Z" />
      <path
        d="M21.6388,10.6033a2.6279,2.6279,0,1,0-1.6047.5644A3.0924,3.0924,0,0,1,23.0984,14.28V17.393H21.7919a.4453.4453,0,0,0-.4145.2758.359.359,0,0,0-.0364.1571v5.8869a.4547.4547,0,0,0,.9017,0V18.3084h1.3065A.4547.4547,0,0,0,24,17.8509V14.28A4.0323,4.0323,0,0,0,21.6388,10.6033Zm-1.6047-.3515c-.0063,0-.0114.0034-.0176.0036a1.7808,1.7808,0,1,1,.0439-.0009C20.0514,10.2544,20.0431,10.2518,20.0341,10.2518Z" />
      <path
        d="M18.2768,17.4309a.4213.4213,0,0,0-.4509.395v5.8869a.4547.4547,0,0,0,.9017,0V17.8259A.4212.4212,0,0,0,18.2768,17.4309Z" />
    </g>
  </g>
</svg>