<svg id="HOVER_TXT_MENTION" xmlns="http://www.w3.org/2000/svg" width="19.844" height="20" viewBox="0 0 19.844 20">
  <g id="Groupe_525" data-name="Groupe 525">
    <path id="PICTO_PLACES" d="M10.677,19.468V13.884a.537.537,0,0,1,.533-.532h1.154l.255-5.87-1.366-1.19a.533.533,0,0,1,.7-.806l1.566,1.357a.536.536,0,0,1,.182.426l-.3,6.645a.529.529,0,0,1-.533.5H11.744v5.051a.533.533,0,0,1-1.067,0Zm-2.577,0V14.426H6.969a.539.539,0,0,1-.534-.514l-.29-6.641a.518.518,0,0,1,.182-.424L7.893,5.491a.524.524,0,0,1,.75.053.531.531,0,0,1-.052.75l-1.37,1.19.261,5.872H8.634a.535.535,0,0,1,.534.53v5.58a.534.534,0,0,1-1.068,0ZM17,18.962V13.888a.535.535,0,0,1,.534-.53h1l.234-5.273L17.537,7.021a.535.535,0,0,1-.052-.755.529.529,0,0,1,.75-.053l1.423,1.234a.534.534,0,0,1,.186.421l-.269,6.051a.537.537,0,0,1-.532.508h-.976v4.535a.536.536,0,0,1-1.071,0Zm-15.216,0V14.426H.8a.53.53,0,0,1-.529-.508L0,7.868a.527.527,0,0,1,.182-.421L1.61,6.213a.529.529,0,0,1,.75.053.535.535,0,0,1-.052.755L1.076,8.084l.234,5.273h1a.532.532,0,0,1,.533.53v5.074a.533.533,0,0,1-1.067,0ZM14.158,3.388a2.132,2.132,0,1,1,2.13,2.126A2.133,2.133,0,0,1,14.158,3.388Zm1.068,0a1.064,1.064,0,1,0,1.062-1.063A1.066,1.066,0,0,0,15.226,3.388Zm-13.8,0A2.131,2.131,0,1,1,3.556,5.514,2.133,2.133,0,0,1,1.423,3.388Zm1.067,0A1.064,1.064,0,1,0,3.556,2.325,1.066,1.066,0,0,0,2.49,3.388ZM7.581,2.346A2.341,2.341,0,1,1,9.923,4.688,2.343,2.343,0,0,1,7.581,2.346Zm1.066,0A1.275,1.275,0,1,0,9.923,1.067,1.277,1.277,0,0,0,8.647,2.346Z" fill="#292f33"/>
  </g>
</svg>
