<svg xmlns="http://www.w3.org/2000/svg" viewBox="0 0 24 24" height="20"><defs></defs><g id="Calque_2" data-name="Calque 2"><g id="Calque_1-2" data-name="Calque 1"><rect class="transparent" width="24" height="24"/><g id="PICTO_PLACE-2" data-name="PICTO PLACE-2"><g id="Groupe_525" data-name="Groupe 525"><path id="PICTO_PLACES" data-name="PICTO PLACES" class="cls-32032831" d="M12.9133,23.3566V16.6684a.646.646,0,0,1,.6447-.6378h1.3955L15.2625,9l-1.6514-1.426a.6256.6256,0,0,1-.0782-.8824l.01-.0114a.6465.6465,0,0,1,.91-.0729l.0019.0017,1.8932,1.6253a.639.639,0,0,1,.2208.509l-.3567,7.9591a.6369.6369,0,0,1-.6447.6033H14.203v6.0507a.645.645,0,0,1-1.29,0Zm-3.116,0V17.3185H8.43a.6484.6484,0,0,1-.6453-.6156l-.3522-7.954a.6174.6174,0,0,1,.22-.5072L9.5462,6.6163a.64.64,0,1,1,.8442.963h0L8.7333,9.0053l.315,7.0328h1.3943a.6448.6448,0,0,1,.6459.6354v6.6834a.6456.6456,0,0,1-1.29,0Zm10.7567-.6057V16.6723a.6443.6443,0,0,1,.6453-.6354h1.21l.2835-6.3163L21.21,8.4486a.6422.6422,0,0,1,.8442-.9678l1.72,1.4774A.637.637,0,0,1,24,9.4631L23.6739,16.71a.6465.6465,0,0,1-.644.6081H21.8494v5.4333a.6477.6477,0,0,1-1.2954,0Zm-18.4022,0V17.3185H.9662A.6383.6383,0,0,1,.3267,16.71L.0006,9.4631a.6281.6281,0,0,1,.22-.5049L1.9463,7.4808a.6422.6422,0,0,1,.8442.9678L1.3013,9.7215l.2835,6.3163h1.212a.6409.6409,0,0,1,.6447.6354v6.0786a.645.645,0,0,1-1.29,0ZM17.1234,4.096A2.5781,2.5781,0,1,1,19.73,6.641c-.01,0-.02,0-.03,0a2.5671,2.5671,0,0,1-2.576-2.544Zm1.29,0a1.2873,1.2873,0,1,0,1.3-1.2723h-.0137a1.2825,1.2825,0,0,0-1.2849,1.2735ZM1.72,4.096A2.5778,2.5778,0,1,1,4.326,6.6411l-.0257,0a2.5671,2.5671,0,0,1-2.5787-2.544Zm1.29,0A1.2873,1.2873,0,1,0,4.3093,2.8228H4.3A1.2834,1.2834,0,0,0,3.0119,4.0972ZM9.1673,2.8473A2.8319,2.8319,0,1,1,12.02,5.6533l-.02,0A2.82,2.82,0,0,1,9.1688,2.8485Zm1.29,0a1.5422,1.5422,0,1,0,1.5512-1.53H12a1.537,1.537,0,0,0-1.5422,1.5316h0Z"/></g></g></g></g></svg>