<svg xmlns="http://www.w3.org/2000/svg" viewBox="0 0 13.65 24" fill="white"><g id="Calque_2" data-name="Calque 2"><g id="Calque_1-2" data-name="Calque 1"><path d="M9,21.55V2.37A2.4,2.4,0,0,1,11.24,0h0a2.39,2.39,0,0,1,2.39,2.37V21.61A2.4,2.4,0,0,1,11.32,24h0A2.4,2.4,0,0,1,9,21.61v-.07ZM9.51,9V21.61a1.81,1.81,0,0,0,3.62,0v0h0V6.26Zm0-1v.34l3.62-2.69V5.23Zm0-1v.42L13.13,4.6V4.25Zm0-1v.33l3.62-2.69v-.4ZM11.29.78A1.87,1.87,0,0,0,9.51,2.64v.08h0V5.35L13.13,2.6h0A1.85,1.85,0,0,0,11.32.78h0ZM0,21.56v-19H0V2.35H0A2.37,2.37,0,0,1,2.37,0h0A2.39,2.39,0,0,1,4.63,2.38v.14h0V21.62A2.38,2.38,0,0,1,2.32,24h0A2.38,2.38,0,0,1,0,21.62v-.06ZM.51,9V21.73a1.85,1.85,0,0,0,1.85,1.83h0A1.87,1.87,0,0,0,4.12,21.7v-.12h0V6.27Zm0-1v.34L4.12,5.64V5.23Zm0-1v.42L4.12,4.6V4.25Zm0-1v.33L4.12,3.62v-.4Zm0-3.27V5.35L4.12,2.6h0A1.85,1.85,0,0,0,2.32.81h0A1.86,1.86,0,0,0,.51,2.67v0ZM10,13.27V11a1.29,1.29,0,1,1,2.58,0V11h0v2.31a1.29,1.29,0,1,1-2.58,0v-.08ZM10.51,11v2.28a.81.81,0,1,0,1.61,0v-.05h0V11a.81.81,0,0,0-1.61,0v0Zm-8.2,3.6A1.33,1.33,0,0,1,1,13.3v0H1V11A1.33,1.33,0,0,1,2.31,9.67h0A1.33,1.33,0,0,1,3.61,11v0h0V13.3a1.33,1.33,0,0,1-1.29,1.33h0ZM1.51,11v2.26a.84.84,0,0,0,.8.83h0a.84.84,0,0,0,.8-.83v0h0V11a.84.84,0,0,0-.81-.83h0a.84.84,0,0,0-.8.83v0Z"/></g></g></svg>