<svg xmlns="http://www.w3.org/2000/svg" viewBox="0 0 24 24"><defs><style>.cls-1{opacity:0;}</style></defs><g id="Calque_2" data-name="Calque 2"><g id="Calque_1-2" data-name="Calque 1"><rect class="cls-1" width="24" height="24"/><path d="M10.31,21.62A2.38,2.38,0,0,1,8,24H8a2.37,2.37,0,0,1-2.31-2.38V2.35h0A2.36,2.36,0,0,1,8.05,0h0a2.39,2.39,0,0,1,2.24,2.38ZM6.08,9h0V21.73a2,2,0,0,0,2,1.91h0A2,2,0,0,0,9.92,21.7v-.12h0V6.28a0,0,0,0,0,0,0Zm0-.95v.32h0L9.92,5.64h0V5.24h0L6.08,8Zm0-1.06v.41a0,0,0,0,0,0,0L9.92,4.6h0V4.26h0L6.08,6.94Zm0-1V6.3h0L9.92,3.62h0V3.23h0L6.08,6Zm0-.64L9.92,2.59h0A2,2,0,0,0,8,.41H8a2,2,0,0,0-1.93,2.1V5.34Zm1.1,8.35a.84.84,0,0,0,.81.83H8a.84.84,0,0,0,.81-.83v0h0V11A.84.84,0,0,0,8,10.18H8a.83.83,0,0,0-.8.83Z"/><path d="M18.31,21.62A2.38,2.38,0,0,1,16,24h0a2.37,2.37,0,0,1-2.31-2.38V2.35h0A2.36,2.36,0,0,1,16.05,0h0a2.39,2.39,0,0,1,2.24,2.38ZM14.08,9h0V21.73a2,2,0,0,0,2,1.91h0a2,2,0,0,0,1.85-1.94v-.12h0V6.28a0,0,0,0,0,0,0Zm0-.95v.32h0l3.83-2.68h0V5.24h0L14.08,8Zm0-1.06v.41a0,0,0,0,0,0,0L17.92,4.6h0V4.26h0L14.08,6.94Zm0-1V6.3h0l3.83-2.68h0V3.23h0L14.08,6Zm0-.64,3.83-2.75h0A2,2,0,0,0,16,.41h0a2,2,0,0,0-1.93,2.1V5.34Zm1.1,8.35a.84.84,0,0,0,.81.83h0a.84.84,0,0,0,.81-.83v0h0V11a.84.84,0,0,0-.81-.83h0a.83.83,0,0,0-.8.83Z"/></g></g></svg>