<svg xmlns="http://www.w3.org/2000/svg" viewBox="0 0 80 80"><defs><style>.cls-1{fill:#fff;}.cls-2{fill:#d82558;}</style></defs><g id="Calque_2" data-name="Calque 2"><g id="Calque_1-2" data-name="Calque 1"><path class="cls-1" d="M61.39,70.27A36,36,0,0,1,38.22,78.5,36.73,36.73,0,0,1,12.33,67.7,36.27,36.27,0,0,1,9.94,18.43L8.87,17.36A37.29,37.29,0,0,0,0,42.42,38.46,38.46,0,0,0,38.23,80a37.48,37.48,0,0,0,24.23-8.66Z"/><path class="cls-2" d="M39.39,0a41,41,0,0,0-27.8,10.21l5.93,6A32.8,32.8,0,0,1,63.61,62.63l5.93,6A41.18,41.18,0,0,0,39.39,0Z"/></g></g></svg>