<svg id="ELEMENTS_PICTO_SKI" xmlns="http://www.w3.org/2000/svg" width="140" viewBox="0 0 97.005 91.126">
  <path id="BACKGROUND_PICTO" d="M0,91.126V0H80.545a8.558,8.558,0,0,1,8.177,6.458,3.375,3.375,0,0,1,.141.407l8.11,37.759a1.488,1.488,0,0,1,0,.615l-8.059,38.8a1.31,1.31,0,0,1-.112.316,8.579,8.579,0,0,1-8.258,6.773Z" fill="#fff" opacity="0.147"/>
  <g id="PICTO_SKI" transform="translate(32.051 21.28)">
    <path id="PICTO_SKI-2" data-name="PICTO_SKI" d="M16.837,44.923V5.241h0A4.951,4.951,0,0,1,21.5.333a4.934,4.934,0,0,1,4.975,4.909V44.923A4.956,4.956,0,0,1,21.653,50,4.949,4.949,0,0,1,16.837,44.923Zm1.02-26.558V44.923a3.8,3.8,0,1,0,7.593,0V12.711Zm0-2.019v.7L25.45,11.39v-.857Zm0-2.222v.895L25.45,9.207V8.468Zm0-2.014v.7L25.45,7.15V6.3ZM21.584,1.179a3.906,3.906,0,0,0-3.728,4.062v5.541L25.45,5l-.015-.023a3.887,3.887,0,0,0-3.789-3.8ZM0,44.923V5.241H.007a2.658,2.658,0,0,1,0-.329A4.928,4.928,0,0,1,4.977,0a4.971,4.971,0,0,1,4.66,5.238V44.923A4.95,4.95,0,0,1,4.82,50,4.952,4.952,0,0,1,0,44.923ZM1.024,18.365V44.923c0,.1,0,.2,0,.293A3.887,3.887,0,0,0,4.959,49.07a3.925,3.925,0,0,0,3.658-4.147V12.714Zm0-2.019v.7l7.6-5.658v-.857Zm0-2.222v.895l7.6-5.813V8.468Zm0-2.014v.7l7.6-5.658V6.3Zm0-6.869v5.541L8.618,5,8.6,4.976A3.888,3.888,0,0,0,4.82,1.24,3.907,3.907,0,0,0,1.02,5.241ZM18.936,27.432v-4.7a2.717,2.717,0,1,1,5.426,0v4.7a2.717,2.717,0,1,1-5.426,0Zm1.015-4.7,0,4.7a1.694,1.694,0,1,0,3.384,0v-4.7a1.693,1.693,0,1,0-3.381,0ZM4.818,30.294a2.794,2.794,0,0,1-2.709-2.862v-4.7a2.791,2.791,0,0,1,2.716-2.858,2.789,2.789,0,0,1,2.713,2.858v4.7a2.79,2.79,0,0,1-2.716,2.858ZM3.129,22.731l0,4.7a1.741,1.741,0,0,0,1.693,1.784,1.741,1.741,0,0,0,1.693-1.784v-4.7a1.741,1.741,0,0,0-1.7-1.78A1.741,1.741,0,0,0,3.129,22.731Z" transform="translate(0 0)" fill="#fff" stroke="rgba(0,0,0,0)" stroke-miterlimit="10" stroke-width="1"/>
  </g>
</svg>
