<svg xmlns="http://www.w3.org/2000/svg" viewBox="0 0 24 24"><defs><style>.cls-1{opacity:0;}</style></defs><g id="Calque_2" data-name="Calque 2"><g id="Calque_1-2" data-name="Calque 1"><rect class="cls-1" width="24" height="24"/><path id="PICTO_MULTI-ACTIVITES-2" data-name="PICTO MULTI-ACTIVITES-2" class="cls-2" d="M13.33536,23.874,9.988,22.48339H6.39224a1.68357,1.68357,0,0,1-1.67308-1.693v-.45416L2.92185,19.602a1.64388,1.64388,0,0,1-.92473-.9095,1.54739,1.54739,0,0,1-.02579-1.28806L4.694,10.55621V3.17827a1.68356,1.68356,0,0,1,1.674-1.693H8.31554l.17464-.429A1.69653,1.69653,0,0,1,10.68774.12043L14.0333,1.48527h3.59638a1.68344,1.68344,0,0,1,1.67249,1.693V3.6336l1.80024.73311a1.64,1.64,0,0,1,.92356.90949,1.71824,1.71824,0,0,1,0,1.31385l-2.72263,6.8476v7.37794a1.6832,1.6832,0,0,1-1.67249,1.69359H15.68294l-.17522.42837a1.65223,1.65223,0,0,1-.89778.93646,1.8789,1.8789,0,0,1-.65048.126A1.84386,1.84386,0,0,1,13.33536,23.874Zm.22385-.581a.98256.98256,0,0,0,.79874,0,1.01479,1.01479,0,0,0,.57489-.581l.075-.20218H11.66111ZM5.34386,3.17856V20.81588a1.06157,1.06157,0,0,0,1.04838,1.06128H17.62968a1.06061,1.06061,0,0,0,1.04838-1.06128V3.17856a1.06029,1.06029,0,0,0-1.04838-1.06069H6.39224a1.061,1.061,0,0,0-1.04838,1.0604ZM2.572,17.63206a1.12618,1.12618,0,0,0,0,.81016,1.00633,1.00633,0,0,0,.57371.58163l1.57345.63V12.25009Zm16.73017-5.88712,2.14892-5.40775a1.13859,1.13859,0,0,0,0-.81017,1.01731,1.01731,0,0,0-.57488-.581l-1.574-.63ZM9.08908,1.28338l-.075.20218h3.34674l-1.8981-.7835A1.04119,1.04119,0,0,0,10.066.62236a1.06953,1.06953,0,0,0-.97689.66073Zm7.467,19.48152-.82453-1.18668a.15835.15835,0,0,1,0-.15l.82453-1.18844a.13826.13826,0,0,1,.22386,0l.82452,1.18844a.1583.1583,0,0,1,0,.15L16.78,20.7649a.13781.13781,0,0,1-.19222.03164A.13519.13519,0,0,1,16.5561,20.7649Zm-4.82-5.65916-2.047-2.90546a.39014.39014,0,0,1,0-.40436l2.047-2.90634a.32577.32577,0,0,1,.54968,0l2.04754,2.90693a.39012.39012,0,0,1,0,.40435L12.2858,15.10633a.32468.32468,0,0,1-.54968,0ZM7.242,5.75586,6.41744,4.56917a.16252.16252,0,0,1,0-.15295L7.242,3.22954a.13828.13828,0,0,1,.22386,0l.82394,1.18668a.15928.15928,0,0,1,0,.15295L7.46582,5.75586a.13294.13294,0,0,1-.11193.05743.13119.13119,0,0,1-.11281-.05773Z"/></g></g></svg>