<svg xmlns="http://www.w3.org/2000/svg" viewBox="0 0 24 24"><g id="Calque_2" data-name="Calque 2"><g id="Calque_1-2" data-name="Calque 1"><rect width="24" height="24" opacity="0"/><path d="M12,24a8.34047,8.34047,0,0,1-8.5-8.19,8.04849,8.04849,0,0,1,2.42857-5.73V5.85A5.95191,5.95191,0,0,1,12,0a5.95191,5.95191,0,0,1,6.07143,5.85v4.23A8.04849,8.04849,0,0,1,20.5,15.81,8.34047,8.34047,0,0,1,12,24ZM15.05128,5.85a3.05339,3.05339,0,0,0-6.10256,0V8.16A8.45454,8.45454,0,0,1,12,7.62a8.7015,8.7015,0,0,1,3.05128.54ZM12,8.49a7.45291,7.45291,0,0,0-7.59707,7.32A7.45291,7.45291,0,0,0,12,23.13a7.45291,7.45291,0,0,0,7.59707-7.32A7.45291,7.45291,0,0,0,12,8.49Zm.99634,7.02.5293,3.51a.64174.64174,0,0,1-.65384.6H11.15934a.62173.62173,0,0,1-.65384-.6l.5293-3.51a1.71446,1.71446,0,0,1-.84066-1.47,1.80751,1.80751,0,0,1,1.837-1.77,1.78841,1.78841,0,0,1,1.837,1.77A1.81432,1.81432,0,0,1,12.99634,15.51Z" fill="#292f33" fill-rule="evenodd"/></g></g></svg>