<svg xmlns="http://www.w3.org/2000/svg" viewBox="0 0 24 24"><g id="Calque_2" data-name="Calque 2"><g id="Calque_1-2" data-name="Calque 1"><rect x="0.00003" width="24" height="24" opacity="0"/><path d="M21.90038,21.33837l.34276-.21512a.3176.3176,0,0,0,.12763-.35124l-.07133-.26953a4.085,4.085,0,0,0,.37541-.40431l.244.07759a.27627.27627,0,0,0,.32285-.14295l.39418-.73921a.32372.32372,0,0,0-.0488-.37571l-.18771-.19194a3.68673,3.68673,0,0,0,.13517-.55136l.25152-.06533a.30558.30558,0,0,0,.214-.29814V16.9494a.29853.29853,0,0,0-.214-.29812l-.25152-.06536a3.50639,3.50639,0,0,0-.13517-.55542l.18771-.19193a.32376.32376,0,0,0,.0488-.37575l-.39418-.74326a.26939.26939,0,0,0-.32285-.13887l-.244.07759a3.71633,3.71633,0,0,0-.37541-.40839l.07132-.26547a.31532.31532,0,0,0-.12762-.35122l-.68325-.42881a.2625.2625,0,0,0-.34537.05309l-.1727.20012a2.94527,2.94527,0,0,0-.51432-.147l-.06007-.26956a.28751.28751,0,0,0-.274-.23279H19.405a.28968.28968,0,0,0-.27407.23279l-.00376.01636L18.902,11.81583c.04129,0,.08261-.00409.1239-.00409h3.95307a.29685.29685,0,0,0,.28156-.3063,2.52559,2.52559,0,0,0-2.41013-2.62191h-4.9667a.29136.29136,0,0,0-.28155.28588,1.649,1.649,0,0,1-1.31394,1.52332,3.9063,3.9063,0,0,1-4.15206-1.66625.27729.27729,0,0,0-.23651-.143H4.7527a2.286,2.286,0,0,0-1.7006.76779,2.70656,2.70656,0,0,0-.70577,1.85413.29435.29435,0,0,0,.28155.30629h2.305c.06008,0,.12014.00409.184.00818l-.23275,1.28238-.015-.06127a.28341.28341,0,0,0-.274-.23279H3.80665a.29076.29076,0,0,0-.274.23279l-.05629.26955a2.94585,2.94585,0,0,0-.51434.147l-.17268-.20011a.26312.26312,0,0,0-.34537-.05309l-.68325.42882a.32282.32282,0,0,0-.13141.35121l.07133.26547a4.09525,4.09525,0,0,0-.37165.4084l-.24776-.07759a.27111.27111,0,0,0-.32288.13886l-.39418.74327a.33064.33064,0,0,0,.05257.37574l.18394.19194a4.57269,4.57269,0,0,0-.13514.55542l-.24778.06535A.3016.3016,0,0,0,0,16.9494v.86172a.30882.30882,0,0,0,.21772.29815l.24779.06533a4.90888,4.90888,0,0,0,.13514.55135l-.18395.19194a.32447.32447,0,0,0-.05256.37572l.39418.7392a.27817.27817,0,0,0,.32287.14295l.24776-.07759a4.5569,4.5569,0,0,0,.37165.40431l-.07132.26953a.32527.32527,0,0,0,.1314.35124l.68326.42881a.26866.26866,0,0,0,.34537-.05718l.17267-.20011a3.32679,3.32679,0,0,0,.51058.15111l.06006.26953a.29365.29365,0,0,0,.274.23688H4.595l.0071-.00132m15.19707-6.5453a1.97769,1.97769,0,1,1-1.80949,1.97255A1.90176,1.90176,0,0,1,19.79921,15.40567Zm1.28023,5.9327h-.16688c.0431-.01448.08657-.0271.12926-.0436Zm-2.39151,0h-.1652l.03762-.0436C18.6021,21.31127,18.64536,21.32389,18.68793,21.33837Zm-.34908-9.46127.28156,1.56008c-.01877.00815-.04129.01224-.06006.02042l-.17269-.20011a.26311.26311,0,0,0-.34537-.05309l-.68326.42881a.31726.31726,0,0,0-.13141.35122l.07133.26547a4.13017,4.13017,0,0,0-.37541.4084l-.244-.0776a.25532.25532,0,0,0-.14642,0l-.92352-.633A4.01652,4.01652,0,0,1,18.33885,11.8771ZM8.8109,15.15246a.28673.28673,0,0,0,.27031.23277h5.81512a.29188.29188,0,0,0,.2778-.24094,4.66121,4.66121,0,0,1,.18395-.64528l.81839.5595-.214.40431a.3299.3299,0,0,0,.0488.37575l.1877.19193a4.13567,4.13567,0,0,0-.1389.55542l-.244.06536a.30159.30159,0,0,0-.21774.29812v.86172a.30516.30516,0,0,0,.21774.29815l.244.06124a3.98469,3.98469,0,0,0,.1389.55544l-.18771.196a.32348.32348,0,0,0-.0488.37164l.3942.7392a.27345.27345,0,0,0,.32285.14295l.244-.07759a5.311,5.311,0,0,0,.37541.4084l-.07132.26544a.31956.31956,0,0,0,.13141.35124l.34275.21512H6.302l.34274-.21512a.3176.3176,0,0,0,.12765-.35124l-.07133-.26544a4.6465,4.6465,0,0,0,.37541-.4084l.244.07759a.2717.2717,0,0,0,.32285-.14295l.39418-.7392a.3235.3235,0,0,0-.04881-.37164l-.18395-.196A3.50578,3.50578,0,0,0,7.94,18.17051l.24778-.06124a.3065.3065,0,0,0,.214-.29815V16.9494a.30284.30284,0,0,0-.214-.29812L7.94,16.58592a3.61837,3.61837,0,0,0-.13515-.55542l.18395-.19193a.32377.32377,0,0,0,.04881-.37575l-.20272-.38389.78836-.53907A4.57957,4.57957,0,0,1,8.8109,15.15246Zm-3.13468-3.259a3.87622,3.87622,0,0,1,1.72689.85357,4.35951,4.35951,0,0,1,.96857,1.23743l-.87848.60036a.25006.25006,0,0,0-.17267-.00408l-.244.07759a3.71643,3.71643,0,0,0-.37541-.4084l.07133-.26547a.31533.31533,0,0,0-.12765-.35121l-.68323-.42882a.26253.26253,0,0,0-.34539.05309l-.17268.20012a.22712.22712,0,0,0-.0488-.01633ZM2.39137,17.37821a1.89875,1.89875,0,0,1,1.80949-1.97255,1.97734,1.97734,0,0,1,0,3.941A1.895,1.895,0,0,1,2.39137,17.37821ZM5.4811,21.33837H5.31422c.0431-.01448.08656-.0271.12925-.0436Z"/><path d="M15.039,9.13673a.87585.87585,0,0,1,.84467-.8658h.28156V5.82871a.29686.29686,0,0,0-.28156-.3063,2.23547,2.23547,0,0,0-2.13233,2.3197v2.332a2.91438,2.91438,0,0,0,.39794-.07351A1.04217,1.04217,0,0,0,15.039,9.13673Z"/><path d="M9.79448,7.6665a.68588.68588,0,0,0-.657-.71469H8.13892l-.045-.11843.8184-1.94807a.29734.29734,0,0,1,.27028-.18787h.259a.60592.60592,0,0,0,.58188.62077H11.405a.60707.60707,0,0,0,.58188-.633V4.0971A.61079.61079,0,0,0,11.405,3.46H10.02347a.60966.60966,0,0,0-.58188.62484h-.259a.85894.85894,0,0,0-.78084.54726L7.79355,6.07783,7.65838,5.7307a.65352.65352,0,0,0-.60065-.43291H6.641a.6617.6617,0,0,0-.5894.40023L4.89535,8.27093H9.79448Z"/><path d="M4.20249,16.01941a1.36317,1.36317,0,0,0,0,2.71661,1.36318,1.36318,0,0,0,0-2.71661Z" /><path d="M19.79967,18.736a1.36317,1.36317,0,1,0-1.24814-1.3584A1.3082,1.3082,0,0,0,19.79967,18.736Z"/></g></g></svg>