<svg xmlns="http://www.w3.org/2000/svg" viewBox="0 0 24 24"><defs><style>.cls-1{opacity:0;}</style></defs><g id="Calque_2" data-name="Calque 2"><g id="Calque_1-2" data-name="Calque 1"><rect class="cls-1" width="24" height="23.997"/><path id="PICTO_RAFTING-2" data-name="PICTO RAFTING-2" class="cls-2" d="M18.565,23.884l-2.546-2.545a1.186,1.186,0,0,1-.348-.841V19.4L13.66,17.393,11.8,19.254a1.974,1.974,0,0,1-1.4.582H5.951a1.988,1.988,0,0,1-1.984-1.984V13.411a1.977,1.977,0,0,1,.582-1.4L6.41,10.148,4.6,8.334H3.736l-1.9,1.895A3.541,3.541,0,0,0,.794,12.751v6.591A3.666,3.666,0,0,0,4.46,23.008h6.592a3.543,3.543,0,0,0,2.524-1.045l.822-.822.561.561-.822.822A4.327,4.327,0,0,1,11.052,23.8H4.46A4.459,4.459,0,0,1,0,19.342V12.751A4.326,4.326,0,0,1,1.279,9.667L2.826,8.121a1.132,1.132,0,0,1-.165-.137L.116,5.44a.4.4,0,0,1,0-.561L1.705,3.293a.4.4,0,0,1,.559,0l0,0L4.81,5.838A.965.965,0,0,1,4.946,6L6,4.948a1.347,1.347,0,0,1-.165-.137L3.29,2.267a.4.4,0,0,1,0-.561L4.879.12a.394.394,0,0,1,.558,0l0,0L7.985,2.662a1.188,1.188,0,0,1,.348.841V4.6l1.811,1.814L12.006,4.55a1.971,1.971,0,0,1,1.4-.58h4.444a1.984,1.984,0,0,1,1.983,1.982V10.4a1.964,1.964,0,0,1-.581,1.4l-1.861,1.861,2.012,2.011h.464l2.095-2.092a3.556,3.556,0,0,0,1.046-2.525V4.461A3.667,3.667,0,0,0,19.344.8H12.752a3.541,3.541,0,0,0-2.525,1.045l-.82.82L8.844,2.1l.823-.82A4.324,4.324,0,0,1,12.752,0h6.592A4.459,4.459,0,0,1,23.8,4.463v6.591a4.34,4.34,0,0,1-1.277,3.085l-1.609,1.608a1.186,1.186,0,0,1,.425.272l2.542,2.544a.4.4,0,0,1,0,.559l0,0L22.3,20.713a.4.4,0,0,1-.561,0l-2.543-2.547a1.194,1.194,0,0,1-.273-.423l-1.176,1.175a1.218,1.218,0,0,1,.424.272l2.542,2.545a.4.4,0,0,1,0,.559l0,0-1.586,1.588a.4.4,0,0,1-.281.116A.394.394,0,0,1,18.565,23.884Zm-2.1-3.386a.4.4,0,0,0,.116.281l2.264,2.264,1.025-1.027-2.264-2.264a.4.4,0,0,0-.281-.116h-.86Zm3.174-3.173a.4.4,0,0,0,.117.281l2.265,2.264,1.023-1.026-2.263-2.262a.39.39,0,0,0-.28-.118h-.862Zm-8.25-.779-2.495,2.5h1.5a1.184,1.184,0,0,0,.841-.35l1.861-1.86-2.269-2.27.56-.561.713.712,2.11-2.112.561.561-2.112,2.111,1,1,2.611-2.612L14,11.389l.561-.561.712.712,3.768-3.769V5.952a1.136,1.136,0,0,0-.116-.512L5.438,18.925a1.182,1.182,0,0,0,.513.117h1.82l3.058-3.057Zm2.832.286,2.011,2.011H16.7L18.845,16.7v-.466L16.833,14.22Zm-6.4-3.855L4.761,16.034v1.817a1.175,1.175,0,0,0,.115.515L18.365,4.879a1.194,1.194,0,0,0-.512-.116h-1.82L12.267,8.531l.708.712-.561.561L10.145,7.533,7.532,10.146l1,1,2.1-2.1.561.561-2.1,2.1.711.711-.561.561-2.268-2.27L5.11,12.568a1.173,1.173,0,0,0-.349.842v1.5l2.5-2.494Zm8.017-.876,1,1,1.861-1.861a1.176,1.176,0,0,0,.347-.841v-1.5ZM5.157,6.911v.86L6.971,9.584,9.583,6.973,7.772,5.159H6.909Zm7.409-1.8L10.705,6.974l1,1,3.209-3.209h-1.5a1.187,1.187,0,0,0-.842.349ZM.957,5.159,3.222,7.424a.4.4,0,0,0,.28.116h.862V6.677a.39.39,0,0,0-.118-.28L1.984,4.134ZM4.133,1.986,6.4,4.251a.4.4,0,0,0,.28.116h.862V3.5a.393.393,0,0,0-.117-.28L5.158.961Zm7.636,19.4a.678.678,0,1,1,.678.677h0A.678.678,0,0,1,11.769,21.381Zm-8.814,0a.678.678,0,1,1,.679.677.679.679,0,0,1-.679-.677ZM19.9,13.247a.678.678,0,1,1,.679.678.678.678,0,0,1-.679-.678v0ZM2.156,11.214a.679.679,0,1,1,.679.679.679.679,0,0,1-.679-.679h0ZM9.734,3.638a.679.679,0,1,1,.68.676h0A.678.678,0,0,1,9.734,3.638Zm10.169-.8a.678.678,0,1,1,.679.677.679.679,0,0,1-.679-.677Z"/></g></g></svg>