<svg xmlns="http://www.w3.org/2000/svg" viewBox="0 0 14 18"><g id="Calque_2" data-name="Calque 2"><g id="Calque_1-2" data-name="Calque 1"><rect y="8.35004" width="8.03544" height="5.97061"/><path d="M0,15.76222A2.22715,2.22715,0,0,0,2.211,18H5.82439a2.22715,2.22715,0,0,0,2.211-2.23778V14.844H0Z"/><path d="M12.512,10.05557c.11923-3.09826-.68431-5.55116-2.33287-7.1016A7.96879,7.96879,0,0,0,4.66574,1.00215V.52468a.51845.51845,0,1,0-1.03683,0v.50108c-.37845.02361-.77763.06034-1.169.1128a.52887.52887,0,0,0,.13219,1.04937c.35771-.04722.70246-.08132,1.03684-.10231V3.177A4.05055,4.05055,0,0,0,0,7.21441v.65585H8.03544V7.21441a4.05472,4.05472,0,0,0-3.3697-4.00859V2.05151A6.92993,6.92993,0,0,1,9.46885,3.72263c1.42564,1.33795,2.11773,3.51276,2.00886,6.29621a2.09912,2.09912,0,0,0-1.57646,2.50274,2.07357,2.07357,0,0,0,2.47284,1.59552,2.10505,2.10505,0,0,0,.14045-4.06153Z"/></g></g></svg>