<svg xmlns="http://www.w3.org/2000/svg" viewBox="0 0 24 24"><g id="Calque_2" data-name="Calque 2"><g id="Calque_1-2" data-name="Calque 1"><rect width="24" height="24" opacity="0"/><rect x="5.33333" y="11.13339" width="10.71391" height="7.96081"/><path d="M5.33333,21.0163A2.96952,2.96952,0,0,0,8.28138,24h4.81781a2.96952,2.96952,0,0,0,2.948-2.9837V19.792H5.33333Z"/><path d="M22.01593,13.40743c.159-4.131-.91241-7.40155-3.11049-9.4688A10.6251,10.6251,0,0,0,11.55431,1.3362V.69958a.69127.69127,0,1,0-1.38244,0v.6681c-.50459.03148-1.03683.08045-1.5587.15041a.70515.70515,0,0,0,.17626,1.39915c.47694-.063.9366-.10843,1.38244-.13641V4.236A5.40074,5.40074,0,0,0,5.33333,9.61921v.87447H16.04724V9.61921a5.40626,5.40626,0,0,0-4.49293-5.34478V2.73535a9.23993,9.23993,0,0,1,6.40416,2.22816c1.90085,1.78393,2.82363,4.68368,2.67848,8.39495a2.79881,2.79881,0,0,0-2.10195,3.337,2.76474,2.76474,0,0,0,3.29711,2.12736,2.80674,2.80674,0,0,0,.18728-5.41537Z"/></g></g></svg>