<svg xmlns="http://www.w3.org/2000/svg" viewBox="0 0 24 24"><defs><style>.transparent{opacity:0;}.half-transparent{opacity:0.09;}</style></defs><g id="Calque_2" data-name="Calque 2"><g id="Calque_1-2" data-name="Calque 1"><rect class="transparent" width="24" height="24"/><path d="M18.57,5.29h.52c.59,0,1.21,0,1.81.1a4,4,0,0,1,1.24.31A1.55,1.55,0,0,1,23,6.78a6.76,6.76,0,0,1,.22,1.57c0,.69.07,1.38.09,2.06v.26h0l0,.6,0,.81c0,.4,0,.8.05,1.21a6.41,6.41,0,0,1-.33,2.21,4.34,4.34,0,0,1-.74,1.41,1.67,1.67,0,0,1-.76.56.28.28,0,0,1-.13,0,.34.34,0,0,1-.31-.24c-.18-.33-.33-.67-.49-1l-.07-.16A4,4,0,0,0,20,15a1.49,1.49,0,0,0-1.22-.62,1.58,1.58,0,0,0-.52.09h-.05a2.6,2.6,0,0,0-.87.68,8.34,8.34,0,0,0-.94,1.47,8.89,8.89,0,0,1-.9,1.41,1.69,1.69,0,0,1-1.2.62h-.6a11.57,11.57,0,0,1-1.3-.07c-.63-.05-1.25-.14-1.83-.22a20.62,20.62,0,0,1-3.2-.74c-.78-.24-1.56-.53-2.25-.78a1.42,1.42,0,0,1-.53-.34,1.35,1.35,0,0,1-.25-.65,9.92,9.92,0,0,1-.13-2.44v-.24c0-.47,0-.92.07-1.37s.12-1,.19-1.52l0-.32a.31.31,0,0,1,.21-.27c.35-.18.7-.34,1-.5C6.36,9,6.9,8.76,7.45,8.53c.3-.14.62-.26.93-.38l.07,0,.83-.32c.78-.31,1.59-.63,2.34-.88,1-.33,2-.65,3-1l.11,0a16.27,16.27,0,0,1,2.32-.53,10.56,10.56,0,0,1,1.49-.11m0-.59A10.42,10.42,0,0,0,17,4.83a19.39,19.39,0,0,0-2.4.54c-1.05.33-2.11.65-3.15,1s-2.15.8-3.2,1.21L7.22,8l-1.65.73-1.07.5A.93.93,0,0,0,4,10c-.09.61-.18,1.23-.24,1.84s-.06,1.09-.08,1.65A10.57,10.57,0,0,0,3.79,16a1.87,1.87,0,0,0,.38.92,2,2,0,0,0,.78.51c.74.27,1.5.54,2.26.78A19.84,19.84,0,0,0,10.5,19c.63.1,1.25.18,1.88.23a11.9,11.9,0,0,0,1.34.08l.63,0A2.28,2.28,0,0,0,16,18.45a8.91,8.91,0,0,0,1-1.52,6.73,6.73,0,0,1,.88-1.36,2,2,0,0,1,.66-.52A1,1,0,0,1,18.8,15a.93.93,0,0,1,.75.38,3.45,3.45,0,0,1,.5.9c.19.42.37.85.59,1.26a.89.89,0,0,0,.82.55.94.94,0,0,0,.36-.08,2.16,2.16,0,0,0,1-.74,5,5,0,0,0,.83-1.58A7,7,0,0,0,24,13.27c0-.67-.05-1.35-.08-2h0c0-1-.08-1.94-.13-2.93a6.89,6.89,0,0,0-.24-1.69,2.12,2.12,0,0,0-1.19-1.45A4.43,4.43,0,0,0,21,4.82c-.68-.05-1.36-.08-2-.11Z"/><path d="M20.07,16.94c-.16-.37-.3-.75-.48-1.1a.84.84,0,0,0-.83-.56,1.13,1.13,0,0,0-.59.26,1.24,1.24,0,0,1,.55.58c.11.22.2.45.29.68a3.71,3.71,0,0,0,.22.55,1.81,1.81,0,0,0,1.47.7,2,2,0,0,1-.25-.33A7,7,0,0,1,20.07,16.94Z"/><path d="M3.29,8.91V9l.7.12A.51.51,0,0,0,4.36,9a3.68,3.68,0,0,1,.44-.23L8.17,7.32c.69-.29,1.39-.54,2.08-.82l.14,0,.12-.06A32.74,32.74,0,0,0,3.29,8.91Z"/><path d="M2.51,9c-.45-.1-.91-.15-1.36-.25a1.51,1.51,0,0,1-.92-.46L.09,8.07c0,.2-.06.37-.06.54,0,.77,0,1.54,0,2.32v1.92a1.28,1.28,0,0,0,.71,1.27,8.53,8.53,0,0,0,1,.37c.36.11.74.18,1.1.28a4.44,4.44,0,0,1,.61.22v-.07a21.77,21.77,0,0,1,0-3.23c0-.55.11-1.09.19-1.62a4.44,4.44,0,0,1,.21-.71l-.32-.09C3.21,9.17,2.86,9,2.51,9Z"/><path d="M.71,8.26a2.1,2.1,0,0,0,.77.24,5,5,0,0,1,1.21.24.46.46,0,0,0,.41,0A23.21,23.21,0,0,1,6.3,7.33l1.44-.48H7.65l-1.56.38a4.22,4.22,0,0,1-1.46.14L3,7.11A7.18,7.18,0,0,0,1.29,7a2.06,2.06,0,0,0-.89.28.66.66,0,0,0-.17.29.55.55,0,0,0,0,.22A1,1,0,0,0,.71,8.26Z"/><path d="M3.47,15.46a.17.17,0,0,0-.05-.13A3.2,3.2,0,0,0,2.6,15a2.13,2.13,0,0,0,1.24,2c-.06-.13-.11-.24-.15-.35A4.25,4.25,0,0,1,3.47,15.46Z"/><g class="half-transparent"><path d="M23.89,13.38c0-.52,0-1.05-.05-1.57l-6.22-7-.74.09a16.21,16.21,0,0,0-2.39.54l9.09,10.19A6.82,6.82,0,0,0,23.89,13.38Z"/></g><g class="half-transparent"><path d="M19.55,15.37a3.45,3.45,0,0,1,.5.9c.19.42.37.85.59,1.26a.89.89,0,0,0,1.18.47,2.16,2.16,0,0,0,1-.74,5,5,0,0,0,.44-.69L13.56,5.69c-.71.22-1.42.44-2.12.68-.35.12-2.91,1.24-3.28,1.37l9,8.7c.08-.13.55-1.24,1.36-1.44A.89.89,0,0,1,19.55,15.37Z"/></g></g></g></svg>