<svg xmlns="http://www.w3.org/2000/svg" viewBox="0 0 20.3 23.97" height="24"><g id="Calque_2" data-name="Calque 2"><g id="Calque_1-2" data-name="Calque 1"><path id="PICTO_LOCATION-2" data-name="PICTO LOCATION-2" d="M10.15,0A7.18,7.18,0,0,0,3,7.17H3c0,5.39,7.18,13.34,7.18,13.34s7.18-7.95,7.18-13.34A7.17,7.17,0,0,0,10.16,0h0Zm0,10.39a3.21,3.21,0,1,1,3.21-3.21,3.21,3.21,0,0,1-3.21,3.21Z"/><path d="M14.21,17h0a.47.47,0,0,0-.36.12.51.51,0,0,0-.17.35.55.55,0,0,0,.42.61c3.66.5,5.24,1.83,5.24,2.4,0,.84-3.15,2.41-9.18,2.41S1,21.32,1,20.48c0-.57,1.58-1.9,5.25-2.41a.52.52,0,0,0,.41-.58.5.5,0,0,0-.5-.49h0C2.45,17.51,0,18.91,0,20.48S3.18,24,10.15,24,20.3,22.16,20.3,20.48,17.85,17.51,14.21,17Z"/></g></g></svg>