<svg xmlns="http://www.w3.org/2000/svg" viewBox="0 0 24 24"><defs><style>.transparent{opacity:0;}</style></defs><g id="Calque_2" data-name="Calque 2"><g id="Calque_1-2" data-name="Calque 1"><rect class="transparent" width="24" height="24"/><path d="M15.5,5.57a4.69,4.69,0,0,1,2,.48,1.15,1.15,0,0,0,1.27-.26,2.14,2.14,0,0,1,1.47-.69c1.08,0,1.93,1.07,2.88,1.07S24,4.27,24,3.36s-1.29-2.1-3.37-2.1C13,1.26,9.34,7,7.91,10.16a10.57,10.57,0,0,1,2.2-.51C11.44,7.77,13.1,5.57,15.5,5.57ZM8.61,9.52c1.67-3.26,5.22-7.85,12-7.85,2,0,3,1.1,3,1.69v.11a4.73,4.73,0,0,1-.32,2.18.26.26,0,0,1-.21.11,2.68,2.68,0,0,1-1.2-.47,3.47,3.47,0,0,0-1.68-.6,2.48,2.48,0,0,0-1.68.78.91.91,0,0,1-.62.26.67.67,0,0,1-.31-.07,5.08,5.08,0,0,0-2.11-.5c-2.59,0-4.37,2.42-5.56,4.1A11.17,11.17,0,0,0,8.61,9.52Zm-.93,5a5.55,5.55,0,0,1,1.71.35c.84-1,1.44-1.32,1.94-1.32.84,0,1.39.92,2.31.92s1.17-1.49,1.17-2.41S13.52,10,11.44,10C4.61,10,1.8,15.69.76,18.88A14,14,0,0,0,.13,22L0,23.54C1,21.58,3.76,14.25,7.68,14.54ZM4.52,13.19a9.34,9.34,0,0,1,6.92-2.8c2,0,3,1.1,3,1.69s-.15,2-.83,2a2,2,0,0,1-1.05-.43,2.3,2.3,0,0,0-1.26-.49,2.93,2.93,0,0,0-2,1.26,6,6,0,0,0-1.36-.33c-4-.59-7.31,6.66-7.31,6.66A14.07,14.07,0,0,1,4.52,13.19ZM24,23.54c-7.83-6.53-5.44-15.48-3.5-18l-.28,0A1.86,1.86,0,0,0,19,6.12a1.53,1.53,0,0,1-1,.43,1.38,1.38,0,0,1-.56-.12A4.39,4.39,0,0,0,15.5,6c-2.12,0-3.66,1.87-4.9,3.61q.4,0,.84,0c2.22,0,3.71,1.3,3.71,2.51,0,1.4-.47,2.82-1.51,2.82a2.49,2.49,0,0,1-1.37-.53,1.81,1.81,0,0,0-.94-.39c-.47,0-.79.33-1.36.84l-.28.34c.05,1.79,2.93,6.67,5.07,8.38Zm-7.34-1.76a.19.19,0,0,1-.12.1.2.2,0,0,1-.11,0,7.52,7.52,0,0,1-3-5.27.18.18,0,0,1,.16-.21.21.21,0,0,1,.18.2,2.89,2.89,0,0,0,.06.4,7.22,7.22,0,0,0,2.46,4.28l.32.25A.24.24,0,0,1,16.66,21.78Zm3-.16a.16.16,0,0,1-.16.1.13.13,0,0,1-.08,0c-3.65-2.57-3.16-7-3.14-7.25a.19.19,0,0,1,.19-.18.2.2,0,0,1,.15.22s0,.13,0,.34a8,8,0,0,0,2.74,6.33l.25.19A.24.24,0,0,1,19.68,21.62ZM9.14,15.23A3.81,3.81,0,0,0,7.68,15C5,15,2.1,19.19,1.07,21.23L0,23.54H13.82C11.87,21.73,9.17,17,9.14,15.23Zm-1.05,5.4a.16.16,0,0,1-.13.08.16.16,0,0,1-.11-.05A4.09,4.09,0,0,1,6.73,17a.18.18,0,0,1,.21-.14.22.22,0,0,1,.12.25,2,2,0,0,0,0,.33,3.5,3.5,0,0,0,.82,2.61,1.88,1.88,0,0,0,.24.25A.24.24,0,0,1,8.09,20.63Z"/><circle cx="22.64" cy="9.23" r="1.04"/><circle cx="20.06" cy="11.23" r="0.74"/><circle cx="22.63" cy="12.54" r="0.44"/></g></g></svg>