<svg xmlns="http://www.w3.org/2000/svg" viewBox="0 0 24 24" height="20"><g id="Calque_2" data-name="Calque 2"><g id="Calque_1-2" data-name="Calque 1"><path id="PICTO_DUREE" data-name="PICTO  DUREE" d="M10.06,24a12.27,12.27,0,0,1-4.88-2,12.08,12.08,0,0,1-1.56-1.3h0A12,12,0,0,1,.18,14.15c0-.24-.08-.49-.1-.73a.09.09,0,0,1,0-.05c0-.24,0-.49-.06-.73v0A11.92,11.92,0,0,1,2,5.55l0,0c.08-.13.17-.25.26-.38l.16-.23,0,0A12.1,12.1,0,0,1,9.16.39h0c.31-.08.62-.14.93-.2A12.27,12.27,0,0,1,19,2.05L19.8,1c.21-.3.47-.26.57.1l.89,3.19a.53.53,0,0,1-.35.68.35.35,0,0,1-.14,0l-3.34.29c-.37,0-.5-.19-.29-.49l.77-1.1A10.37,10.37,0,0,0,6.4,3.74l0,0a10.09,10.09,0,0,0,0,16.61,9.74,9.74,0,0,0,1,.6h0a5.85,5.85,0,0,0,.56.28s0,0,0,0a10.24,10.24,0,0,0,2.52.79A1,1,0,0,1,10.23,24Zm3.53-.15a.86.86,0,0,1-.21-1.18.85.85,0,0,1,.54-.34,5,5,0,0,0,.53-.12.84.84,0,1,1,.4,1.64l-.62.14a.85.85,0,0,1-.64-.14Zm3.56-1.14a.85.85,0,0,1-.21-1.17,1.06,1.06,0,0,1,.27-.25l.46-.28a.84.84,0,0,1,.93,1.41c-.17.11-.36.23-.54.33a.83.83,0,0,1-.91,0Zm3.21-2.64-.06,0a.85.85,0,0,1-.09-1.19c.11-.13.23-.28.33-.42a.85.85,0,0,1,1.37,1l0,0a6.4,6.4,0,0,1-.4.51.85.85,0,0,1-1.13.14Zm1.86-3.21a.86.86,0,0,1-.49-1.09h0c.07-.17.12-.34.18-.51a.84.84,0,0,1,1.61.51q-.09.3-.21.6a.84.84,0,0,1-1.09.49Zm-4.67-1.31-6.23-3.22V5.51a.69.69,0,0,1,1.37,0v6l5.48,2.84a.68.68,0,1,1-.6,1.22Zm5.59-2.4a.85.85,0,0,1-.83-.87c0-.18,0-.36,0-.53A.85.85,0,0,1,24,11.67c0,.21,0,.43,0,.64a.85.85,0,0,1-.85.83Zm-1-4a.84.84,0,0,1-.32-.42,5.17,5.17,0,0,0-.18-.51.85.85,0,0,1,1.57-.63c.08.2.15.4.22.6a.86.86,0,0,1-.54,1.07A.84.84,0,0,1,22.18,9.19Z"/></g></g></svg>