<svg xmlns="http://www.w3.org/2000/svg" width="21.001" height="21.012" viewBox="0 0 21.001 21.012">
  <path id="PICTO_MENTION_DUREE_FULLSCREEN" d="M8.381,19.987A10.158,10.158,0,0,1,4.32,18.307a10.331,10.331,0,0,1-1.3-1.079l0,0L3,17.214a9.96,9.96,0,0,1-2.849-5.42c-.036-.2-.065-.409-.088-.613,0-.013,0-.025-.006-.038-.022-.2-.038-.409-.048-.611,0-.007,0-.014,0-.021a9.9,9.9,0,0,1,1.614-5.89c.007-.013.014-.026.023-.038.07-.107.143-.213.216-.317.046-.063.092-.127.138-.188.011-.015.023-.029.035-.043A10.106,10.106,0,0,1,7.636.323L7.665.315h0C7.925.25,8.183.2,8.446.151a10.2,10.2,0,0,1,7.411,1.558L16.5.793c.178-.254.392-.219.476.079l.746,2.659a.454.454,0,0,1-.415.592l-2.779.246c-.311.028-.421-.158-.243-.412l.64-.914a8.639,8.639,0,0,0-9.594.076l-.029.02a8.409,8.409,0,0,0-.036,13.843,8.921,8.921,0,0,0,.815.5h0c.152.082.309.16.466.233l.023.012a8.522,8.522,0,0,0,2.1.661A.809.809,0,0,1,8.526,20,.833.833,0,0,1,8.381,19.987Zm2.943-.123A.7.7,0,0,1,11.6,18.6c.146-.026.293-.059.437-.095a.7.7,0,1,1,.34,1.366c-.172.043-.347.08-.521.113a.7.7,0,0,1-.533-.116Zm2.968-.947a.7.7,0,0,1,.054-1.184c.129-.075.257-.154.382-.236a.7.7,0,1,1,.776,1.174c-.148.1-.3.192-.454.281a.7.7,0,0,1-.757-.035Zm2.678-2.2c-.018-.013-.035-.026-.052-.04a.7.7,0,0,1-.08-.992c.1-.113.191-.231.28-.35a.7.7,0,1,1,1.126.844c-.107.142-.219.283-.334.418a.7.7,0,0,1-.94.119Zm1.547-2.674a.7.7,0,0,1-.407-.908c.053-.139.1-.281.147-.424a.7.7,0,0,1,1.343.421c-.053.169-.112.338-.175.5a.7.7,0,0,1-.908.407Zm-3.895-1.09L9.434,10.268V4.594a.569.569,0,0,1,1.139,0v4.98l4.573,2.365a.569.569,0,1,1-.523,1.012Zm4.656-2a.7.7,0,0,1-.688-.719c0-.149,0-.3,0-.448a.7.7,0,0,1,1.407-.055c.007.177.008.356,0,.534a.7.7,0,0,1-.7.688Zm-.8-3.289A.7.7,0,0,1,18.22,7.3c-.047-.142-.1-.283-.154-.421a.7.7,0,1,1,1.307-.523c.066.164.128.333.183.5a.7.7,0,0,1-1.074.8Z" transform="translate(0.501 0.512)" fill="#292f33" stroke="rgba(0,0,0,0)" stroke-miterlimit="10" stroke-width="1"/>
</svg>
 