<svg xmlns="http://www.w3.org/2000/svg" viewBox="0 0 24 24.02"><defs><style>.transparent{opacity:0;}</style></defs><g id="Calque_2" data-name="Calque 2"><g id="Calque_1-2" data-name="Calque 1"><rect class="transparent" width="24" height="24"/><path d="M12.74,3.92l.15.06a.06.06,0,0,0,.09,0l.08-.16,1,.33h0a4.56,4.56,0,0,0,.49.11.46.46,0,0,0,.35-.08h0l0,0A.47.47,0,0,0,15,3.74a.84.84,0,0,0-.25-.43l0,0h0A16.57,16.57,0,0,1,12.4,2l0,0h0l-.07-.06a1.24,1.24,0,0,0-.5-.32.43.43,0,0,0-.41.07l-.05,0a.69.69,0,0,0-.16.54,1.11,1.11,0,0,0,.26.59,3.07,3.07,0,0,0,.25.26,2.3,2.3,0,0,0,.47.35l-.08.18v.06l0,0,.15.06-.36.74-.17.36,0,.09L9.57,4.78A4.8,4.8,0,1,0,8.08,8.5L9.44,9.63h0a1.21,1.21,0,0,0,1,.27l.17.37a.37.37,0,0,0-.37.08h0l0,.06h0a.37.37,0,0,0,.1.45l.12.09,1.32.67a.45.45,0,0,0,.52-.06.18.18,0,0,0,0-.07h0a.39.39,0,0,0-.11-.46L12.05,11h0l-.6-.31-.46-1a.63.63,0,0,0,.12-.11,1,1,0,0,0,.23-.37l7.84.92-.16.3,0,0a.08.08,0,0,0-.09,0,.48.48,0,0,0-.1.34.91.91,0,0,0,.06.16l-.53,1a4.79,4.79,0,1,0,2,1.11,4.64,4.64,0,0,0-1.34-.88l.49-.92.1,0A.72.72,0,0,0,19.7,11a.68.68,0,0,0,.11-.19.09.09,0,0,0,0-.09h0l1-1.89A.22.22,0,0,0,21,8.8l0-.05h0l.06-.11h0a.15.15,0,0,0,0-.09,1.53,1.53,0,0,0,.46.14.6.6,0,0,0,.52-.17l.07-.08h0L22.41,8a.07.07,0,0,0,0-.09l-.07,0,1-1.95a.72.72,0,0,0,.5-.24.75.75,0,0,0,0-1.07.74.74,0,0,0-.52-.2l-.14-.11h0a.51.51,0,0,0-.7.75l.09.11a.74.74,0,0,0,.19.51l-1,1.9-.13-.06a.07.07,0,0,0-.1,0l-.13.24-.9-.47a.09.09,0,0,0-.1,0L20,7.9V8l0,0,.07,0h0l0,0h0L20,8.21h0a.21.21,0,0,0,0,.24l-.11.2L12.21,5.1ZM8.28,5.33a3.72,3.72,0,0,1-.21.92L6,5.19ZM2.58,7.38a3.21,3.21,0,0,1-.15-4.55,3.17,3.17,0,0,1,2.24-1A3.18,3.18,0,0,1,8,4.72l-3.2-.19h0a.58.58,0,0,0-.45.14h0l0,0A.41.41,0,0,0,4.17,5a.51.51,0,0,0,.17.35l.11.08h0l2.41,2A3.2,3.2,0,0,1,2.58,7.38Zm7.83.07L9.22,6.84a4.74,4.74,0,0,0,.34-1.43l1.77.1Zm1,1a1.17,1.17,0,0,0-.35-.63L11,7.77l1-2,7.68,3.51-.1.19ZM19.25,18.6a3.12,3.12,0,0,1-4.4.14,3.11,3.11,0,0,1,2.75-5.31l-1.25,2.32h0a.86.86,0,0,0-.1.32.45.45,0,0,0,.12.33h0a.6.6,0,1,0,1-.38.55.55,0,0,0-.28-.15l-.17,0,1.23-2.3a3,3,0,0,1,.94.6,3.12,3.12,0,0,1,.14,4.4Z"/><path d="M13.73,22C7.7,19.49,9.4,15.44,0,8.66V23.19A.82.82,0,0,0,.8,24C5.2,24,24,24,24,24h0C20.72,20.65,18,23.74,13.73,22Z"/></g></g></svg>