<svg xmlns="http://www.w3.org/2000/svg" viewBox="0 0 24 24"><defs><style>.transparent{opacity:0;}.cls-3201019{fill:#1d1d1b;}</style></defs><g id="Calque_2" data-name="Calque 2"><g id="Calque_1-2" data-name="Calque 1"><rect class="transparent" width="24" height="24"/><g id="PICTO_WAKEBOARD-2" data-name="PICTO WAKEBOARD-2"><path id="PICTO_WAKEBAORD" data-name="PICTO WAKEBAORD" class="cls-3201019" d="M1.254,22.735A3.47,3.47,0,0,1,0,20.123a8.438,8.438,0,0,1,1.7-4.358A51.111,51.111,0,0,1,8.2,8.2a52.783,52.783,0,0,1,7.529-6.5A8.2,8.2,0,0,1,19.947,0a3.242,3.242,0,0,1,2.326,1.037c.116.1.225.2.323.278a.484.484,0,0,1,.1.1c.073.1.168.2.27.317a3.355,3.355,0,0,1,.732,3.9C22.869,8,20.317,11.294,15.769,15.837A51.006,51.006,0,0,1,8.226,22.3,8.458,8.458,0,0,1,3.884,24,3.5,3.5,0,0,1,1.254,22.735ZM8.906,8.9C3.657,14.153,1,17.926,1,20.12a2.481,2.481,0,0,0,.96,1.907l0,0A2.534,2.534,0,0,0,3.884,23c2.184,0,5.943-2.647,11.176-7.868,4.38-4.375,6.927-7.642,7.694-9.833a2.392,2.392,0,0,0-.53-2.9c-.1-.112-.2-.217-.284-.328-.114-.09-.225-.189-.338-.293A2.3,2.3,0,0,0,19.947,1C17.872,1,14.2,3.617,8.906,8.9Zm-.058,9.23a2.505,2.505,0,0,1-.455-.337,6.46,6.46,0,0,1-.844-.413,7.594,7.594,0,0,1-2.16-1.576,2.138,2.138,0,0,1-.056-2.588,2.193,2.193,0,0,1,1.92-1.274,6.132,6.132,0,0,1,2.8,1.11,6.6,6.6,0,0,1,.78.524,2.5,2.5,0,0,1,1.475,3.568l-.041.073-.005.008A2.5,2.5,0,0,1,8.848,18.135ZM8.8,15.221a1.5,1.5,0,1,0,1.3-.751A1.5,1.5,0,0,0,8.8,15.221Zm-1.76.048a.5.5,0,0,1,.182.683l-.032.058c.136.085.279.171.427.258a2.47,2.47,0,0,1,.317-1.546,2.506,2.506,0,0,1,1.183-1.05c-.147-.084-.3-.165-.438-.24l-.051.09a.5.5,0,0,1-.434.25.489.489,0,0,1-.25-.068.5.5,0,0,1-.189-.672,1.779,1.779,0,0,0-.5-.086c-.283,0-.658.09-1.054.775-.442.766-.275,1.157-.027,1.467a1.916,1.916,0,0,0,.208.224.5.5,0,0,1,.66-.143Zm6.87-4.017a2.522,2.522,0,0,1-.227-.519,6.6,6.6,0,0,1-.524-.78A7.657,7.657,0,0,1,12.074,7.51a2.139,2.139,0,0,1,1.249-2.268,2.661,2.661,0,0,1,1.336-.409c1.318,0,2.054,1.273,2.833,2.622a6.818,6.818,0,0,1,.415.845,2.614,2.614,0,0,1,.336.454,2.5,2.5,0,0,1-.847,3.371c-.021.014-.046.029-.068.042h0a2.508,2.508,0,0,1-3.419-.915ZM15.326,8.7a1.5,1.5,0,0,0-.552,2.049h0a1.5,1.5,0,1,0,.551-2.05Zm-1.519-.856a.5.5,0,0,1-.184.684l-.085.049c.072.138.151.283.24.438a2.471,2.471,0,0,1,1.048-1.18A2.5,2.5,0,0,1,16.075,7.5a2.454,2.454,0,0,1,.3.018c-.088-.15-.176-.293-.258-.424l-.055.03a.5.5,0,0,1-.54-.84,1.189,1.189,0,0,0-.858-.455,1.724,1.724,0,0,0-.835.274,1.17,1.17,0,0,0-.689,1.552.5.5,0,0,1,.672.188Z"/></g></g></g></svg>