<svg xmlns="http://www.w3.org/2000/svg" viewBox="0 0 24 24"><g id="Calque_2" data-name="Calque 2"><g id="Calque_1-2" data-name="Calque 1"><rect width="24" height="24" opacity="0"/><path d="M22.7577,22.49989h-.01591l-.06119.004c-1.78829.0855-3.60981.12864-5.414.12864-1.69528,0-3.40535-.03813-5.08727-.11324-.024-.24609-.0538-.58478-.08443-1.01262l8.65533-1.9161c.84332-.30311,1.57816-.96526,1.40359-1.786-.01734-.08317-.05343-.20295-.11525-.39368.20173.02212.40718.04381.61929.06594l.01559.00159h.05138a.19659.19659,0,0,0,.05138.003A.72863.72863,0,0,0,23.5,16.85726a.70838.70838,0,0,0-.69676-.731c-.41974-.04425-.83885-.0899-1.24871-.13561A73.47156,73.47156,0,0,1,18.39838,4.39216a2.08749,2.08749,0,0,0-.90265-1.71449A6.95687,6.95687,0,0,0,13.614,1.72812q.09394-.45513.19484-.92071a.68988.68988,0,0,0-.58574-.7939l-.02-.00288-.009-.00006A.7648.7648,0,0,0,13.06819,0h-.00006a.74248.74248,0,0,0-.71056.51077,69.13344,69.13344,0,0,0-1.81742,13.54842c-.35419-.0971-.57-.16384-.65725-.19146a.86509.86509,0,0,0-.29834-.056.7834.7834,0,0,0-.67365.38189.65784.65784,0,0,0,.31965.90476.59882.59882,0,0,0,.09754.035c.37277.11978.80437.2384,1.15794.3308a58.97316,58.97316,0,0,0,.18682,6.96173c-4.21817-.299-7.19962-.84279-9.10725-1.66059a.793.793,0,0,0-.96323.26676.64941.64941,0,0,0,.23018.91637.61027.61027,0,0,0,.11208.05139C4.81862,23.6516,11.87931,24,17.11668,24c2.67622,0,4.8113-.09387,5.60511-.1342a.718.718,0,0,0,.74907-.6572l.00044-.00868.00068-.05078A.72447.72447,0,0,0,22.7577,22.49989ZM13.3226,3.1197c.03852-.00037.07841-.00055.11941-.00055a5.47039,5.47039,0,0,1,3.07017.64466.82868.82868,0,0,1,.36121.71654l-.0013.02915.00459.02872A70.49618,70.49618,0,0,0,19.87851,15.81c-2.63881-.32273-5.28514-.77893-7.87674-1.35778A78.11547,78.11547,0,0,1,13.3226,3.1197Z" /></g></g></svg>