<svg xmlns="http://www.w3.org/2000/svg" viewBox="0 0 24 24"><g id="Calque_2" data-name="Calque 2"><g id="Calque_1-2" data-name="Calque 1"><rect width="24" height="24" opacity="0"/><path d="M11.8744,19.9719a.49972.49972,0,0,1-.5-.5V14.39084a.5.5,0,0,1,1,0V19.4719A.49972.49972,0,0,1,11.8744,19.9719Z" /><path d="M18.67127,20.27268a.49984.49984,0,0,1-.44091-.73535l1.31543-2.4668a.50023.50023,0,1,1,.88281.4707L19.11317,20.008A.5002.5002,0,0,1,18.67127,20.27268Z" /><path d="M4.82655,20.26682a.50062.50062,0,0,1-.47852-.35449l-.814-2.67481a.50015.50015,0,1,1,.957-.291l.814,2.6748a.49971.49971,0,0,1-.47851.64551Z" /><path d="M11.99983,3.35a2.79212,2.79212,0,0,0-1.9033.78524l-.007.01306S8.46483,5.59973,7.71224,6.35012a79.53549,79.53549,0,0,0-5.79815,6.2064L.291,14.55965A1.40582,1.40582,0,0,0,0,15.438v.0007c0,.87916.70159,1.46781,1.32543,1.11207L8.392,12.52107a7.1144,7.1144,0,0,1,7.216,0l7.06657,4.02965C23.29839,16.90646,24,16.31781,24,15.43865h0a1.4055,1.4055,0,0,0-.29162-.87911l-1.62426-2.0007a79.5756,79.5756,0,0,0-5.79634-6.20872c-.75259-.75054-2.37728-2.20182-2.37728-2.20182l-.007-.01306A2.7921,2.7921,0,0,0,12.00021,3.35Zm4.42192,5.09923a.43.43,0,0,1,.31454.142l2.77918,2.83906a.71171.71171,0,0,1,.08365.84929.42234.42234,0,0,1-.67889.10457l-.01291-.013-2.7867-2.83906a.71148.71148,0,0,1-.08557-.849.456.456,0,0,1,.38692-.234Zm4.30246,4.297a.614.614,0,0,1,.00011,1.18939h-.00011a.54091.54091,0,0,1-.46142-.59462v-.00015a.54088.54088,0,0,1,.4614-.59462Z"  fill-rule="evenodd"/></g></g></svg>