
<svg xmlns="http://www.w3.org/2000/svg" viewBox="0 0 24 24"><defs><style>.transparent{opacity:0;}</style></defs><g id="Calque_2" data-name="Calque 2"><g id="Calque_1-2" data-name="Calque 1"><rect class="transparent" width="24" height="24"/><path class="cls-392872319" d="M12.008,7.15A3.174,3.174,0,0,0,14.5,5.87a4.59,4.59,0,0,0,.936-2.846A2.783,2.783,0,0,0,14.342.6,3.946,3.946,0,0,0,12.014.009a4.072,4.072,0,0,0-2.381.6,2.775,2.775,0,0,0-1.069,2.41A4.581,4.581,0,0,0,9.5,5.866,3.213,3.213,0,0,0,12.008,7.15ZM9.875,3.024a1.637,1.637,0,0,1,.538-1.435,2.751,2.751,0,0,1,1.371-.368,2.026,2.026,0,0,1,.237.008,2.677,2.677,0,0,1,1.546.349,1.638,1.638,0,0,1,.557,1.453,3.458,3.458,0,0,1-.694,2.13,1.841,1.841,0,0,1-1.42.768,1.855,1.855,0,0,1-1.449-.776A3.43,3.43,0,0,1,9.875,3.024Z"/><path class="cls-392872319" d="M5.734,13.267l.151-.3A6.664,6.664,0,0,1,9.518,9.118a.614.614,0,0,0,.448-.751.647.647,0,0,0-.7-.438.671.671,0,0,0-.228.051,7.855,7.855,0,0,0-4.346,4.491l-.146.3A6.541,6.541,0,0,1,3.2,14.747,4.351,4.351,0,0,1,.657,15.789H.648a.669.669,0,0,0-.579.339.581.581,0,0,0,.1.677h0a.738.738,0,0,0,.493.2A.267.267,0,0,0,.757,17,5.841,5.841,0,0,0,4.12,15.611,7.512,7.512,0,0,0,5.734,13.267Z"/><path class="cls-392872319" d="M23.928,16.12a.656.656,0,0,0-.559-.331,4.367,4.367,0,0,1-2.551-1.022,6.566,6.566,0,0,1-1.37-2.014l-.143-.288A7.851,7.851,0,0,0,14.961,7.98a.63.63,0,0,0-.285-.051.677.677,0,0,0-.643.5.588.588,0,0,0,.4.672,6.683,6.683,0,0,1,3.681,3.863l.142.286A7.569,7.569,0,0,0,19.9,15.628,5.718,5.718,0,0,0,23.21,17a.375.375,0,0,0,.139.012.685.685,0,0,0,.488-.205A.584.584,0,0,0,23.928,16.12Z"/><path class="cls-392872319" d="M21.266,19.13a9.127,9.127,0,0,0-3.221-.8c-.354-.04-.722-.084-1.081-.146a1.839,1.839,0,0,1-.784-1.365,8.881,8.881,0,0,1,.02-2.105.575.575,0,0,0-.166-.459.655.655,0,0,0-.436-.2.694.694,0,0,0-.467.136.625.625,0,0,0-.237.415,9.859,9.859,0,0,0-.011,2.36,3.092,3.092,0,0,0,1.485,2.326.637.637,0,0,0,.2.067c.47.087.919.142,1.356.194a7.99,7.99,0,0,1,2.748.675,1.961,1.961,0,0,1,.984.862.7.7,0,0,1-.093.676,3.059,3.059,0,0,1-2.419,1.021,22.477,22.477,0,0,1-3.939-.6l-.4-.082c-.631-.132-1.271-.244-1.912-.334a13.979,13.979,0,0,1,2.461-.488.6.6,0,0,0,.451-.169.605.605,0,0,0-.469-1.051A27.037,27.037,0,0,0,9.382,21.57a17.65,17.65,0,0,1-4.525,1.207,3.052,3.052,0,0,1-2.429-1.036.674.674,0,0,1-.1-.628,1.983,1.983,0,0,1,1.021-.9,7.91,7.91,0,0,1,2.724-.664c.409-.049.873-.1,1.348-.192a.769.769,0,0,0,.235-.082,3.075,3.075,0,0,0,1.457-2.306,9.523,9.523,0,0,0-.007-2.344.6.6,0,0,0-.261-.459.667.667,0,0,0-.493-.114.616.616,0,0,0-.551.674,8.877,8.877,0,0,1,.018,2.1,1.835,1.835,0,0,1-.784,1.358c-.33.057-.665.1-.991.134l-.1.012a9.1,9.1,0,0,0-3.187.794,3.217,3.217,0,0,0-1.636,1.529,1.831,1.831,0,0,0,.2,1.745A4.24,4.24,0,0,0,4.859,24a16.368,16.368,0,0,0,4.8-1.22l.236-.065a20.656,20.656,0,0,1,4.628.575l.58.12A21.37,21.37,0,0,0,19.145,24a4.259,4.259,0,0,0,3.53-1.595,1.852,1.852,0,0,0,.2-1.785A3.176,3.176,0,0,0,21.266,19.13Z"/></g></g></svg>