<svg xmlns="http://www.w3.org/2000/svg" width="22.317" height="24.7" viewBox="0 0 22.317 24.7">
  <g id="PICTO_YOGA" transform="translate(0.359 0.35)">
    <path id="PICTO_YOGA-2" data-name="PICTO_YOGA" d="M22.676,7a3.143,3.143,0,0,0-2,.549,2.662,2.662,0,0,0-.859,2.206,4.714,4.714,0,0,0,.806,2.721,2.38,2.38,0,0,0,4.108,0,4.714,4.714,0,0,0,.806-2.721,2.662,2.662,0,0,0-.859-2.206A3.143,3.143,0,0,0,22.676,7Zm0,.558a2.637,2.637,0,0,1,1.647.427,2.073,2.073,0,0,1,.646,1.77,4.181,4.181,0,0,1-.7,2.4,1.819,1.819,0,0,1-3.187,0,4.181,4.181,0,0,1-.7-2.4,2.073,2.073,0,0,1,.646-1.77A2.637,2.637,0,0,1,22.676,7.558Zm-2.514,7.6a.287.287,0,0,0-.106.026c-2.494,1.117-3.247,3.086-3.993,4.744a7.172,7.172,0,0,1-1.328,2.163,4.132,4.132,0,0,1-2.576,1.16.284.284,0,0,0-.256.16.276.276,0,0,0,.038.3.286.286,0,0,0,.289.092,4.774,4.774,0,0,0,2.913-1.326,7.569,7.569,0,0,0,1.434-2.32c.756-1.68,1.41-3.422,3.718-4.456a.278.278,0,0,0,.186-.331A.283.283,0,0,0,20.162,15.154Zm4.993,0a.282.282,0,0,0-.278.23.279.279,0,0,0,.18.31c2.308,1.034,2.963,2.776,3.718,4.456a7.569,7.569,0,0,0,1.434,2.32A4.774,4.774,0,0,0,33.122,23.8a.286.286,0,0,0,.289-.092.276.276,0,0,0,.038-.3.284.284,0,0,0-.256-.16,4.132,4.132,0,0,1-2.576-1.16,7.172,7.172,0,0,1-1.328-2.163c-.746-1.658-1.5-3.627-3.993-4.744A.287.287,0,0,0,25.155,15.154Zm-5.816,6.3a.28.28,0,0,0-.23.305,10.378,10.378,0,0,1,.018,2.233,2.3,2.3,0,0,1-.921,1.7,11.749,11.749,0,0,0-3.966.959,2.768,2.768,0,0,0-1.346,1.378,1.719,1.719,0,0,0,.159,1.483,3.483,3.483,0,0,0,3,1.491,14.72,14.72,0,0,0,4.506-1.3l.089-.035a.287.287,0,0,0,.062.009,17.6,17.6,0,0,1,4.373.6A21.223,21.223,0,0,0,29.3,31a3.483,3.483,0,0,0,3-1.491,1.719,1.719,0,0,0,.159-1.483,2.768,2.768,0,0,0-1.346-1.378,11.75,11.75,0,0,0-3.966-.959,2.3,2.3,0,0,1-.921-1.7,10.377,10.377,0,0,1,.018-2.233.284.284,0,0,0-.567-.044,10.694,10.694,0,0,0-.009,2.355,2.864,2.864,0,0,0,1.2,2.119.286.286,0,0,0,.1.035c1.405.289,2.609.218,3.869.916a2.22,2.22,0,0,1,1.089,1.081,1.134,1.134,0,0,1-.115,1.012A3,3,0,0,1,29.3,30.442a21.473,21.473,0,0,1-4.09-.706,24.646,24.646,0,0,0-3.293-.532,18.342,18.342,0,0,1,3.877-1,.279.279,0,1,0-.018-.558,21.905,21.905,0,0,0-5.417,1.536,15.342,15.342,0,0,1-4.3,1.265A3,3,0,0,1,13.54,29.23a1.134,1.134,0,0,1-.115-1.012,2.22,2.22,0,0,1,1.089-1.081c1.26-.7,2.464-.626,3.869-.916a.286.286,0,0,0,.1-.035,2.864,2.864,0,0,0,1.2-2.119,10.7,10.7,0,0,0-.009-2.355.278.278,0,0,0-.107-.207A.286.286,0,0,0,19.339,21.451Z" transform="translate(-11.876 -7)" fill="#292f33" stroke="#292f33" stroke-width="0.7"/>
  </g>
</svg>